<?xml version="1.0" encoding="UTF-8" standalone="no"?>
<!-- Created with Inkscape (http://www.inkscape.org/) -->

<svg
   xmlns:dc="http://purl.org/dc/elements/1.1/"
   xmlns:cc="http://creativecommons.org/ns#"
   xmlns:rdf="http://www.w3.org/1999/02/22-rdf-syntax-ns#"
   xmlns:svg="http://www.w3.org/2000/svg"
   xmlns="http://www.w3.org/2000/svg"
   xmlns:sodipodi="http://sodipodi.sourceforge.net/DTD/sodipodi-0.dtd"
   xmlns:inkscape="http://www.inkscape.org/namespaces/inkscape"
   width="512"
   height="512"
   viewBox="0 0 512.00001 512"
   id="svg2"
   version="1.1"
   inkscape:version="0.91 r13725"
   sodipodi:docname="lb-klingt-inverted.svg"
   inkscape:export-filename="/home/harald/RubymineProjects/LB-klingt/assets/img/favicons/invers-124x124.png"
   inkscape:export-xdpi="21.796875"
   inkscape:export-ydpi="21.796875">
  <defs
     id="defs4" />
  <sodipodi:namedview
     id="base"
     pagecolor="#ffffff"
     bordercolor="#666666"
     borderopacity="1.0"
     inkscape:pageopacity="0.0"
     inkscape:pageshadow="2"
     inkscape:zoom="1"
     inkscape:cx="-62"
     inkscape:cy="103.89726"
     inkscape:document-units="px"
     inkscape:current-layer="layer2"
     showgrid="false"
     units="px"
     inkscape:window-width="1920"
     inkscape:window-height="1026"
     inkscape:window-x="0"
     inkscape:window-y="225"
     inkscape:window-maximized="1"
     borderlayer="true"
     fit-margin-top="0"
     fit-margin-left="0"
     fit-margin-right="0"
     fit-margin-bottom="0" />
  <metadata
     id="metadata7">
    <rdf:RDF>
      <cc:Work
         rdf:about="">
        <dc:format>image/svg+xml</dc:format>
        <dc:type
           rdf:resource="http://purl.org/dc/dcmitype/StillImage" />
        <dc:title></dc:title>
      </cc:Work>
    </rdf:RDF>
  </metadata>
  <g
     inkscape:groupmode="layer"
     id="layer2"
     inkscape:label="Background"
     style="display:inline"
     transform="translate(0.71295896,-1.8972514)">
    <g
       style="fill:#383838;fill-opacity:1"
       transform="matrix(1.0198866,0,0,1.0241056,-6.1051412,-558.60695)"
       id="g4812">
      <path
         inkscape:connector-curvature="0"
         id="path4814"
         d="m 199.65028,1044.1136 c -7.94947,-8.2609 -2.25617,-28.1371 10.979,-38.3294 8.49756,-6.54385 14.43882,16.7757 8.32169,32.6629 -3.34537,8.6884 -13.51852,11.6752 -19.30069,5.6665 z m 111.76236,-21.0816 c -2.99364,-3.1109 -3.57265,-9.7295 -1.07795,-12.322 2.57266,-2.6734 7.47792,-1.9538 9.7599,1.4318 5.85549,8.6874 -1.69175,18.1543 -8.68195,10.8902 z m 60.01157,-8.4802 c -12.18287,-6.3155 -16.35703,-13.304 -23.00751,-38.52032 -10.57732,-40.10556 -29.15757,-54.41117 -40.48889,-31.17387 -4.17203,8.55568 -7.79276,9.711 -16.75824,5.34726 -18.62275,-9.06413 -29.08024,2.60408 -28.48505,31.78291 0.50565,24.78952 -2.71139,31.24272 -15.5751,31.24272 -13.03126,0 -16.23035,-14.15395 -7.86647,-34.80416 7.71733,-19.05386 0.41439,-28.87846 -17.31236,-23.29019 -11.12416,3.50684 -13.32715,2.94502 -19.76013,-5.03951 -6.59322,-8.18339 -9.96215,-9.87631 -19.65599,-9.87733 -15.43843,-10e-4 -22.12599,8.34253 -27.49381,34.30446 -5.04289,24.39032 -20.12263,34.75113 -35.96738,24.71196 -17.67327,-11.19766 -12.0873,-32.96361 11.97879,-46.67576 27.14335,-15.4655 24.73148,-43.8478 -3.62249,-42.62875 -11.42887,0.49137 -12.72316,-1.07477 -12.72316,-15.39535 0,-22.37099 -17.728173,-25.1362 -39.655388,-6.18535 -14.787718,12.78044 -32.427732,9.14749 -34.01,-7.00435 -1.26734,-12.93708 8.60304,-20.65129 26.504986,-20.71504 21.835814,-0.0777 30.601462,-16.02362 19.072049,-34.69455 -5.646721,-9.14439 -5.613704,-14.78237 0.128969,-22.02217 15.475134,-19.50952 1.189291,-35.63849 -31.614291,-35.69309 -31.352761,-0.0522 -44.179202,-8.55216 -44.179202,-29.27725 0,-31.07208 29.76472,-39.20315 55.056925,-15.04038 23.093261,22.06203 49.138382,18.50304 46.963862,-6.41745 -0.75314,-8.63123 -0.75314,-8.63123 9.04125,-18.54849 18.18632,-18.4145 17.38431,-28.13607 -3.44487,-41.75733 -21.200671,-13.8642 -21.845113,-38.11904 -1.05891,-39.85442 12.41055,-1.03611 18.70063,5.3934 23.55906,24.08129 4.43679,17.06605 21.28209,26.05495 27.25895,14.54576 4.30915,-8.29777 6.32865,-9.5823 15.06497,-9.5823 8.71177,0 10.88917,-1.70813 12.87395,-10.0994 2.74659,-11.61209 12.66439,-13.91993 22.71821,-5.28646 16.73738,14.37282 33.61728,3.79769 30.18363,-18.90984 -4.99773,-33.05105 -0.4239,-47.95756 15.54112,-50.64982 20.27761,-3.41952 26.60655,21.80172 11.98832,47.77423 -10.52976,18.70849 -8.83818,30.17015 4.45272,30.17015 6.16189,0 7.87697,0.65855 12.76319,4.9008 6.50756,5.64992 9.41262,5.97173 18.88454,2.09199 10.40295,-4.2611 12.37534,-3.23378 23.91861,12.45785 10.10037,13.73021 25.72031,7.10967 33.33734,-14.13009 11.24069,-31.34429 20.80761,-41.6311 37.19576,-39.99472 27.39059,2.73499 20.89305,36.3633 -10.73483,55.55862 -17.84596,10.83093 -23.13291,17.66595 -23.07288,29.82883 0.11076,22.45236 20.97754,33.48757 39.64683,20.96697 12.92152,-8.66584 23.65326,-3.94423 23.65326,10.40667 0,7.70354 -5.58241,12.63372 -15.60317,13.78016 -25.79444,2.95102 -35.10281,28.06164 -18.69099,50.4216 9.53069,12.9849 23.29211,14.67474 43.11626,5.29449 25.20081,-11.92434 45.26506,-7.30809 50.30978,11.57495 7.1572,26.79034 -13.48614,38.61514 -46.44288,26.60315 -28.25073,-10.29675 -43.0064,-4.52894 -43.0064,16.81066 0,11.64265 0,11.64265 -5.55677,17.00398 -5.33593,5.14829 -8.59135,13.73665 -8.59135,22.66549 0,5.00717 -3.40486,7.34445 -14.26788,9.79423 -11.9488,2.69463 -18.96669,6.9509 -20.25482,12.28431 -3.02735,12.53446 4.74483,27.34138 20.01326,38.12766 30.43205,21.49853 41.22149,47.90641 25.92367,63.44999 -8.18845,8.32 -22.0209,10.5867 -32.24905,5.2846 z m 60.21909,-2.2585 c -3.41613,-1.4283 -5.82682,-8.4395 -4.18744,-12.1785 2.91909,-6.6577 11.71332,-5.35839 15.52092,2.2931 3.62873,7.2921 -3.22925,13.2738 -11.33348,9.8854 z M 56.462684,993.54595 c -9.222358,-5.58699 -3.900742,-23.09385 8.680425,-28.55653 13.451069,-5.84039 17.140014,-2.61536 13.920484,12.1699 -3.463443,15.9054 -12.536498,22.48376 -22.600909,16.38663 z M 471.08426,933.5582 c -7.44048,-3.58678 -36.03074,-35.60503 -35.45151,-39.70214 1.16926,-8.27027 34.06684,-5.54988 51.41601,4.25173 26.72974,15.10127 11.58511,48.73109 -15.9645,35.45041 z M 407.4111,885.59279 c -2.3862,-2.47968 -2.07735,-8.11296 0.50115,-9.14119 4.35626,-1.73713 9.27442,1.38697 9.27442,5.89126 0,4.64383 -6.38994,6.7682 -9.77557,3.24993 z M 8.8511349,869.77073 c -8.25083575,-8.57406 -1.3121564,-20.3842 11.9547291,-20.34783 13.530924,0.0371 16.337148,2.66327 11.513202,10.77435 -6.725464,11.30835 -17.549421,15.72387 -23.4679311,9.57348 z M 473.61174,766.66966 c -9.16555,-2.76149 -9.22412,-8.792 -0.18436,-18.98317 14.6785,-16.54814 34.71148,-14.77265 34.71148,3.07643 0,13.80152 -16.41472,21.36382 -34.52712,15.90674 z M 84.634126,695.34526 c -5.725751,-4.68032 -4.122089,-11.16836 2.760506,-11.16836 4.262954,0 10.071729,6.20707 9.528161,10.18147 -0.602359,4.4042 -7.436612,4.95305 -12.288667,0.98689 z M 434.36653,666.49149 c -6.53166,-2.91203 5.75748,-20.95396 19.20102,-28.18941 18.00627,-9.69118 33.84103,1.74793 21.27982,15.37265 -5.10793,5.5404 -35.33535,15.11079 -40.48084,12.81676 z M 336.2265,624.69465 c -1.05629,-4.37347 3.26772,-12.48977 6.91921,-12.98756 6.98696,-0.95249 8.78777,7.80811 2.71994,13.23192 -4.78546,4.27754 -8.57019,4.18159 -9.63915,-0.24436 z M 128.52587,586.02802 c -16.64029,-8.55952 -18.77848,-25.30625 -3.50138,-27.4235 9.27496,-1.28542 16.61072,7.95803 16.61072,20.93038 0,9.84277 -3.36103,11.5075 -13.10934,6.49312 z m 86.98597,-9.25066 c -7.73616,-9.20704 -6.37182,-23.44378 2.55663,-26.67818 11.2061,-4.05952 18.42447,11.75903 10.77047,23.60271 -3.65922,5.66217 -9.93646,7.11077 -13.3271,3.07547 z"
         style="fill:#383838;fill-opacity:1" />
      <path
         inkscape:connector-curvature="0"
         id="path4816"
         d="m 201.37461,1041.832 c -5.91861,-6.1505 -2.86749,-19.9709 6.74788,-30.5656 5.78641,-6.3757 7.14365,-6.3207 9.07205,0.3679 6.0177,20.8721 -4.84342,41.6043 -15.81993,30.1977 z m 3.33476,-8.5401 c -0.44426,-5.4629 -2.89511,-7.6931 -4.29331,-3.9067 -1.23609,3.3473 0.49989,9.0493 2.75507,9.0493 1.43106,0 1.84413,-1.381 1.53824,-5.1426 z m 108.3202,-11.9401 c -1.89588,-1.9702 -2.16703,-9.003 -0.39108,-10.1436 3.75387,-2.4109 9.64562,6.234 6.73362,9.8802 -1.90752,2.3885 -4.20572,2.4839 -6.34254,0.2634 z m 57.69304,-9.8644 c -9.07514,-5.0457 -14.0418,-13.34558 -18.74715,-31.32874 -12.70945,-48.57387 -32.94172,-63.22558 -47.57422,-34.45207 -2.73048,5.36927 -5.4443,5.67181 -13.66185,1.523 -17.514,-8.8423 -31.22146,5.39149 -30.1313,31.28826 1.08242,25.71325 -1.4956,31.91215 -13.27172,31.91215 -10.52154,0 -13.65401,-13.56224 -6.71158,-29.05825 9.58752,-21.40003 1.47911,-34.44668 -17.98987,-28.94614 -12.03549,3.40038 -13.32985,3.11527 -19.40901,-4.27534 -18.96695,-23.05876 -43.3815,-10.78098 -50.27352,25.28192 -4.37535,22.89439 -17.11507,32.26221 -32.51654,23.91028 -16.66281,-9.03595 -10.84473,-29.5249 12.23094,-43.07247 27.78771,-16.31394 25.67073,-47.32109 -3.17414,-46.49154 -11.31732,0.32547 -11.68013,-0.0879 -12.33538,-14.05639 -1.12347,-23.94957 -19.771615,-27.51821 -42.220333,-8.07955 -11.028483,9.54972 -23.186122,10.99074 -28.911571,3.42687 -2.871225,-3.79317 -3.736627,-12.26444 -1.405826,-13.76138 0.741092,-0.47597 1.34744,-0.19811 1.34744,0.61746 0,2.85902 4.920419,1.44508 8.506265,-2.44437 5.815688,-6.30808 3.458548,-8.03082 -4.86772,-3.55763 -4.068443,2.18573 -4.203535,2.18051 -2.389243,-0.0923 3.598539,-4.50809 9.210171,-6.42513 18.807664,-6.42513 24.547084,0 35.487204,-18.57207 22.729939,-38.58657 -5.346278,-8.38761 -5.200026,-12.22282 0.816603,-21.41388 14.413102,-22.01762 0.815619,-37.17595 -33.653673,-37.51678 -31.97717,-0.31617 -42.712743,-7.15714 -42.730581,-27.22906 -0.02453,-27.6146 26.399487,-35.3779 49.222763,-14.4615 27.034763,24.77603 56.263963,20.63901 53.080013,-7.51281 -0.85999,-7.60383 -0.85999,-7.60383 9.13703,-17.60579 18.10653,-18.11551 16.87982,-30.07962 -4.46571,-43.55432 -19.77964,-12.48623 -21.100109,-35.75894 -2.02891,-35.75894 4.24574,0 4.72735,0.30333 3.30644,2.0825 -2.33333,2.92163 -1.08341,5.19416 4.56188,8.29415 6.03407,3.3135 7.0515,2.4303 4.1419,-3.59545 -2.2602,-4.68086 -2.2602,-4.68086 1.38095,-1.01041 2.3246,2.34334 4.56109,7.11806 6.18544,13.20546 6.92557,25.95421 23.21194,32.45592 35.31806,14.09938 2.10083,-3.1855 3.36845,-3.67085 9.58723,-3.67085 8.79156,0 13.51458,-3.36662 15.78871,-11.25439 3.25702,-11.29681 9.87903,-12.99947 19.31334,-4.96589 21.99205,18.72682 38.67567,2.17181 32.33683,-32.08758 -4.13547,-22.35084 3.72819,-38.38117 18.00738,-36.70864 17.21123,2.01596 19.70764,22.22662 5.65844,45.81012 -10.42186,17.4945 -7.07028,32.12227 7.37722,32.19739 5.66968,0.0295 7.69649,0.82739 12.79141,5.03569 6.71612,5.54739 9.17716,5.68376 20.42284,1.13174 8.09494,-3.27667 11.6312,-1.72247 17.60942,7.73935 13.04999,20.65445 31.11792,14.66174 41.48978,-13.76122 10.93381,-29.96285 26.86574,-42.85233 41.03896,-33.20188 16.08181,10.95003 7.34905,32.59499 -20.10259,49.82619 -24.21536,15.1998 -29.77201,30.31811 -17.84143,48.54238 8.44508,12.90012 20.0708,15.14837 35.20072,6.80734 14.24877,-7.85527 22.93779,-5.5277 22.93779,6.14447 0,8.69894 -3.36165,11.35966 -16.24978,12.86164 -30.5177,3.5565 -35.71748,45.36646 -7.75959,62.39276 9.79137,5.96292 18.2528,5.39546 34.17642,-2.29205 28.87101,-13.93816 51.09678,-4.88385 49.50532,20.16744 -1.16266,18.30148 -17.96151,23.42139 -44.11556,13.44545 -29.00827,-11.06463 -48.08992,-3.44957 -46.30611,18.47972 0.84732,10.41643 0.84732,10.41643 -3.86126,14.52069 -6.02556,5.25222 -7.26513,7.84795 -9.16676,19.19582 -1.87118,11.16599 -1.94065,11.23125 -15.16398,14.24041 -29.35003,6.67908 -28.19198,33.92278 2.35241,55.34139 29.9663,21.01323 38.84078,47.97529 20.47978,62.22079 -5.85683,4.5441 -20.06582,4.7929 -27.81042,0.487 z m -124.58992,-6.7775 c 0.96411,-1.6211 -3.3623,-11.08264 -5.06767,-11.08264 -1.87298,0 -2.65952,6.70874 -1.13387,9.67114 1.62697,3.1591 4.74067,3.8678 6.20154,1.4115 z m 154.6261,-4.7129 c 3.78315,-3.93137 4.06336,-11.66338 0.67945,-18.74884 -5.22273,-10.93576 -7.32709,-9.48827 -7.23575,4.97711 0.0962,15.22593 1.77116,18.74433 6.5563,13.77173 z M 121.21685,986.78854 c 1.88685,-1.24262 5.87739,-18.16055 4.73623,-20.0793 -1.38653,-2.33136 -6.2562,2.24899 -8.83707,8.31202 -3.63657,8.54314 -1.27837,15.30991 4.10084,11.76728 z M 486.57982,799.64752 c 0,-5.22269 -5.95422,-9.0533 -14.0723,-9.0533 -11.76477,0 -14.58863,6.60594 -3.01984,7.06442 0.87811,0.0348 4.30806,1.53663 7.6221,3.33742 6.84428,3.71907 9.47004,3.34515 9.47004,-1.34854 z M 30.955427,730.35367 c 3.700781,-1.74506 8.780801,-2.7697 13.731737,-2.7697 9.506808,0 10.686873,-1.39518 5.221901,-6.17381 -11.931699,-10.43319 -35.077086,-2.98162 -30.366009,9.77621 1.002638,2.7152 4.41654,2.46609 11.412371,-0.8327 z M 426.96211,713.93248 c 0.30495,-0.96224 -0.41321,-2.13542 -1.59592,-2.60705 -2.4879,-0.9921 -6.50673,1.93793 -5.34266,3.89521 1.08212,1.81951 6.25826,0.85855 6.93858,-1.28816 z m -28.77794,-91.58093 c 10.97198,-4.02396 14.41094,-7.25655 11.23303,-10.55896 -4.23258,-4.39838 -11.65244,-2.87254 -17.45247,3.589 -8.80404,9.80818 -7.0079,11.82108 6.21944,6.96996 z M 260.86301,580.79197 c 4.89299,-7.40162 5.39035,-11.43375 1.41035,-11.43375 -5.0748,0 -10.48704,11.61642 -8.24326,17.69272 1.01608,2.75159 0.66171,3.07619 6.83291,-6.25897 z M 430.8699,1007.8693 c -2.75034,-3.1581 -2.85237,-6.3612 -0.2735,-8.58535 4.04573,-3.4892 12.50085,2.92145 10.87483,8.24525 -1.13499,3.7161 -7.48387,3.9198 -10.60133,0.3401 z M 58.430798,991.52047 c -3.430647,-2.54909 -4.19211,-9.09503 -1.057988,-9.09503 2.202764,0 4.763448,-4.17101 4.763448,-7.75901 0,-1.59638 -0.704275,-2.06136 -2.211747,-1.46024 -4.328544,1.72611 1.257793,-3.69487 5.873928,-5.70003 6.642827,-2.88555 12.507098,-2.48789 12.507098,0.84809 0,17.19853 -10.863869,29.86157 -19.874739,23.16622 z M 470.22999,930.68332 c -2.69314,-1.52185 -8.85233,-7.67275 -13.68708,-13.66865 -4.83478,-5.99591 -10.96859,-13.0731 -13.6307,-15.72707 -7.70281,-7.67924 -6.2332,-9.87697 6.60468,-9.87697 29.31232,0 52.61542,14.67633 49.57202,31.22054 -1.77295,9.63793 -18.02709,14.17311 -28.85892,8.05215 z m 24.20104,-15.19583 c 0.58427,-4.28302 -1.89827,-7.15941 -9.00492,-10.43346 -8.13322,-3.747 -8.92309,-1.62633 -2.64186,7.09289 5.8815,8.16435 10.79644,9.57407 11.64678,3.34057 z m -86.50956,-33.23134 c -0.90318,-2.44585 2.15142,-4.16601 5.22288,-2.94121 1.11164,0.44328 2.02116,1.7709 2.02116,2.95027 0,2.848 -6.19189,2.84026 -7.24404,-0.009 z M 10.61054,868.65692 c -3.797049,-3.04089 -3.6094767,-9.45153 0.276546,-9.45153 1.456632,0 4.545686,-1.92729 6.864562,-4.28286 5.9132,-6.0068 16.926843,-3.97814 13.588997,2.50301 -4.685843,9.0986 -15.844353,15.14417 -20.730105,11.23138 z M 473.4124,763.93478 c -7.48849,-3.12551 -1.69815,-15.9068 10.0471,-22.17744 4.43624,-2.36846 7.05195,-1.77661 2.78346,0.62979 -6.99106,3.94131 -4.78349,6.46159 4.71604,5.38409 9.90623,-1.12362 10.16624,-1.28077 8.02221,-4.84843 -2.17531,-3.61969 1.04344,-3.843 4.12779,-0.28637 11.68748,13.47707 -10.43001,29.33971 -29.6966,21.29836 z M 88.061128,694.62107 c -4.602789,-2.01116 -6.004318,-6.69072 -2.430671,-8.11577 2.320922,-0.92553 8.844361,4.0842 8.844361,6.79207 0,3.02501 -1.711561,3.37825 -6.41369,1.3237 z M 435.37711,661.98335 c 0,-14.46775 33.1555,-32.56807 39.94179,-21.80511 5.17917,8.21407 -0.83525,14.07514 -20.69812,20.17037 -16.18782,4.96748 -19.24367,5.22707 -19.24367,1.63474 z m 31.55462,-17.86276 c 1.17227,-0.46745 2.13137,-1.72765 2.13137,-2.80045 0,-2.88491 -5.93151,-2.38956 -9.61967,0.80334 -3.37563,2.92236 1.74402,4.28776 7.4883,1.99711 z M 338.36144,623.33288 c 0,-4.55293 3.18138,-9.29592 5.95724,-8.88142 3.79513,0.56671 4.22193,4.53858 0.8628,8.02932 -3.22181,3.34803 -6.82004,3.79758 -6.82004,0.8521 z m -211.88366,-41.2928 c -9.42766,-6.21307 -12.46583,-13.38121 -7.74904,-18.28278 4.09823,-4.25878 9.33275,-3.76529 9.01203,0.84963 -0.17561,2.52677 0.87989,4.54478 3.42972,6.55731 4.66939,3.68543 6.37711,2.04314 3.42803,-3.29665 -1.24853,-2.26065 -1.78399,-4.11029 -1.18991,-4.11029 0.59406,0 2.03776,2.36289 3.20821,5.25086 6.66715,16.45059 2.72905,21.51234 -10.13904,13.03192 z m 92.27002,-5.21766 c -2.28947,-0.95724 -5.69827,-7.9834 -5.69827,-11.74516 0,-2.09521 0.61254,-2.77554 2.0006,-2.22202 2.93243,1.16936 5.43237,-4.24082 3.23244,-6.99541 -1.36918,-1.71441 -1.32286,-2.35974 0.24335,-3.38963 9.60807,-6.31792 15.76587,15.09537 6.56779,22.83898 -3.04406,2.56271 -3.54829,2.68295 -6.34591,1.51324 z"
         style="fill:#383838;fill-opacity:1" />
    </g>
  </g>
  <g
     inkscape:groupmode="layer"
     id="layer3"
     inkscape:label="Note"
     style="display:inline"
     transform="translate(0.71295896,-1.8972514)"
     sodipodi:insensitive="true">
    <path
       sodipodi:nodetypes="cccccccccccssc"
       style="fill:#ffffff;fill-opacity:1;stroke:#ffffff;stroke-width:14.45700073;stroke-miterlimit:4;stroke-dasharray:none;stroke-opacity:1"
       id="path4859"
       d="m 191.03879,122.76377 c -12.09172,56.35153 -9.23617,66.25395 -10.59176,109.29871 36.0616,-28.48521 -9.32262,44.8176 -18.66884,47.02189 -9.66271,1.90816 -34.38832,-6.78867 -26.69143,-19.00601 6.80431,-10.79737 39.3643,-19.55359 45.44087,-3.19047 3.41698,9.20096 18.06744,3.61637 14.6733,-5.52181 -6.61398,-36.88081 -82.74484,-17.86002 -77.45271,14.3326 3.52802,21.45188 32.24978,33.22879 52.68836,26.91013 52.82057,-11.17379 20.20162,-69.05528 20.20162,-69.05528 l -10.195,8.5144 c -0.97515,9.54399 17.65604,38.1316 17.63095,18.59513 0.72081,-25.41004 0.89779,-56.06048 2.83956,-82.85672 0,0 0,0 3.22051,-39.84042 1.17936,-14.58963 -6.33566,-8.68995 -13.09543,-5.20215 z"
       inkscape:connector-curvature="0" />
    <path
       sodipodi:nodetypes="ccccccccccccccccc"
       style="fill:#ffffff;fill-opacity:1;stroke:#ffffff;stroke-width:14.45700073;stroke-miterlimit:4;stroke-dasharray:none;stroke-opacity:1"
       id="path4861"
       d="m 329.6373,185.60629 c -12.44492,55.85364 -7.8291,81.79056 -14.59145,122.29577 l 16.09927,2.19671 c 0.15054,-1.47947 0.30229,-2.96176 0.45341,-4.44415 -5.12915,0.55264 -10.2586,1.10822 -15.38805,1.6638 6.33292,18.57207 3.66865,42.97523 -19.83729,47.61093 -9.6592,1.90572 -34.38772,-6.79454 -26.68792,-19.00849 6.80431,-10.79735 39.36751,-19.55313 45.44087,-3.19046 3.41699,9.20095 20.95582,3.11108 17.56168,-6.0271 -11.96191,-32.21106 -85.63613,-17.3581 -80.34048,14.83204 3.52803,21.45182 32.2527,33.23217 52.68775,26.91602 52.18043,-9.98599 20.75765,-92.57793 10.46064,-64.99095 -0.15054,1.47948 -5.30229,11.96177 -5.45341,13.44416 -0.97515,9.54399 21.84399,15.424 23.4001,6.10242 -0.50617,-32.95555 1.35127,-78.24598 12.29062,-135.20148 2.03279,-9.28935 -14.08563,-11.39623 -16.09574,-2.19928 z"
       inkscape:connector-curvature="0" />
    <path
       sodipodi:nodetypes="ccscccc"
       style="fill:#ffffff;fill-opacity:1;stroke:#ffffff;stroke-width:14.45700073;stroke-miterlimit:4;stroke-dasharray:none;stroke-opacity:1"
       id="path4863"
       d="m 214.68866,137.58167 c 23.60848,16.82728 57.43333,34.39194 78.94273,43.8475 19.55073,8.59332 41.59698,17.04444 54.1106,11.22424 5.86388,-2.72734 -7.26978,-23.02869 -13.13013,-20.30091 -11.84058,5.50296 -33.3914,-4.09131 -51.77688,-12.174 -18.92717,-8.32054 -57.21104,-25.92153 -77.94776,-40.70281 0,0 -9.90996,4.49216 9.80144,18.10598 z"
       inkscape:connector-curvature="0" />
    <path
       style="fill:#ffffff;fill-opacity:1;stroke:#ffffff;stroke-width:14.45700073;stroke-miterlimit:4;stroke-dasharray:none;stroke-opacity:1"
       id="path4865"
       d="m 180.02817,245.95252 c -17.5732,-2.49917 -45.33838,-5.18732 -49.78559,15.48641 -1.48436,6.90992 4.41759,14.07617 10.5936,17.57888 7.12573,4.04092 14.75308,4.80434 22.59389,3.61376 7.25696,-1.10331 14.72295,-3.58558 20.27319,-7.92773 5.0843,-3.97631 9.37726,-13.17499 3.57952,-18.86571 -9.73432,-9.56193 -28.0524,-3.22233 -38.61133,0.76745 -3.64796,1.38099 -6.24866,6.0928 -3.93659,9.66475 2.34289,3.62094 4.67043,4.78844 8.54599,6.58166 9.53634,4.41157 15.20878,-9.21816 5.75693,-13.59434 -1.13403,-0.52455 -2.28245,-0.84829 -3.37049,-1.43806 1.48581,1.34783 2.97193,2.69277 4.45835,4.03479 -0.23906,-0.36964 -0.47812,-0.73918 -0.71717,-1.10881 -1.3121,3.22061 -2.6242,6.44123 -3.93661,9.66475 5.94626,-2.25128 13.26951,-4.83659 19.92428,-4.61144 2.9256,0.098 -1.81949,0.25569 -1.68725,-3.33164 -0.0126,0.3084 -1.91356,1.47152 -2.28611,1.72481 -2.99017,2.02547 -7.1492,3.01463 -10.79737,3.67686 -2.60281,0.4709 -16.08896,0.71237 -14.14099,-4.47325 1.41417,-3.76132 9.97058,-4.57999 13.51037,-4.79774 6.03392,-0.36656 12.49974,1.20161 18.49788,2.05579 10.38109,1.47639 11.90696,-13.22638 1.53589,-14.70114 z"
       inkscape:connector-curvature="0" />
    <path
       style="fill:#ffffff;fill-opacity:1;stroke:#ffffff;stroke-width:14.45700073;stroke-miterlimit:4;stroke-dasharray:none;stroke-opacity:1"
       id="path4867"
       d="m 325.88145,334.47298 c -12.52741,-16.22641 -35.38142,-21.04164 -50.44683,-6.96389 -4.96727,4.63938 -8.25669,11.85465 -6.15769,18.6302 2.82223,9.11084 11.97972,13.67948 21.46619,15.31087 8.52359,1.4702 19.67877,1.94258 26.92708,-2.55555 9.86698,-6.12393 4.49153,-18.21638 -3.73137,-24.10683 -8.92822,-6.39225 -23.09525,-12.71503 -30.61376,-2.08372 -6.91708,9.77997 6.91048,20.73838 17.36573,21.00195 4.40703,0.10927 8.36007,-1.8802 8.81577,-6.25246 0.37909,-3.63719 -2.86679,-8.33858 -7.28348,-8.44917 -1.63859,-0.0387 -2.87793,-0.39878 -4.29917,-1.26953 -3.30857,-2.03198 3.18517,-0.10516 -1.47763,4.05688 1.46514,-0.64702 1.24128,-0.69247 -0.66804,-0.13888 0.39452,0.25662 0.83626,0.43618 1.31878,0.5378 2.66179,1.03119 5.07063,2.6094 7.39483,4.18499 0.95157,0.64576 1.15843,1.01096 1.93187,1.92466 1.23896,1.46032 0.18993,1.74959 0.8785,-0.84634 0.13499,-0.51241 0.64007,-0.84608 1.09452,-1.07036 -0.98816,0.48844 -1.60834,0.57976 -2.56861,0.73801 -2.25677,0.37795 -4.61077,0.43549 -6.92537,0.33438 -4.12843,-0.18161 -9.13406,-0.56342 -12.49739,-2.66549 -0.9442,-0.59107 -1.64637,-1.90658 -1.3947,-1.09389 -0.47128,-1.52556 -0.28635,-1.29456 0.0265,-2.19721 0.72846,-2.10142 3.11495,-4.63268 5.46519,-5.84482 8.7653,-4.5148 16.9378,-0.0835 22.91968,7.66318 6.18795,8.02533 18.62233,-0.86164 12.45937,-8.84479 z"
       inkscape:connector-curvature="0" />
  </g>
</svg>
