<?xml version="1.0" encoding="UTF-8" standalone="no"?>
<!-- Created with Inkscape (http://www.inkscape.org/) -->

<svg
   xmlns:dc="http://purl.org/dc/elements/1.1/"
   xmlns:cc="http://creativecommons.org/ns#"
   xmlns:rdf="http://www.w3.org/1999/02/22-rdf-syntax-ns#"
   xmlns:svg="http://www.w3.org/2000/svg"
   xmlns="http://www.w3.org/2000/svg"
   xmlns:sodipodi="http://sodipodi.sourceforge.net/DTD/sodipodi-0.dtd"
   xmlns:inkscape="http://www.inkscape.org/namespaces/inkscape"
   width="512"
   height="512"
   viewBox="0 0 135.46666 135.46667"
   version="1.1"
   id="svg8"
   inkscape:version="0.91 r13725"
   sodipodi:docname="g-schluessel.svg">
  <defs
     id="defs2" />
  <sodipodi:namedview
     id="base"
     pagecolor="#ffffff"
     bordercolor="#666666"
     borderopacity="1.0"
     inkscape:pageopacity="0.0"
     inkscape:pageshadow="2"
     inkscape:zoom="1.1858131"
     inkscape:cx="18.782563"
     inkscape:cy="181.5062"
     inkscape:document-units="mm"
     inkscape:current-layer="layer1"
     showgrid="false"
     showguides="true"
     inkscape:guide-bbox="true"
     units="px"
     inkscape:window-width="1920"
     inkscape:window-height="1026"
     inkscape:window-x="0"
     inkscape:window-y="225"
     inkscape:window-maximized="1" />
  <metadata
     id="metadata5">
    <rdf:RDF>
      <cc:Work
         rdf:about="">
        <dc:format>image/svg+xml</dc:format>
        <dc:type
           rdf:resource="http://purl.org/dc/dcmitype/StillImage" />
        <dc:title />
      </cc:Work>
    </rdf:RDF>
  </metadata>
  <g
     inkscape:groupmode="layer"
     id="layer2"
     inkscape:label="Ebene 2"
     transform="translate(0,-161.53332)"
     style="display:inline">
    <ellipse
       style="opacity:1;fill:#a5ad00;fill-opacity:1;stroke:none;stroke-width:14.45699978;stroke-miterlimit:4;stroke-dasharray:none;stroke-opacity:1"
       id="path3377"
       cx="69.726234"
       cy="233.2981"
       rx="64.817513"
       ry="63.032528" />
  </g>
  <g
     inkscape:label="Ebene 1"
     inkscape:groupmode="layer"
     id="layer1"
     transform="translate(0,-161.53332)"
     style="display:inline">
    <path
       style="display:inline;fill:#f9fff3;fill-opacity:1;stroke:none;stroke-width:1.31103718;stroke-miterlimit:4;stroke-dasharray:none;stroke-opacity:1"
       d="m 71.14724,179.35606 c -5.157469,-0.0262 -9.469693,1.15513 -12.770542,2.96379 -0.172098,-0.20327 -0.383986,-0.38015 -0.642675,-0.52134 -0.452173,-0.22322 -0.954624,-0.32162 -1.459529,-0.38868 -0.780148,-0.12284 -1.491102,0.0518 -2.19815,0.33755 -1.07684,0.57024 -1.234401,1.58568 -1.533866,2.59699 l 0.01599,0.14087 c 0.418181,0.56337 0.676836,1.08175 1.346291,1.26512 -0.90172,0.9769 -1.610884,2.00822 -2.108687,3.05277 -1.333952,3.05817 -2.028822,6.32467 -1.953096,9.5895 -0.177915,-0.20274 -0.335348,-0.41868 -0.47628,-0.64466 -0.192988,-0.31594 -0.294288,-0.66555 -0.472391,-0.98728 -0.04769,-0.0443 -0.08991,-0.10582 -0.170286,-0.10536 -0.135795,7.7e-4 -0.30146,0.1641 -0.316799,0.26848 -0.07958,0.54208 -0.09548,1.09032 -0.143059,1.63545 -0.147021,-0.97219 -0.158543,-0.55617 -0.07909,-1.24757 l -0.0389,-0.13697 c -0.177442,0.28344 -0.06662,0.24327 -0.351376,-0.0648 -0.06267,0.73088 -0.112291,1.46283 -0.188005,2.1927 -0.0247,0.23808 -0.08493,0.47206 -0.113237,0.70983 -0.0727,0.61062 -0.06851,1.23553 0.04063,1.84188 0.139947,0.47778 0.35954,0.9081 0.706207,1.29557 0.281361,0.32822 0.584185,0.64004 0.915827,0.92796 0.313668,0.27367 0.637507,0.53771 0.971576,0.79099 0.317592,0.24287 0.646162,0.47422 0.975467,0.70398 0.106404,0.0691 0.214464,0.13597 0.322852,0.20253 0.664929,1.56581 1.546907,3.09148 2.663627,4.55046 1.005128,1.22684 1.965144,2.45374 2.89269,3.68027 -2.484407,1.15421 -5.012523,2.29597 -7.506822,3.45392 -0.07858,-0.71806 -0.274175,-1.41668 -0.608964,-2.05144 -0.160951,-0.27728 -0.394561,-0.50999 -0.640946,-0.72699 -0.292385,-0.24472 -0.633018,-0.42999 -0.995349,-0.57599 -0.388676,-0.14322 -0.795596,-0.22815 -1.209719,-0.28253 -0.514464,-0.0628 -1.020989,-0.0449 -1.505771,0.12566 -1.20751,0.57851 -1.211779,1.43341 -1.3437,2.57785 -0.04117,0.21084 -0.082,0.42136 -0.123175,0.63218 l 0.01858,0.14048 c 0.07977,0.13153 0.159666,0.26338 0.239439,0.39491 0.302675,0.86533 0.344852,1.44288 1.408528,1.57966 0.299349,0.0255 0.600999,-0.007 0.899833,0.018 -3.845353,1.87066 -7.494336,3.82168 -10.613882,5.97481 -0.967084,0.58272 -1.843769,1.18357 -2.644611,1.79778 -0.03001,-0.0982 -0.06226,-0.19593 -0.09768,-0.29306 -0.129891,-0.36073 -0.295737,-0.70803 -0.504805,-1.03683 -0.248182,-0.367 -0.56979,-0.67835 -0.928358,-0.95802 -0.408487,-0.29966 -0.875515,-0.51159 -1.364877,-0.679 -0.893997,-0.25645 -1.15309,-0.0169 -1.612525,0.67119 -0.300566,0.6952 -0.345767,1.44719 -0.438679,2.18061 l 0.01945,0.14048 c 0.236641,0.53598 0.416809,1.08364 0.635761,1.62531 0.26804,0.45924 0.386648,0.63016 0.939595,0.78514 0.153837,0.0681 0.299559,0.14705 0.438679,0.23453 -3.914689,4.36576 -4.493257,9.23096 -3.159356,13.85744 1.048236,3.02501 4.841797,5.56602 10.00751,7.55719 -0.114041,0.35301 -0.134709,0.72428 -0.134413,1.10474 0.01397,0.16879 0.01903,0.33809 0.04149,0.50613 0.03061,0.22902 0.08957,0.45478 0.117558,0.68407 0.08143,0.66721 0.06421,1.34657 0.21091,2.00461 0.02145,0.0962 0.120613,-0.16315 0.18109,-0.24467 l 0.04495,-0.13541 c 0.40909,-1.96938 -0.148234,0.62413 0.596863,1.10084 0.02486,-7.6e-4 0.05225,0.009 0.07434,-0.002 0.152718,-0.0714 0.188214,-0.54085 0.277902,-0.67744 0.124876,-0.30899 0.266792,-0.6142 0.487085,-0.87918 0.207904,-0.25062 0.456914,-0.4693 0.739489,-0.65168 0.284885,-0.18026 0.598504,-0.32044 0.91669,-0.44643 0.29778,-0.11506 0.598426,-0.23011 0.921874,-0.27043 0.265995,-0.0473 0.537781,-0.0759 0.80864,-0.0839 0.250151,-0.0136 0.501957,-0.0119 0.752022,-0.006 0.07649,-0.002 0.152348,-0.008 0.2282,-0.0141 1.300421,0.34053 2.639746,0.65526 4.007756,0.94084 -0.193577,0.2465 -0.368255,0.50457 -0.526414,0.77149 -0.484717,0.80294 -0.346963,1.67695 -0.209182,2.54508 0.430031,1.74342 0.347047,1.08933 0.437813,1.93515 l 0.04365,-0.1358 c -0.06209,-0.66301 -0.06104,-0.38051 0.36823,0.78006 0.05283,0.072 0.08061,0.16589 0.158617,0.2158 0.02889,0.0185 0.05922,-0.0371 0.07909,-0.0636 0.169413,-0.2256 0.107967,-0.5377 0.229063,-0.78085 0.145964,-0.38007 0.346766,-0.73647 0.610263,-1.0622 0.245053,-0.30575 0.514998,-0.59373 0.80475,-0.86592 0.282899,-0.25963 0.587878,-0.49852 0.897238,-0.73207 0.271791,-0.19758 0.550543,-0.38804 0.850563,-0.54984 0.250875,-0.13307 0.51015,-0.25358 0.784005,-0.34379 0.230355,-0.0843 0.468957,-0.14373 0.707506,-0.20565 0.150782,-0.0523 0.307358,-0.093 0.403672,-0.21853 l -0.0082,-0.29033 c 0.456165,0.0675 0.913102,0.13281 1.370496,0.19434 11.192636,1.45851 22.87252,-0.22768 31.501936,-3.35013 2.957623,2.77662 6.151105,5.52694 7.926051,8.44028 -3.239387,3.86891 -11.67887,8.49523 -17.889477,9.14074 -1.809523,0.21422 -4.827305,0.19761 -7.859059,-0.0643 l -0.06872,-1.35917 c -0.138256,-0.11953 -0.28268,-0.18962 -0.475417,-0.18887 -0.230468,0.0365 -0.452635,0.1136 -0.66731,0.19628 -0.336919,0.10324 -0.590465,0.31542 -0.863097,0.51043 -0.193774,0.1679 -0.340475,0.35784 -0.457264,0.56153 -2.449477,-0.33451 -4.676122,-0.84218 -5.993268,-1.53516 0.229289,0.0431 0.458297,0.0855 0.691514,0.11122 0.290229,0.0199 0.578999,0.0781 0.870444,0.055 0.20369,-0.0222 0.408547,-0.0409 0.606804,-0.0913 0.172655,-0.0595 0.30709,-0.15587 0.382061,-0.31258 l 0.247217,-2.67073 c 0.970908,-0.0215 2.403251,-0.12414 4.507809,-0.36058 -1.284609,-0.6238 -3.519735,-1.29339 -6.130274,-1.84812 -0.06098,-0.0245 -0.122289,-0.0484 -0.182388,-0.0741 -0.431059,-0.17977 -0.899262,-0.22379 -1.36747,-0.24546 -0.01871,-7e-5 -0.03824,0.002 -0.05705,0.002 -6.35222,-1.1649 -14.112748,-1.53569 -16.12698,0.90494 0.05392,-0.21396 5.683918,-0.13204 0.0873,3.11052 -0.939088,3.21284 7.066856,5.41337 14.502784,7.86547 7.095227,0.83075 15.05013,0.75414 22.222247,-0.13736 0.03935,0.55348 0.0782,1.28696 0.10243,2.36986 0.0033,0.14678 0.257304,0.37731 0.372555,0.46438 0.386669,0.26935 0.491352,0.3494 0.987135,0.27082 0.0727,-1e-5 0.146471,0.0126 0.217829,0 0.554515,-0.0977 1.106611,-0.62324 1.465578,-0.97753 0.404648,-0.80801 0.08774,-0.60083 0.721766,-0.83509 l -0.0026,-0.14165 c -0.638077,-0.12694 -0.319394,0.0297 -0.719176,-0.73832 -0.227971,-0.25033 -0.455237,-0.49879 -0.666015,-0.75782 7.495303,-1.1636 13.86165,-3.25962 17.040644,-6.18437 2.39803,-2.90636 2.45742,-6.01678 1.93623,-9.08922 0.0998,-0.0786 0.20851,-0.14788 0.31983,-0.21385 0.1861,-0.10963 0.39193,-0.15786 0.61156,-0.1639 0.26333,0.0161 0.51953,0.0643 0.78444,0.0538 0.46337,-0.0288 0.66643,-0.38457 0.82376,-0.73558 0.0988,-0.22036 0.18344,-0.44569 0.27531,-0.66846 0.0333,0.0498 0.0665,0.0997 0.0998,0.14945 l 0.0354,-0.13813 c -0.0263,-0.0859 -0.0524,-0.17168 -0.0786,-0.25755 0.0605,-1.07933 0.16324,-2.13806 -0.61113,-3.03951 -0.33201,-0.34268 -0.71813,-0.60751 -1.22441,-0.69694 -0.46307,-0.0615 -0.90312,-0.0224 -1.32036,0.18535 -0.350009,0.17808 -0.662822,0.40204 -0.933969,0.67081 -0.08685,0.0896 -0.165166,0.18427 -0.239003,0.28175 -1.373706,-2.039 -3.231672,-4.01111 -5.233039,-5.96428 5.433823,-3.01018 9.865281,-6.51956 12.170651,-10.15963 0.0172,-0.009 0.0332,-0.0185 0.0505,-0.0265 0.25402,-0.134 0.52566,-0.23035 0.81037,-0.29423 0.34505,-0.0535 0.69011,-0.10409 1.03727,-0.14517 0.3949,-0.0394 0.79144,-0.0322 1.18767,-0.023 0.39041,0.0105 0.77484,0.068 1.15527,0.144 0.36049,0.0709 0.69583,0.21086 1.02647,0.35433 0.33664,0.13325 0.59748,0.33223 0.82635,0.58651 0.20651,0.24838 0.17089,0.34369 0.38207,0.0359 0.55326,-0.80462 0.0549,-3.31992 0.45337,-1.02591 l 0.0419,0.13658 c 0.0877,0.12301 0.22656,0.51137 0.26278,0.36876 0.24714,-0.97402 0.13116,-1.99875 0.31766,-2.98369 -8.6e-4,-0.52543 0.0281,-1.18933 -0.35959,-1.63273 -0.0451,-0.0516 -0.30514,-0.21039 -0.36736,-0.24974 -0.36467,-0.15547 -0.74603,-0.28059 -1.1142,-0.43043 -0.40981,-0.14254 -0.83044,-0.2538 -1.26331,-0.3235 -0.4417,-0.0666 -0.88795,-0.10758 -1.33592,-0.11551 -0.44685,-0.009 -0.89459,0.006 -1.33895,0.0507 -0.0688,0.007 -0.13747,0.015 -0.20615,0.023 -0.29097,-3.24583 -0.96891,-6.85913 -6.16745,-9.49585 -1.918797,-0.78763 -4.240945,-1.52986 -6.773808,-2.10021 -0.106299,-0.13853 -0.207512,-0.27995 -0.321122,-0.41443 -0.180411,-0.20448 -0.331451,-0.42531 -0.468068,-0.65519 -0.0063,-0.0113 -0.01265,-0.0226 -0.01901,-0.034 0.0907,-0.10769 0.189387,-0.20971 0.294759,-0.30672 0.209649,-0.18888 0.461916,-0.3247 0.722199,-0.4476 0.286075,-0.12215 0.59289,-0.20454 0.908478,-0.2275 0.241637,-0.0279 0.479378,0.0101 0.681138,0.13385 0.213026,0.14432 0.218892,0.34231 0.382926,0.0121 0.197752,-0.59618 0.329546,-1.20531 0.557966,-1.79311 l 0.03628,-0.13774 c 0.104971,-0.78289 0.298835,-1.56225 0.258025,-2.35426 -0.122861,-0.55114 -0.245861,-0.73035 -0.841484,-0.90299 -0.407002,-0.0899 -0.814022,-0.13376 -1.232195,-0.0753 -0.407681,0.0716 -0.81373,0.15003 -1.201073,0.28955 -0.374127,0.13366 -0.733525,0.30093 -1.046349,0.53228 -0.293974,0.21954 -0.572851,0.45552 -0.806478,0.72933 -0.236213,0.28214 -0.461067,0.57408 -0.633168,0.89284 -0.163729,0.32358 -0.288834,0.66053 -0.339274,1.015 0.0022,0.97691 -0.117874,2.06026 -0.125769,3.14134 -3.924395,-0.59947 -8.135128,-0.71632 -12.028029,0.0562 -3.347858,0.52194 -6.453993,1.31648 -9.193682,2.29728 -1.438669,-1.7072 -2.831514,-3.51331 -4.151248,-5.50692 -0.0058,-0.008 -0.01104,-0.0149 -0.01685,-0.0231 4.894123,-2.42129 9.622729,-4.88851 13.56535,-7.277 l 0.100271,0.7949 c 0.08922,-0.0687 0.18711,-0.11554 0.295623,-0.15375 0.167623,-0.0632 0.345259,-0.086 0.525117,-0.0964 0.266263,-0.0162 0.534071,-0.009 0.80086,0.005 0.363617,0.008 0.725342,0.0502 1.083517,0.10497 0.426334,0.073 0.83803,0.20079 1.227006,0.37306 0.461451,0.19805 0.558574,0.47427 1.085677,0.26107 0.423947,-0.54082 -0.0025,0.0498 0.467637,-0.90807 0.05592,-0.11393 0.141016,-0.21471 0.211345,-0.32194 l 0.02637,-0.13931 c -0.01611,-0.20412 -0.03916,-0.40781 -0.0484,-0.61227 -0.05709,-1.26293 0.06158,-0.54402 -0.135277,-1.46843 -0.259528,-0.54171 -0.4292,-0.75964 -0.879952,-0.96192 5.003561,-3.79974 8.656933,-8.88847 7.690936,-12.91309 -2.787572,-11.61384 -11.759963,-13.72546 -19.829607,-14.00379 -0.333936,-0.0115 -0.664268,-0.0179 -0.991459,-0.0195 z m -14.677825,2.47951 c 0.04689,0.0105 0.156202,0.19462 0.363046,0.54009 0.05616,0.14789 0.05805,0.29311 0.02161,0.44603 -0.02883,0.15286 -0.05392,0.30646 -0.07693,0.46008 l 0.0022,0.0149 c -0.05922,0.0403 -0.118825,0.0802 -0.177201,0.12097 -0.109128,-1.06982 -0.2132,-1.60004 -0.132684,-1.58199 z m 12.596799,2.70664 c 9.448186,-0.0122 14.925551,0.42266 16.58381,8.98113 0.668619,3.45082 -6.2015,7.75327 -12.845743,11.86416 l -0.0242,-0.83353 c -0.0874,-0.14606 -0.226426,-0.18778 -0.38941,-0.23219 -0.167446,-0.0614 -0.332004,-0.13082 -0.496594,-0.19902 -0.16667,-0.0747 -0.284672,-0.1976 -0.405832,-0.32037 -0.143084,-0.16191 -0.254375,-0.34311 -0.35613,-0.52798 -0.137376,-0.23449 -0.285133,-0.46362 -0.433061,-0.69266 -0.0781,-0.11483 -0.139746,-0.23344 -0.188006,-0.35589 -0.0138,0.92239 -0.02962,2.21727 -0.04149,4.2133 -4.6e-4,0.078 -0.04231,-0.1515 -0.05791,-0.22828 -0.03782,-0.18618 -0.04305,-0.31881 -0.05964,-0.51041 -0.04487,-0.93069 -0.07027,-1.85801 -0.04365,-2.78937 l -0.02032,-0.14048 c -0.179645,-0.4058 -0.495306,-1.35954 -0.907611,-1.60814 -0.05885,-0.0355 -0.139987,-0.0176 -0.210048,-0.0265 -0.08887,0.035 -0.396896,0.19072 -0.398485,0.30086 -0.01622,1.16689 -0.553835,3.93267 0.169851,5.66848 0.09713,0.16851 0.202445,0.33296 0.312912,0.49442 -2.176572,1.36729 -4.566453,2.66109 -7.075488,3.91556 -4.107815,-5.63216 -5.480824,-7.9628 -4.929635,-13.16166 0.532313,-5.02083 -0.613669,-11.01715 11.816684,-13.8114 z m 1.444833,17.68365 c 0.03671,-2.45439 0.0528,-1.72757 -0.104593,-0.46164 0.0091,0.16153 0.04656,0.3144 0.104593,0.46164 z m -23.223213,13.25766 c 0.03047,0.0103 0.09868,0.22434 0.225606,0.65129 0.03077,0.19216 0.02517,0.38288 -0.02118,0.57325 -0.03775,0.16942 -0.08978,0.33607 -0.132251,0.50457 -0.06527,-1.13267 -0.124326,-1.74668 -0.07218,-1.72911 z m 45.773928,1.40717 c 0.0018,0.26053 0.0014,0.52109 0.0026,0.78163 -0.02584,-0.20609 -0.03366,-0.41382 -0.01858,-0.62086 0.0039,-0.0536 0.01555,-0.21446 0.01599,-0.16077 z m -32.311873,2.33396 c 1.285026,1.85514 2.521106,3.70942 3.741526,5.56312 -0.515491,0.29959 -1.003966,0.60644 -1.461257,0.91938 -1.44621,4.0649 -2.742321,8.75464 2.190804,12.52598 l 0.165098,-0.42886 0.165101,-0.42887 c 0.138824,-2.57637 4.230808,-5.4965 0.593837,-7.81201 0.120478,-0.48413 0.284043,-0.98354 0.505671,-1.48247 4.029386,6.15765 8.091479,12.30512 13.353142,18.43406 -4.832543,1.75151 -10.357633,3.13796 -16.192673,3.32319 -0.06647,-0.0544 -0.132195,-0.10948 -0.200539,-0.16272 -0.184773,-0.12017 -0.338263,-0.27353 -0.502213,-0.4156 -0.19086,-0.17236 -0.422699,-0.30169 -0.635329,-0.45071 -0.256542,-0.23583 -0.568191,-0.41087 -0.84797,-0.62164 -0.331991,-0.22112 -0.627897,-0.47613 -0.914527,-0.7426 -0.31131,-0.28832 -0.614151,-0.58354 -0.900697,-0.89208 -0.135534,-0.1417 -0.254864,-0.29234 -0.354834,-0.45227 0.0017,-0.11294 0.0036,-0.2154 0.006,-0.33638 0.06184,-0.0567 0.123575,-0.1135 0.185412,-0.17014 l -0.01729,-0.14048 c -0.0685,0.0198 -0.136795,0.0395 -0.205292,0.0593 -0.06201,-0.14036 -0.129215,-0.31908 -0.207454,-0.49716 2.38e-4,0.004 0.0012,8.6e-4 0.0013,0.008 0.003,0.19459 0.0042,0.38919 0.0069,0.58379 -0.0028,-0.009 -0.0068,-0.0164 -0.0095,-0.025 -0.07184,0.15675 -0.02333,-0.50607 -0.0043,-0.57989 -0.238662,-0.53893 -0.584543,-1.06543 -1.225711,-0.51198 -1.177873,1.36406 -0.908807,3.42634 -0.252401,5.0964 -5.950073,-0.53268 -9.337022,-0.85531 -12.515548,-1.75525 -0.144034,-0.20686 -0.271053,-0.42356 -0.375146,-0.65169 -0.0013,-0.003 -0.0022,-0.006 -0.0035,-0.009 0.1295,-0.42404 0.307388,-0.8326 0.519067,-1.2265 0.229368,-0.36696 0.490798,-0.73013 0.809072,-1.03449 0.178884,-0.25429 0.606676,-0.12411 0.77925,-0.37267 0.07991,-0.1151 0.121062,-0.25024 0.181523,-0.3754 0.242738,-0.84348 0.07683,-0.51575 0.388546,-1.02553 l 0.01253,-0.13072 c -0.199852,-0.71317 -0.100384,-0.28406 -0.240302,-1.29869 -0.05978,-0.16319 -0.09355,-0.33719 -0.179363,-0.48973 -0.22609,-0.40193 -0.851131,-0.3802 -1.254665,-0.41599 -0.188438,0.0162 -0.37269,0.0196 -0.552781,0.0843 -0.380392,0.13656 -0.627697,0.46894 -0.862231,0.76212 -0.331174,0.47831 -0.609225,0.98438 -0.80864,1.52502 -0.182088,0.49625 -0.338468,1.00158 -0.417068,1.52267 -0.11272,0.79124 -0.189374,1.60135 -0.206158,2.41201 -1.873798,-0.69487 -3.909326,-1.64168 -6.594887,-2.99657 -0.631261,-0.40588 -1.155376,-0.76152 -1.615983,-1.08796 l 0.215311,-1.8791 c 1.35e-4,0.43119 7.43e-4,0.86241 0,1.29361 0.01447,-0.13925 0.04052,-0.27671 0.07909,-0.41755 0.217121,-0.65113 0.597887,-1.24207 0.912799,-1.85593 0.07666,-0.21209 0.153269,-0.42398 0.229929,-0.63608 0.08265,-0.27398 0.151378,-0.55199 0.24808,-0.82221 0.08625,-0.24101 0.200289,-0.47321 0.300376,-0.70983 l -0.01556,-0.14087 c -0.142748,-0.1118 -0.293562,-0.21557 -0.428307,-0.33521 -0.714187,-0.63406 -0.121246,-0.24827 -0.820309,-0.65246 -0.112275,-0.003 -0.225238,-0.0225 -0.336681,-0.01 -0.472381,0.0539 -0.891252,0.35452 -1.185514,0.67002 -0.955613,1.28878 -0.696863,2.92023 -0.550619,4.45447 -2.01437,-1.75063 -0.875586,-2.15536 -0.813825,-3.68611 0.391785,-6.06388 8.093359,-8.851 16.37895,-13.45355 3.64198,-1.76306 7.673738,-3.66153 11.739752,-5.61775 z m -25.738165,23.21282 c -0.01072,0.10317 -0.01596,0.20721 -0.01167,0.31491 0.0022,0.0549 0.01151,0.21971 0.01167,0.16468 4.58e-4,-0.15986 -2.74e-4,-0.31973 0,-0.47959 z m 24.199115,2.56497 c 0.0021,0.004 0.0036,0.009 0.0056,0.0133 -10e-4,-0.0198 -0.0029,-0.0242 -0.0056,-0.0133 z m 17.779698,-22.40737 c 5.710088,0.0374 9.470555,0.55253 12.367735,1.65691 -0.351033,0.14729 -0.69083,0.31329 -1.013069,0.50769 -0.392917,0.24823 -0.766309,0.52015 -1.094321,0.83626 -0.461449,0.43121 -0.604753,0.97937 -0.664719,1.5578 0.04145,1.52626 0.01495,3.05543 0.124472,4.57896 0.0044,0.0615 0.138241,0.0155 0.20443,3.9e-4 0.300329,-0.0686 0.393797,-0.23218 0.555373,-0.48467 0.455213,-0.71135 0.06153,-0.56168 0.567042,-0.68134 l 0.01988,-0.14048 c -0.05401,-0.11092 -0.146182,-0.21256 -0.162073,-0.33287 -0.03665,-0.27762 0.0048,-1.32733 0.02291,-1.66667 0.0086,-0.16081 0.01679,-0.32186 0.03587,-0.48194 0.01615,-0.13559 0.06457,-0.54058 0.06959,-0.40428 0.04741,1.29599 0.04673,2.59281 0.06483,3.88943 0.04293,-0.22846 0.180645,-0.45921 0.242028,-0.66769 0.179468,-0.36468 0.381461,-0.72038 0.711828,-0.99469 0.284952,-0.23472 0.586205,-0.45385 0.935272,-0.60719 0.330259,-0.15726 0.67246,-0.29524 1.019986,-0.41833 0.308802,-0.10191 0.626458,-0.17632 0.937,-0.27316 0.20622,-0.0847 0.413216,-0.166 0.630144,-0.22556 0.244849,0.10933 0.513566,0.17516 0.815121,0.17248 0.51885,0.003 1.025995,-0.11793 1.546833,-0.10653 0.124371,6.4e-4 0.250715,0.003 0.37428,0.0195 0.810485,1.52489 1.322112,2.48944 1.610365,3.08984 -0.02177,0.004 -0.04345,0.01 -0.06522,0.0141 -0.277644,0.045 -0.527039,0.1671 -0.787026,0.26107 -0.411349,0.1761 -0.712217,0.4917 -1.013073,0.79021 -0.105716,0.10489 -0.224276,0.20122 -0.313341,0.31804 -0.125419,0.16451 -0.217777,0.34755 -0.326742,0.52135 l -0.34273,0.90845 -4.34e-4,0.14165 c 0.116679,0.30666 0.232969,0.6131 0.349648,0.91978 0.117756,0.17051 0.215489,0.35396 0.353537,0.51158 0.09712,0.11091 0.226062,0.19606 0.345757,0.28722 0.358247,0.27283 0.743208,0.51512 1.231329,0.48778 0.05183,-0.009 0.101999,-0.0206 0.152994,-0.0308 -1.122063,3.14217 -0.17314,2.72786 -7.502928,6.0431 -0.144709,0.073 -0.300077,0.14801 -0.447756,0.22165 -1.347249,-1.3214 -2.625721,-2.65302 -3.729425,-4.00921 -4.342115,-5.88471 -9.040726,-10.15554 -13.39982,-15.08472 1.447465,-0.5809 3.270053,-0.98865 5.574471,-1.12504 z m 11.097943,8.83519 c -0.01679,0.0893 -0.02,0.17817 0.003,0.26536 -0.0015,-0.0885 -0.0018,-0.17691 -0.003,-0.26536 z m -22.504041,-3.6428 c 0.06518,0.0182 0.159372,0.73958 0.210911,1.56833 -0.08829,-0.0489 -0.174265,-0.098 -0.270122,-0.14633 -0.02112,-1.0475 0.0098,-1.43585 0.05921,-1.422 z m -34.577015,0.37931 c 0.0021,-0.005 0.0048,-0.002 0.0073,0.005 -0.0032,0.003 -0.0063,0.006 -0.0095,0.009 8e-4,-0.003 0.0013,-0.0117 0.0022,-0.0137 z m 4.0043,10.45308 c -2.2e-5,0.2941 -2.1e-4,0.58821 0,0.88231 -0.0048,-0.0276 -0.01091,-0.055 -0.01469,-0.0828 -0.03596,-0.26642 -0.02039,-0.53406 0.01469,-0.79959 z m 9.52734,6.54688 c 4.11e-4,0.45633 0.0012,0.50938 0.0017,0.89519 -0.0017,-0.0123 -0.0044,-0.0244 -0.006,-0.0367 -0.01985,-0.21242 -0.02118,-0.42593 -0.01081,-0.63881 0.0035,-0.0732 0.01473,-0.29295 0.01513,-0.21971 z m 14.710239,3.31539 c 0.001,0.30123 0.0041,0.60255 0.0039,0.90377 -5.7e-5,0.0777 -0.03112,-0.15291 -0.0389,-0.23023 -0.0081,-0.0821 -0.006,-0.16468 -0.0091,-0.24701 0.0072,-0.0902 0.01031,-0.18089 0.02118,-0.27082 0.0063,-0.0522 0.01507,-0.10383 0.0229,-0.15571 z m 40.986927,5.77189 c 0.0428,-0.0294 -0.12154,0.50829 -0.22906,1.98237 -0.09335,-0.40837 -0.189418,-0.81544 -0.285257,-1.21986 0.01875,-0.0196 0.03948,-0.0371 0.05658,-0.0586 0.303737,-0.40833 0.428597,-0.68403 0.457697,-0.70397 z m -5.976417,2.76829 c 0.115596,0.38051 0.09739,0.80111 -0.03328,1.24991 0.01747,-0.72027 0.03328,-1.24991 0.03328,-1.24991 z m -0.03068,6.29635 c 0.03442,0.16163 0.0643,0.32369 0.0873,0.48662 -0.03881,-0.0394 -0.06658,-0.22192 -0.0873,-0.48662 z m -13.278808,11.024 c 0.0878,1.44325 0.06543,2.69757 -0.321552,1.70842 -0.04217,-0.25291 -0.02714,-0.50623 0.0268,-0.75743 0.05408,-0.2685 0.111524,-0.54173 0.217829,-0.79725 0.02446,-0.0517 0.05165,-0.10231 0.07693,-0.15374 z"
       id="path985"
       inkscape:connector-curvature="0" />
  </g>
</svg>
