<?xml version="1.0" encoding="UTF-8" standalone="no"?>
<!-- Created with Inkscape (http://www.inkscape.org/) -->

<svg
   xmlns:dc="http://purl.org/dc/elements/1.1/"
   xmlns:cc="http://creativecommons.org/ns#"
   xmlns:rdf="http://www.w3.org/1999/02/22-rdf-syntax-ns#"
   xmlns:svg="http://www.w3.org/2000/svg"
   xmlns="http://www.w3.org/2000/svg"
   xmlns:sodipodi="http://sodipodi.sourceforge.net/DTD/sodipodi-0.dtd"
   xmlns:inkscape="http://www.inkscape.org/namespaces/inkscape"
   width="512"
   height="512"
   viewBox="0 0 135.46666 135.46667"
   version="1.1"
   id="svg3819"
   inkscape:version="0.92.4 (5da689c313, 2019-01-14)"
   sodipodi:docname="sonne_1.svg">
  <defs
     id="defs3813" />
  <sodipodi:namedview
     id="base"
     pagecolor="#ffffff"
     bordercolor="#666666"
     borderopacity="1.0"
     inkscape:pageopacity="0.0"
     inkscape:pageshadow="2"
     inkscape:zoom="1.2432572"
     inkscape:cx="400"
     inkscape:cy="217.56818"
     inkscape:document-units="mm"
     inkscape:current-layer="layer1"
     showgrid="false"
     units="px"
     inkscape:window-width="1920"
     inkscape:window-height="993"
     inkscape:window-x="0"
     inkscape:window-y="24"
     inkscape:window-maximized="1" />
  <metadata
     id="metadata3816">
    <rdf:RDF>
      <cc:Work
         rdf:about="">
        <dc:format>image/svg+xml</dc:format>
        <dc:type
           rdf:resource="http://purl.org/dc/dcmitype/StillImage" />
        <dc:title></dc:title>
      </cc:Work>
    </rdf:RDF>
  </metadata>
  <g
     inkscape:label="Layer 1"
     inkscape:groupmode="layer"
     id="layer1"
     transform="translate(0,-161.53331)">
    <path
       style="fill:#ffcc00;stroke-width:0.26458332"
       id="path3821"
       d="m 77.192702,200.22785 c -0.807696,-0.5108 -1.66702,-0.9254 -2.560658,-1.26054 -0.849583,-0.30952 -1.743125,-0.42492 -2.641296,-0.45964 -1.089647,-0.0503 -2.159823,0.14908 -3.218616,0.37978 -1.448629,0.34088 -2.878942,0.7549 -4.306605,1.17369 -1.290002,0.36062 -2.534541,0.84558 -3.742798,1.41979 -0.192974,0.0982 -0.387099,0.19418 -0.578919,0.29462 -0.415814,0.21772 -0.796483,0.43039 -1.205349,0.66166 -0.210164,0.11887 -0.838121,0.47994 -0.628915,0.35939 0.369655,-0.213 0.734534,-0.43466 1.110261,-0.63676 0.219099,-0.11784 -0.426715,0.2559 -0.640072,0.38385 -1.228717,0.72948 -2.39276,1.55687 -3.51154,2.44392 -1.086495,0.86766 -2.045456,1.8755 -2.965548,2.91373 -0.9105,1.02379 -1.7053,2.14001 -2.441895,3.29296 -0.784127,1.24099 -1.467342,2.54016 -2.073941,3.87582 -0.701051,1.5101 -1.073259,3.12626 -1.333932,4.76136 -0.221308,1.58875 -0.29954,3.1932 -0.288869,4.796 -0.0026,1.23981 0.228415,2.45137 0.576149,3.63554 0.286639,0.90281 0.669689,1.77019 1.044556,2.63872 0.351481,0.84312 0.699545,1.68713 1.098968,2.5089 0.406416,0.82958 0.985462,1.54253 1.598525,2.22517 0.629621,0.66333 1.282327,1.30451 1.93802,1.94194 0.702683,0.67617 1.427761,1.32855 2.160186,1.97221 0.79498,0.71305 1.651627,1.34948 2.528556,1.95689 0.91503,0.61627 1.848713,1.20407 2.796225,1.76891 1.134931,0.68663 2.326505,1.26701 3.52855,1.82435 1.404964,0.65261 2.838212,1.23775 4.311642,1.71596 1.521476,0.48036 3.110889,0.61763 4.694613,0.70338 1.491686,0.0687 2.98573,0.0322 4.476155,-0.0457 1.373573,-0.0607 2.724097,-0.30661 4.056546,-0.63233 1.328926,-0.33706 2.601968,-0.84556 3.844624,-1.41779 0.499313,-0.24461 0.652489,-0.31319 1.138266,-0.57649 0.178364,-0.0967 0.706504,-0.39923 0.530762,-0.29787 -3.07223,1.77191 -1.261186,0.71622 -0.602789,0.27278 0.835707,-0.57341 1.574874,-1.26745 2.285317,-1.98618 0.637252,-0.64812 1.200393,-1.36082 1.719196,-2.10557 0.436394,-0.64702 0.822812,-1.32563 1.215533,-1.9995 0.443699,-0.75687 0.866844,-1.52508 1.261642,-2.30854 0.384569,-0.77755 0.69628,-1.58775 0.997506,-2.4003 0.279291,-0.735 0.519787,-1.48309 0.730059,-2.24046 0.18406,-0.67786 0.300765,-1.37061 0.383384,-2.06732 0.07813,-0.68231 0.08577,-1.36903 0.05423,-2.05423 -0.04273,-0.64187 -0.120925,-1.28057 -0.199417,-1.91883 -0.06384,-0.48961 -0.11041,-0.98109 -0.157416,-1.47251 -0.02895,-0.38106 -0.113028,-0.75322 -0.205288,-1.12293 -0.118999,-0.44983 -0.238982,-0.8994 -0.350726,-1.35111 -0.119536,-0.44398 -0.191564,-0.89826 -0.290521,-1.34672 -0.09762,-0.44435 -0.193683,-0.89007 -0.335356,-1.32285 -0.150241,-0.42424 -0.358535,-0.81864 -0.604491,-1.19395 -0.296429,-0.44851 -0.651648,-0.85343 -1.00524,-1.25691 -0.306199,-0.31244 -0.573333,-0.65321 -0.831754,-1.00396 -0.170114,-0.231 -0.351526,-0.45333 -0.524069,-0.68244 -0.162985,-0.21445 -0.320738,-0.43282 -0.481031,-0.64929 -0.203213,-0.27595 -0.410262,-0.5489 -0.628491,-0.81319 -0.220308,-0.28302 -0.476072,-0.53617 -0.738015,-0.78027 -0.266822,-0.25396 -0.560909,-0.47602 -0.841465,-0.71391 -0.303787,-0.26102 -0.559366,-0.56856 -0.823328,-0.86784 -0.481052,-0.54851 -1.01183,-1.04213 -1.438124,-1.63589 -0.478348,-0.34277 -0.06817,-0.92389 -0.266369,-1.33043 -0.127104,-0.2607 -0.436161,-0.38242 -0.654238,-0.57364 0,0 0.0539,-0.0342 0.0539,-0.0342 v 0 c 0.266597,0.16083 0.502206,0.39094 0.799793,0.48249 3.859014,1.18732 -0.708623,-0.66759 1.794899,0.38991 0.653831,0.43125 1.163971,0.92635 1.672048,1.51791 0.252674,0.29329 0.496549,0.59725 0.786476,0.8552 0.270667,0.24796 0.545839,0.49061 0.817603,0.73731 0.266925,0.25323 0.513529,0.52516 0.755367,0.80234 0.221591,0.2671 0.435363,0.54092 0.650758,0.81296 0.162145,0.21523 0.323567,0.43101 0.485381,0.64648 0.170156,0.2289 0.343178,0.45564 0.513501,0.68442 0.272163,0.33444 0.573595,0.64596 0.852767,0.97506 0.361551,0.41124 0.719961,0.82649 1.034429,1.2756 0.258942,0.38658 0.499459,0.78841 0.658127,1.2279 0.165685,0.42817 0.31619,0.86115 0.41439,1.31076 0.107548,0.44178 0.223864,0.88123 0.323491,1.32498 0.111328,0.45068 0.231917,0.89893 0.355819,1.34631 0.09917,0.3808 0.193971,0.76442 0.221115,1.15847 0.04292,0.49128 0.08271,0.98292 0.143454,1.47242 0.0738,0.64568 0.154208,1.29118 0.194742,1.94003 0.03692,0.69662 0.03539,1.3949 -0.03774,2.08955 -0.07444,0.70797 -0.187724,1.41213 -0.367641,2.10163 -0.206658,0.765 -0.447611,1.52007 -0.726265,2.26209 -0.304134,0.82092 -0.616305,1.6401 -0.997829,2.42892 -0.388723,0.78844 -0.803695,1.56373 -1.250881,2.32072 -0.394287,0.67892 -0.782452,1.36222 -1.213771,2.01864 -0.514728,0.75711 -1.073737,1.48334 -1.707782,2.14553 -0.709276,0.73166 -1.445699,1.44127 -2.277975,2.03394 -1.62215,1.12391 -3.357073,2.08527 -5.134486,2.94005 -1.250852,0.55699 -2.530292,1.05255 -3.863792,1.37614 -1.342395,0.31673 -2.703044,0.54685 -4.084293,0.59817 -1.487975,0.0669 -2.978778,0.0889 -4.466884,0.008 -1.597015,-0.0979 -3.19808,-0.2547 -4.728266,-0.75338 -1.479296,-0.49144 -2.921103,-1.08315 -4.339158,-1.73023 -1.209305,-0.56035 -2.401925,-1.15681 -3.546568,-1.84147 -0.951304,-0.5669 -1.891892,-1.15235 -2.799702,-1.78727 -0.876083,-0.62194 -1.744014,-1.25736 -2.538277,-1.98334 -0.719876,-0.65552 -1.43002,-1.32181 -2.118387,-2.01051 -0.651695,-0.64584 -1.309859,-1.28618 -1.925309,-1.96723 -0.621517,-0.70119 -1.185336,-1.45069 -1.590879,-2.30064 -0.402479,-0.82401 -0.750355,-1.67128 -1.110715,-2.51423 -0.376619,-0.87851 -0.755923,-1.75789 -1.040466,-2.67174 -0.351084,-1.20968 -0.569159,-2.44914 -0.559766,-3.71368 0.0097,-1.61858 0.08909,-3.23762 0.308256,-4.84274 0.255428,-1.6492 0.620551,-3.28247 1.309081,-4.81209 0.606198,-1.34787 1.28819,-2.65917 2.07703,-3.91039 0.745778,-1.16496 1.540041,-2.29911 2.460016,-3.33527 0.915519,-1.04579 1.866956,-2.06505 2.946926,-2.94494 1.116513,-0.89806 2.279566,-1.73567 3.509921,-2.4725 1.790707,-1.08012 3.597235,-2.14372 5.466619,-3.08304 1.210054,-0.55946 2.457519,-1.02433 3.743505,-1.38011 1.423736,-0.41237 2.850251,-0.82035 4.296661,-1.1465 1.057865,-0.21329 2.130679,-0.39409 3.214302,-0.30822 0.8827,0.0915 1.76359,0.21597 2.585804,0.57196 0.846191,0.37612 1.632434,0.85291 2.34967,1.44175 0,0 -1.331416,0.85037 -1.331416,0.85037 z"
       inkscape:connector-curvature="0" />
    <path
       style="fill:#ffcc00;stroke-width:0.26458332"
       id="path3823"
       d="m 63.892141,196.84027 c -0.579866,-1.95945 -0.954874,-3.97277 -1.362983,-5.97294 -0.376113,-1.68727 -0.661522,-3.39143 -0.971859,-5.09109 -0.09629,-0.52734 -0.224176,-1.04903 -0.305803,-1.57883 -0.138068,-0.89613 -0.202105,-1.8021 -0.30602,-2.70282 0,0 0.05608,-0.0305 0.05608,-0.0305 v 0 c 0.07807,0.16491 1.054383,2.22588 1.078037,2.28279 0.198178,0.4768 0.349933,0.97168 0.5353,1.45361 0.597521,1.55345 1.240726,3.09054 1.726406,4.68524 0.603509,1.92315 1.155052,3.85869 1.628656,5.81823 0,0 -2.07781,1.13634 -2.07781,1.13634 z"
       inkscape:connector-curvature="0" />
    <path
       style="fill:#ffcc00;stroke-width:0.26458332"
       id="path3825"
       d="m 90.044025,211.48787 c 0.662266,-0.5508 1.336593,-1.08682 2.002478,-1.6332 0.86377,-0.7113 1.701342,-1.45349 2.548025,-2.18484 1.492919,-1.2774 3.087595,-2.42833 4.659069,-3.60556 2.121523,-1.58301 4.150743,-3.28372 6.154493,-5.01185 1.46331,-1.24287 2.80675,-2.61695 4.24758,-3.88413 0.92454,-0.70935 0.47035,-0.37248 1.36069,-1.01314 0,0 0.059,-0.0244 0.059,-0.0244 v 0 c -0.049,0.30648 -0.014,0.14167 -0.1148,0.49228 -0.88722,1.32509 -2.08399,2.40825 -3.24247,3.49052 -1.96084,1.74177 -3.97792,3.42067 -6.07273,4.99974 -1.59348,1.19323 -3.213782,2.35327 -4.747121,3.62435 -0.904135,0.75385 -1.799141,1.51881 -2.715112,2.25833 -0.717987,0.57226 -1.445554,1.13211 -2.168284,1.69834 0,0 -1.970808,0.79356 -1.970808,0.79356 z"
       inkscape:connector-curvature="0" />
    <path
       style="fill:#ffcc00;stroke-width:0.26458332"
       id="path3827"
       d="m 84.347885,200.98335 c 1.142159,-1.34025 2.317356,-2.6521 3.489222,-3.96633 1.960869,-2.19564 3.965387,-4.35169 6.011934,-6.46758 1.552617,-1.62182 3.231681,-3.11249 4.94072,-4.56564 1.184468,-0.99152 2.382279,-1.96861 3.612409,-2.90318 0.41191,-0.30471 0.86402,-0.54691 1.30774,-0.80056 0,0 0.059,-0.0243 0.059,-0.0243 v 0 c 0.1341,-0.003 0.4091,-0.0936 0.31667,0.13895 -0.8649,1.00779 -1.98799,1.76116 -2.96802,2.64702 -1.711709,1.45085 -3.39792,2.93377 -4.959694,4.54757 -2.066877,2.11371 -4.097441,4.2629 -6.058654,6.47547 -1.180396,1.32445 -2.365359,2.64497 -3.535646,3.97836 0,0 -2.215721,0.94021 -2.215721,0.94021 z"
       inkscape:connector-curvature="0" />
    <path
       style="fill:#ffcc00;stroke-width:0.26458332"
       id="path3829"
       d="m 51.332045,204.35532 c -0.869966,-0.87792 -1.670847,-1.81862 -2.461377,-2.7675 -1.582057,-1.91185 -3.21523,-3.78036 -4.826796,-5.66716 -1.236446,-1.48895 -2.465388,-2.99532 -3.497231,-4.63535 -0.461899,-1.09445 -0.254738,-0.53501 -0.61985,-1.67891 0,0 0.05475,-0.0328 0.05475,-0.0328 v 0 c 1.137624,0.67642 0.579348,0.32947 1.675358,1.03997 1.546537,1.26129 2.970786,2.66659 4.30418,4.15096 1.641608,1.86611 3.264512,3.74875 4.87602,5.64091 0.7986,0.93257 1.596821,1.86551 2.408438,2.78681 0,0 -1.913495,1.16311 -1.913495,1.16311 z"
       inkscape:connector-curvature="0" />
    <path
       style="fill:#ffcc00;stroke-width:0.26458332"
       id="path3831"
       d="m 42.951571,221.02455 c -0.799999,-0.18943 -1.610809,-0.32033 -2.425583,-0.42524 -0.903642,-0.0889 -1.804152,-0.20375 -2.704933,-0.31718 -2.345709,-0.30138 -4.704877,-0.47686 -7.062378,-0.65501 -1.340768,-0.0897 -2.66474,-0.29713 -3.98463,-0.53847 0,0 0.05168,-0.0375 0.05168,-0.0375 v 0 c 1.754013,-0.19332 3.509655,-0.37366 5.276522,-0.3937 2.538745,-0.0185 5.085744,-0.0212 7.61034,0.28555 0.897424,0.10846 1.796401,0.20579 2.691529,0.33215 0.798229,0.12609 1.588982,0.29237 2.374307,0.4829 0,0 -1.826858,1.26648 -1.826858,1.26648 z"
       inkscape:connector-curvature="0" />
    <path
       style="fill:#ffcc00;stroke-width:0.26458332"
       id="path3833"
       d="m 51.638816,237.27601 c -1.061371,0.69955 -2.013614,1.54462 -2.956946,2.39206 -2.70572,2.49161 -5.191027,5.2071 -7.656695,7.93228 -3.234476,3.62742 -6.385394,7.32813 -9.677178,10.90408 -1.421569,1.59353 -3.006585,3.01406 -4.615349,4.41142 0,0 -0.05889,0.0246 -0.05889,0.0246 v 0 c 0.201245,-0.32863 0.376314,-0.67479 0.603734,-0.98588 0.559814,-0.76578 1.754735,-2.06171 2.350987,-2.72834 3.239725,-3.60986 6.435331,-7.25816 9.64865,-10.89146 2.430534,-2.69429 4.872824,-5.38434 7.501417,-7.8889 0.921737,-0.84887 1.854393,-1.69188 2.891687,-2.39988 0,0 1.968587,-0.77002 1.968587,-0.77002 z"
       inkscape:connector-curvature="0" />
    <path
       style="fill:#ffcc00;stroke-width:0.26458332"
       id="path3835"
       d="m 60.852301,243.44151 c -0.574366,0.9438 -0.957924,1.98385 -1.355995,3.00952 -1.226468,3.15969 -2.530835,6.2883 -3.800854,9.43059 -0.825844,1.90776 -1.414867,3.92882 -2.404287,5.76516 -0.846151,1.4061 -0.467802,0.72658 -1.148532,2.031 0,0 -0.05757,0.0276 -0.05757,0.0276 v 0 c -0.03144,-0.21331 -0.191582,-1.23828 -0.176665,-1.4135 0.02997,-0.35204 0.135298,-0.69453 0.233842,-1.03383 0.451683,-1.55517 1.16368,-3.02181 1.73037,-4.53435 1.283726,-3.16415 2.602184,-6.31384 3.896346,-9.47367 0.435473,-1.06139 0.864209,-2.12766 1.482992,-3.09949 0,0 1.600349,-0.70904 1.600349,-0.70904 z"
       inkscape:connector-curvature="0" />
    <path
       style="fill:#ffcc00;stroke-width:0.26458332"
       id="path3837"
       d="m 72.455515,248.00423 c -0.634833,2.05363 -1.123579,4.15121 -1.65282,6.23413 -0.57149,2.0407 -0.977051,4.12805 -1.590461,6.15726 -0.276021,0.9131 -0.465997,1.38262 -0.792644,2.25746 -0.160366,0.31845 -0.320736,0.6369 -0.481105,0.95535 0,0 -0.05713,0.0285 -0.05713,0.0285 v 0 c -0.117136,-0.18305 -0.234273,-0.36611 -0.351409,-0.54917 -0.0245,-0.2762 -0.07831,-0.55135 -0.0735,-0.8286 0.01386,-0.79952 0.205745,-1.6329 0.385829,-2.40189 0.375467,-1.6033 0.840443,-3.1856 1.222658,-4.78731 0.531728,-2.08801 1.024834,-4.18812 1.650068,-6.25073 0,0 1.740522,-0.81499 1.740522,-0.81499 z"
       inkscape:connector-curvature="0" />
    <path
       style="fill:#ffcc00;stroke-width:0.26458332"
       id="path3839"
       d="m 86.535045,246.03354 c 1.305687,2.48802 2.761961,4.89376 4.208531,7.30141 0.922274,1.68194 1.987576,3.28717 2.896076,4.97665 0.257593,0.47903 0.529214,0.95503 0.719018,1.46473 0.908609,2.43996 -0.300749,0.51876 1.062496,2.39807 0,0 -0.05496,0.0325 -0.05496,0.0325 v 0 c -1.481262,-2.04203 0.23436,0.099 -1.979591,-1.85956 -0.415743,-0.36779 -0.768977,-0.80225 -1.120876,-1.23152 -1.222279,-1.49105 -2.236525,-3.1482 -3.332967,-4.72913 -1.490956,-2.38853 -2.989823,-4.77812 -4.307966,-7.26786 0,0 1.910236,-1.08529 1.910236,-1.08529 z"
       inkscape:connector-curvature="0" />
    <path
       style="fill:#ffcc00;stroke-width:0.26458332"
       id="path3841"
       d="m 94.421038,238.15242 c 2.314072,1.03617 4.669414,1.97546 7.019272,2.92636 2.5268,1.10257 5.19963,2.05672 7.43853,3.71206 0.31947,0.2362 0.60537,0.51472 0.90805,0.77208 0.92081,1.11891 0.52017,0.52684 1.20796,1.77212 0,0 -0.0542,0.0338 -0.0542,0.0338 v 0 c -1.57744,-0.67099 -0.78669,-0.33103 -2.37215,-1.02002 -2.98872,-1.34042 -5.90031,-2.85531 -8.955694,-4.04597 -2.361002,-0.93777 -4.754682,-1.81428 -7.038904,-2.93073 0,0 1.847096,-1.21972 1.847096,-1.21972 z"
       inkscape:connector-curvature="0" />
    <path
       style="fill:#ffcc00;stroke-width:0.26458332"
       id="path3843"
       d="m 97.547519,223.2809 c 2.911321,-0.17368 5.815151,-0.43695 8.729021,-0.56717 1.67809,-0.0967 3.34528,0.0848 5.00874,0.27092 0,0 -0.0515,0.0377 -0.0515,0.0377 v 0 c -2.20368,0.32934 -4.40492,0.68253 -6.62114,0.91949 -3.00586,0.31172 -6.016426,0.5889 -9.032324,0.78372 0,0 1.967193,-1.4447 1.967193,-1.4447 z"
       inkscape:connector-curvature="0" />
    <path
       style="fill:#ffcc00;stroke-width:0.26458332"
       id="path3845"
       d="m 43.824355,232.01002 c -2.558293,1.09168 -5.165714,2.06439 -7.767849,3.04531 -4.676391,1.73912 -9.390139,3.37345 -14.137277,4.90791 0,0 0.05023,-0.0394 0.05023,-0.0394 v 0 c 1.982341,-0.85849 2.759652,-1.2132 4.817725,-2.02541 3.621378,-1.42917 7.299711,-2.71173 10.92205,-4.13867 2.674157,-1.03698 5.352018,-2.06945 7.977486,-3.22589 0,0 -1.86237,1.47616 -1.86237,1.47616 z"
       inkscape:connector-curvature="0" />
    <path
       style="fill:#24221c;stroke-width:0.26458332"
       id="path3847"
       d="m 67.716587,229.05864 c -0.691766,-0.16388 -1.40544,-0.20004 -2.11355,-0.17089 -0.537829,0.0451 -1.054124,0.20852 -1.563454,0.37771 -0.801069,0.24156 -2.288657,1.20184 0.837707,-0.59294 -0.308856,0.21115 -0.583803,0.46792 -0.860015,0.71917 -0.36858,0.32836 -0.70359,0.6912 -1.042434,1.0494 -0.35718,0.37122 -0.69918,0.75635 -0.998958,1.1756 -0.211812,0.30033 -0.34512,0.63986 -0.442384,0.99153 -0.08531,0.33669 -0.09653,0.68563 -0.107428,1.03105 -0.01426,0.34901 0.01828,0.68876 0.156863,1.01063 0.132157,0.25991 0.37456,0.4071 0.619027,0.54669 0.257159,0.12028 0.507688,0.25499 0.765387,0.37395 0.226168,0.11853 0.465249,0.20831 0.701577,0.30369 0.221388,0.076 0.444968,0.14585 0.670388,0.20877 0.181684,0.0596 0.362141,0.12231 0.549225,0.16247 0.250563,0.0432 0.50287,0.076 0.75479,0.11063 0.315992,0.0503 0.634201,0.0784 0.95368,0.0916 0.365215,0.0185 0.728972,-0.005 1.091229,-0.0496 0.365376,-0.0475 0.706384,-0.18157 1.043964,-0.32145 0.251349,-0.11049 0.496091,-0.23667 0.754718,-0.32941 0.326128,-0.11456 0.650886,-0.23171 0.969865,-0.36504 0.327631,-0.13084 0.642588,-0.28816 0.952886,-0.45521 0.656566,-0.36087 0.226865,-0.12585 -1.410877,0.81491 -0.04596,0.0264 0.09166,-0.0532 0.137424,-0.08 0.142703,-0.0834 0.283263,-0.16954 0.423352,-0.25722 0.258252,-0.15724 0.491829,-0.34864 0.704287,-0.5629 0.193439,-0.19836 0.350999,-0.42635 0.501332,-0.65792 0.1348,-0.21367 0.266758,-0.42912 0.393385,-0.64773 0.120955,-0.21029 0.23563,-0.42411 0.358132,-0.63352 0.09556,-0.17702 0.217612,-0.3363 0.34062,-0.49457 0.103605,-0.11812 0.205869,-0.2362 0.292909,-0.36727 0.102624,-0.15502 0.168381,-0.32891 0.223057,-0.50544 0.06953,-0.22742 0.10872,-0.46118 0.133559,-0.69713 0.01437,-0.17848 0.0084,-0.35773 0.02013,-0.53631 0.01021,-0.15655 0.05592,-0.30648 0.09684,-0.45688 0.0149,-0.0752 0.03966,-0.14816 0.05585,-0.22295 0.01,-0.0545 0.02921,-0.0954 0.02895,-0.15296 -0.06894,-0.29764 -0.230883,-0.56475 -0.355655,-0.84148 -0.169847,-0.51743 -0.06093,-0.42496 0.164663,-0.90403 0.04529,-0.0962 0.06423,-0.20265 0.09634,-0.30397 0,0 0.05457,-0.0331 0.05457,-0.0331 v 0 c 0.129702,0.005 0.259374,0.0182 0.38911,0.0143 0.523602,-0.0155 0.609118,-0.12016 0.983924,0.25032 0.194427,0.26454 0.368292,0.55101 0.457838,0.86979 0.02037,0.0828 0.03625,0.15226 0.0083,0.22543 -0.02702,0.0981 -0.06425,0.18993 -0.117282,0.27756 -0.06505,0.13524 -0.119801,0.27531 -0.143767,0.4243 -0.02739,0.18369 -0.02249,0.37053 -0.05216,0.55428 -0.03045,0.24488 -0.06753,0.48953 -0.13035,0.72848 -0.04773,0.19017 -0.106629,0.37727 -0.197815,0.5517 -0.07571,0.13199 -0.156356,0.26122 -0.255501,0.37724 -0.123322,0.14659 -0.247658,0.29501 -0.345863,0.45984 -0.108302,0.21122 -0.225488,0.41771 -0.337592,0.62689 -0.122714,0.22245 -0.252992,0.44049 -0.387721,0.65588 -0.148357,0.23984 -0.302408,0.47812 -0.487786,0.69137 -0.199652,0.22707 -0.421084,0.43343 -0.673491,0.60171 -0.801042,0.54007 -1.667441,0.98169 -2.502249,1.46335 -0.315283,0.16248 -0.638157,0.30917 -0.96714,0.44188 -0.325779,0.12927 -0.656394,0.24551 -0.982908,0.37285 -0.255318,0.111 -0.50636,0.23158 -0.763395,0.33866 -0.354179,0.14174 -0.718838,0.25418 -1.099743,0.29644 -0.37896,0.044 -0.759809,0.0584 -1.141214,0.043 -0.323829,-0.0196 -0.646179,-0.0533 -0.966721,-0.10394 -0.258403,-0.0353 -0.518891,-0.0643 -0.772764,-0.12533 -0.184544,-0.0521 -0.364262,-0.11929 -0.547888,-0.17445 -0.227179,-0.0713 -0.455861,-0.13871 -0.676992,-0.22771 -0.239993,-0.0961 -0.476443,-0.19968 -0.705615,-0.31973 -0.253873,-0.13333 -0.515861,-0.25077 -0.764606,-0.39356 -0.275474,-0.1698 -0.534958,-0.35829 -0.684138,-0.65563 -0.15326,-0.34405 -0.214567,-0.70907 -0.205283,-1.08604 0.0055,-0.35921 0.01431,-0.72005 0.08788,-1.07316 0.08758,-0.37269 0.210275,-0.73568 0.418431,-1.06045 0.287732,-0.42973 0.62284,-0.82237 0.97613,-1.19973 0.339701,-0.35964 0.672322,-0.72729 1.036756,-1.06237 0.27444,-0.25623 0.551606,-0.51002 0.842741,-0.74732 0.931121,-0.54513 1.694947,-1.12037 2.697832,-1.41067 0.511116,-0.15675 1.031242,-0.29784 1.569672,-0.30837 0.691549,0.004 1.357643,0.15028 2.035045,0.27888 0,0 -1.545637,1.07636 -1.545637,1.07636 z"
       inkscape:connector-curvature="0" />
    <path
       style="fill:#24221c;stroke-width:0.26458332"
       id="path3849"
       d="m 76.770615,206.51858 c -0.708154,1.61613 -1.065707,3.34498 -1.405686,5.06701 -0.308695,1.74305 -0.565819,3.49513 -0.775631,5.2528 -0.135565,1.13569 -0.240051,2.38579 -0.415404,3.51888 -0.08052,0.52032 -0.191688,1.03543 -0.287533,1.55314 -0.514588,1.76949 -0.288333,0.92732 -0.68929,2.52367 0,0 -0.05696,0.0289 -0.05696,0.0289 v 0 c -0.330033,-1.21971 -0.163729,-0.57561 -0.4939,-1.9336 -0.01384,-0.46375 -0.05116,-0.9274 -0.04156,-1.39126 0.02246,-1.08533 0.177602,-2.40026 0.302136,-3.46892 0.205713,-1.76528 0.440899,-3.52868 0.784399,-5.27321 0.381514,-1.77326 0.778622,-3.55244 1.583148,-5.19166 0,0 1.496274,-0.6857 1.496274,-0.6857 z"
       inkscape:connector-curvature="0" />
    <path
       style="fill:#24221c;stroke-width:0.26458332"
       id="path3851"
       d="m 78.217688,206.25366 c 0.312166,2.14776 1.00589,4.22483 1.882367,6.20531 0.261284,0.59039 0.559959,1.16352 0.839939,1.74528 1.104984,2.29214 0.430794,1.24285 2.003112,3.16027 0,0 -0.05424,0.0337 -0.05424,0.0337 v 0 c -2.273567,-1.49502 -1.139335,-0.71361 -3.400107,-2.34796 -0.414994,-0.51337 -0.877197,-0.99193 -1.244976,-1.54011 -1.216096,-1.81262 -1.839306,-4.01847 -2.144321,-6.15677 0,0 2.118223,-1.0997 2.118223,-1.0997 z"
       inkscape:connector-curvature="0" />
  </g>
</svg>
