<?xml version="1.0" encoding="UTF-8" standalone="no"?>
<!-- Created with Inkscape (http://www.inkscape.org/) -->

<svg
   xmlns:dc="http://purl.org/dc/elements/1.1/"
   xmlns:cc="http://creativecommons.org/ns#"
   xmlns:rdf="http://www.w3.org/1999/02/22-rdf-syntax-ns#"
   xmlns:svg="http://www.w3.org/2000/svg"
   xmlns="http://www.w3.org/2000/svg"
   xmlns:sodipodi="http://sodipodi.sourceforge.net/DTD/sodipodi-0.dtd"
   xmlns:inkscape="http://www.inkscape.org/namespaces/inkscape"
   width="512"
   height="512"
   viewBox="0 0 135.46666 135.46667"
   version="1.1"
   id="svg1871"
   inkscape:version="0.92.4 (5da689c313, 2019-01-14)"
   sodipodi:docname="sonne2.svg">
  <defs
     id="defs1865" />
  <sodipodi:namedview
     id="base"
     pagecolor="#ffffff"
     bordercolor="#666666"
     borderopacity="1.0"
     inkscape:pageopacity="0.0"
     inkscape:pageshadow="2"
     inkscape:zoom="6.7043404"
     inkscape:cx="167.72315"
     inkscape:cy="219.15753"
     inkscape:document-units="mm"
     inkscape:current-layer="layer5"
     showgrid="false"
     units="px"
     inkscape:window-width="1920"
     inkscape:window-height="993"
     inkscape:window-x="0"
     inkscape:window-y="24"
     inkscape:window-maximized="1" />
  <metadata
     id="metadata1868">
    <rdf:RDF>
      <cc:Work
         rdf:about="">
        <dc:format>image/svg+xml</dc:format>
        <dc:type
           rdf:resource="http://purl.org/dc/dcmitype/StillImage" />
        <dc:title></dc:title>
      </cc:Work>
    </rdf:RDF>
  </metadata>
  <g
     inkscape:label="Ebene 1"
     inkscape:groupmode="layer"
     id="layer1"
     transform="translate(0,-161.53332)">
    <path
       style="fill:#ffcc00;fill-opacity:1;stroke:none;stroke-width:1.16416669;stroke-miterlimit:4;stroke-dasharray:none;stroke-opacity:1"
       id="path1939"
       d="m 44.299936,202.58264 c 0.03491,-0.0574 0.06491,-0.11514 0.107754,-0.16701 0.06222,-0.0785 0.125402,-0.15616 0.188584,-0.23388 0.09144,-0.11419 0.188138,-0.22391 0.286081,-0.33252 0.107736,-0.12157 0.219223,-0.23968 0.33305,-0.35555 0.131188,-0.13547 0.270523,-0.26247 0.409374,-0.38993 0.165899,-0.16442 0.354906,-0.29434 0.553354,-0.41516 0.186592,-0.15527 0.40004,-0.27057 0.597355,-0.41057 0.203798,-0.14699 0.411835,-0.28793 0.621245,-0.42676 0.214548,-0.14142 0.431392,-0.27927 0.648562,-0.41661 0.230839,-0.14332 0.464733,-0.2816 0.699963,-0.41757 0.235601,-0.13645 0.473581,-0.26869 0.711878,-0.40036 0.239879,-0.1336 0.481806,-0.26332 0.725453,-0.38991 0.249849,-0.13282 0.503849,-0.25756 0.758386,-0.38107 0.26371,-0.12874 0.530325,-0.25133 0.796398,-0.37506 0.265385,-0.12085 0.529627,-0.24415 0.795176,-0.36464 0.269656,-0.12166 0.541242,-0.23903 0.813358,-0.35508 0.288653,-0.12152 0.578078,-0.2413 0.869778,-0.35533 0.302147,-0.10624 0.603094,-0.21595 0.903436,-0.32779 0.300035,-0.15269 0.629648,-0.24225 0.948989,-0.34751 0.332867,-0.112 0.668795,-0.21699 1.006684,-0.31294 0.341434,-0.11223 0.691798,-0.19609 1.040964,-0.28067 0.363574,-0.091 0.73353,-0.15319 1.097579,-0.24167 0.379515,-0.0769 0.762608,-0.13291 1.144407,-0.19705 0.397137,-0.0584 0.794165,-0.1128 1.193525,-0.15381 0.413216,-0.0306 0.816806,-0.11564 1.228233,-0.1621 0.427408,-0.0326 0.854728,-0.0573 1.283152,-0.0712 0.449133,-0.0161 0.898628,-0.0196 1.347991,-0.015 0.45085,-0.0134 0.904926,-0.0437 1.355847,-0.025 0.453099,0.016 0.900605,-0.0153 1.353698,0.0158 0.456232,0.0231 0.913088,0.0603 1.367145,0.11223 0.464216,0.0298 0.920562,0.12287 1.382053,0.17533 0.451075,0.0676 0.895327,0.17317 1.345343,0.24596 0.438367,0.10035 0.88419,0.17149 1.318382,0.28924 0.446429,0.1116 0.886052,0.23928 1.324626,0.37834 0.43086,0.14776 0.861113,0.29278 1.281797,0.46807 0.424503,0.16391 0.8372,0.35107 1.247651,0.54688 0.398878,0.20208 0.78417,0.42909 1.175136,0.64554 0.356217,0.20706 0.710346,0.41512 1.060823,0.63179 0.3297,0.21742 0.651521,0.44632 0.972786,0.67591 0.319781,0.22282 0.624348,0.46555 0.928206,0.70935 0.300789,0.24143 0.599969,0.48418 0.888423,0.74021 0.301244,0.23993 0.573482,0.5123 0.862441,0.76621 0.273754,0.26435 0.547582,0.52932 0.806895,0.80798 0.253341,0.2759 0.512246,0.54581 0.754798,0.83143 0.242877,0.29574 0.496763,0.58066 0.728633,0.88506 0.236554,0.30114 0.455872,0.61492 0.672648,0.93044 0.209079,0.30963 0.420327,0.61821 0.6194,0.93438 0.184806,0.31039 0.38282,0.61286 0.566692,0.92364 0.186177,0.31289 0.364361,0.63037 0.539793,0.94938 0.170349,0.31354 0.339415,0.62773 0.521583,0.93442 0.183174,0.31909 0.345885,0.64958 0.51121,0.97824 0.170003,0.3357 0.323358,0.67835 0.468236,1.0259 0.135143,0.31995 0.253539,0.64663 0.390966,0.96559 0.153091,0.29604 0.262602,0.61163 0.379603,0.92297 0.130715,0.32551 0.239895,0.65867 0.353814,0.99027 0.114009,0.30811 0.209111,0.62267 0.319088,0.93211 0.116896,0.31212 0.21481,0.63183 0.305014,0.95275 0.09646,0.35371 0.196406,0.70694 0.251516,1.06978 0.05836,0.35803 0.130093,0.71373 0.190899,1.07141 0.06447,0.32806 0.114631,0.65842 0.163436,0.98914 0.04875,0.35048 0.08114,0.70297 0.115959,1.05507 0.03385,0.35416 0.05481,0.7094 0.07363,1.06462 0.01487,0.34306 0.02635,0.68629 0.03345,1.0296 0.0093,0.34229 0.01381,0.68465 0.01402,1.02706 0.01109,0.33546 -0.0035,0.6711 -0.01072,1.0065 -0.0061,0.32131 -0.0141,0.64252 -0.02553,0.96368 -0.01558,0.322 -0.03039,0.64398 -0.05246,0.96561 -0.01773,0.32211 -0.03943,0.64389 -0.06417,0.96553 -0.02209,0.31445 -0.05213,0.62817 -0.08281,0.94185 -0.03499,0.31805 -0.0724,0.63582 -0.114554,0.95301 -0.04535,0.31421 -0.09612,0.62747 -0.147193,0.94085 -0.05134,0.31371 -0.106389,0.62678 -0.163383,0.93951 -0.06009,0.31476 -0.12465,0.62861 -0.196458,0.94091 -0.0804,0.3077 -0.154848,0.61815 -0.251042,0.92143 -0.09289,0.30725 -0.194786,0.61127 -0.288356,0.91862 -0.09658,0.30276 -0.194429,0.60512 -0.301046,0.90451 -0.102566,0.29815 -0.218104,0.59147 -0.333923,0.88463 -0.109196,0.29979 -0.241617,0.59084 -0.374247,0.88089 -0.133469,0.28447 -0.275067,0.56507 -0.417317,0.84528 -0.140166,0.27602 -0.289481,0.54728 -0.429178,0.82356 -0.143486,0.26764 -0.292698,0.53217 -0.443585,0.79571 -0.150362,0.25725 -0.296759,0.51659 -0.46129,0.76514 -0.155242,0.2586 -0.316185,0.51363 -0.480923,0.76626 -0.159731,0.25639 -0.341606,0.49745 -0.513114,0.74557 -0.174829,0.2396 -0.347641,0.48116 -0.530074,0.71517 -0.180197,0.23093 -0.362085,0.45999 -0.53776,0.69468 -0.174289,0.22538 -0.346218,0.4526 -0.524275,0.67504 -0.191572,0.21122 -0.363503,0.43998 -0.544595,0.66047 -0.189738,0.23598 -0.387191,0.4655 -0.586557,0.69335 -0.209846,0.22138 -0.415846,0.44652 -0.621538,0.67222 -0.222186,0.21034 -0.42809,0.4369 -0.640326,0.65714 -0.224287,0.23344 -0.454536,0.4609 -0.688065,0.68505 -0.251534,0.24307 -0.512466,0.47619 -0.777801,0.70402 -0.257656,0.21873 -0.516554,0.43601 -0.777425,0.65089 -0.25732,0.20121 -0.524423,0.39084 -0.791517,0.5789 -0.269229,0.21377 -0.544004,0.42061 -0.809792,0.63857 -0.267948,0.20047 -0.537003,0.39939 -0.808177,0.59546 -0.27074,0.17676 -0.537422,0.35845 -0.801423,0.54553 -0.276932,0.19298 -0.545396,0.39678 -0.825151,0.58559 -0.290878,0.19802 -0.586465,0.38904 -0.882766,0.57881 -0.277953,0.17644 -0.554615,0.35417 -0.842428,0.51414 -0.289981,0.16677 -0.572082,0.34702 -0.857213,0.52197 -0.29364,0.17857 -0.587111,0.35752 -0.884063,0.53055 -0.282842,0.18703 -0.588666,0.32778 -0.894112,0.47238 -0.342347,0.13553 -0.655254,0.33214 -0.963353,0.53126 -0.335476,0.22148 -0.690401,0.41073 -1.052073,0.58538 -0.360035,0.15569 -0.699024,0.3571 -1.064956,0.49826 -0.367226,0.1811 -0.739127,0.35206 -1.109324,0.52689 -0.405966,0.18065 -0.800925,0.38455 -1.206865,0.56502 -0.409702,0.17657 -0.814607,0.3646 -1.231622,0.52349 -0.418354,0.14301 -0.840391,0.26644 -1.250836,0.43295 -0.420855,0.1858 -0.845717,0.3603 -1.270493,0.53711 -0.421401,0.18537 -0.858181,0.33134 -1.292637,0.48232 -0.427959,0.13969 -0.858158,0.27114 -1.285635,0.41259 -0.458597,0.11995 -0.904729,0.27947 -1.357161,0.42081 -0.438984,0.13206 -0.882817,0.24607 -1.326817,0.36004 -0.426929,0.10876 -0.852919,0.22043 -1.281909,0.32076 -0.441341,0.0807 -0.88066,0.1679 -1.318112,0.26986 -0.437477,0.0834 -0.87527,0.16554 -1.314145,0.24126 -0.430498,0.0731 -0.862788,0.13474 -1.294649,0.19936 -0.434909,0.0661 -0.872289,0.113 -1.310047,0.15522 -0.447577,0.0144 -0.894506,0.0418 -1.342046,0.058 -0.425929,0.0148 -0.852038,0.0119 -1.27807,0.005 -0.416862,0.003 -0.831546,-0.0186 -1.246513,-0.0568 -0.399804,-0.0358 -0.798912,-0.0805 -1.196335,-0.13695 -0.40078,-0.0545 -0.798483,-0.12779 -1.1944,-0.20992 -0.406405,-0.0824 -0.809326,-0.18014 -1.208908,-0.29076 -0.410885,-0.11468 -0.81393,-0.25479 -1.21571,-0.39753 -0.399661,-0.13757 -0.789871,-0.29861 -1.179454,-0.46196 -0.377381,-0.16936 -0.765001,-0.31651 -1.1366,-0.49834 -0.3546,-0.17291 -0.701024,-0.36172 -1.04861,-0.54812 -0.331528,-0.17788 -0.659889,-0.36142 -0.985851,-0.5493 -0.33262,-0.19277 -0.661423,-0.39193 -0.987604,-0.59538 -0.32566,-0.20094 -0.644912,-0.41193 -0.961949,-0.62614 -0.313809,-0.21195 -0.624168,-0.42881 -0.93164,-0.64983 -0.320564,-0.23254 -0.634696,-0.47361 -0.945785,-0.71863 -0.310853,-0.24905 -0.61224,-0.50949 -0.911791,-0.77191 -0.294127,-0.26459 -0.587999,-0.53012 -0.860065,-0.81757 -0.291619,-0.29151 -0.57273,-0.59441 -0.838012,-0.91013 -0.279969,-0.31881 -0.543621,-0.651 -0.80527,-0.98481 -0.254016,-0.32975 -0.496668,-0.6681 -0.732425,-1.01109 -0.238943,-0.34783 -0.46713,-0.70274 -0.689859,-1.06112 -0.22353,-0.35928 -0.432596,-0.72719 -0.639606,-1.09614 -0.215022,-0.38416 -0.41288,-0.77728 -0.606169,-1.17269 -0.194082,-0.4128 -0.386558,-0.82706 -0.541954,-1.25618 -0.181662,-0.40323 -0.295484,-0.83028 -0.442867,-1.24577 -0.138478,-0.42898 -0.261416,-0.86479 -0.368734,-1.30294 -0.131209,-0.42859 -0.23744,-0.8637 -0.348279,-1.29772 -0.104992,-0.44417 -0.164341,-0.89442 -0.257305,-1.34161 -0.08486,-0.44021 -0.175909,-0.87972 -0.22947,-1.32503 -0.07806,-0.44325 -0.119389,-0.89109 -0.171692,-1.33762 -0.04792,-0.44808 -0.08677,-0.89722 -0.116794,-1.34686 -0.02738,-0.44802 -0.02496,-0.89342 -0.02003,-1.34122 -0.01728,-0.44553 -0.001,-0.89077 -0.0013,-1.33633 0.01079,-0.44208 0.01381,-0.88425 0.02761,-1.32628 0.04134,-0.43516 0.06685,-0.87144 0.08975,-1.30883 0.02526,-0.43926 0.05783,-0.87811 0.09595,-1.31643 0.0773,-0.42625 0.10948,-0.85907 0.157451,-1.28932 0.0618,-0.41191 0.112479,-0.82528 0.165933,-1.23841 0.06161,-0.40373 0.117475,-0.80831 0.176895,-1.2124 0.05912,-0.4036 0.13593,-0.8043 0.208995,-1.20558 0.07413,-0.39408 0.154815,-0.78684 0.238379,-1.17901 0.07835,-0.37216 0.159562,-0.74376 0.24511,-1.11434 0.08207,-0.3633 0.174704,-0.72403 0.266514,-1.08495 0.0895,-0.34824 0.179428,-0.69638 0.27426,-1.0432 0.0944,-0.33524 0.18852,-0.67057 0.286699,-1.00473 0.09329,-0.32292 0.192501,-0.64411 0.292849,-0.96491 0.09706,-0.31631 0.201377,-0.63035 0.306917,-0.94392 0.101057,-0.30506 0.208685,-0.60789 0.315817,-0.91086 0.107955,-0.30094 0.223703,-0.59895 0.338447,-0.89733 0.110305,-0.27415 0.199557,-0.55573 0.310616,-0.82956 0.109593,-0.25807 0.210148,-0.51956 0.31633,-0.77899 0.09664,-0.24346 0.17644,-0.49309 0.276384,-0.73528 0.09731,-0.23973 0.202105,-0.47628 0.304953,-0.71365 0.103061,-0.23986 0.214972,-0.47568 0.325448,-0.71215 0.105807,-0.22805 0.219205,-0.45245 0.331497,-0.67734 0.102685,-0.23255 0.231251,-0.45305 0.352541,-0.67635 0.103093,-0.19941 0.21073,-0.39631 0.319784,-0.5926 0.09706,-0.1945 0.215307,-0.378 0.309462,-0.57393 0.10101,-0.1713 0.202496,-0.34237 0.306546,-0.51184 0.09032,-0.16312 0.206904,-0.30868 0.302739,-0.46837 0.106698,-0.13998 0.182049,-0.3003 0.239718,-0.46577 0.05302,-0.15712 0.126253,-0.30539 0.186756,-0.45975 0.05164,-0.14715 0.103904,-0.29406 0.165293,-0.43747 0.04683,-0.13837 0.116311,-0.26484 0.187825,-0.39144 0.06742,-0.11741 0.131196,-0.23692 0.201364,-0.35272 0.0821,-0.10496 0.09027,-0.24497 0.120557,-0.37139 0.03956,-0.0902 0.07581,-0.18266 0.123153,-0.26898 0.04053,-0.10018 0.07217,-0.16193 0.184102,-0.18865 0.455422,0.014 0.847887,0.25254 1.250445,0.44404 0.458647,0.21819 0.915662,0.43979 1.373494,0.65969 0,0 0.152205,0.077 0.152205,0.077 v 0 c 0.689533,0.38662 1.841812,0.89064 2.389682,1.55222 0.0523,0.15202 -0.05138,0.25785 -0.124323,0.38707 -0.06887,0.12154 -0.145544,0.23913 -0.233709,0.34769 -0.09581,0.0879 -0.214241,0.16299 -0.266136,0.28572 -0.06716,0.11756 -0.140671,0.23135 -0.210574,0.34729 -0.07596,0.124 -0.152781,0.24614 -0.251002,0.35427 -0.09557,0.1233 -0.19862,0.24032 -0.302186,0.35691 -0.105566,0.12785 -0.19962,0.26386 -0.311237,0.3865 -0.116658,0.13076 -0.220218,0.27447 -0.290785,0.43572 -0.09305,0.16127 -0.163666,0.33383 -0.26238,0.49195 -0.09633,0.17096 -0.195278,0.34046 -0.294341,0.50985 -0.11389,0.16082 -0.206782,0.33548 -0.314822,0.50013 -0.104217,0.1773 -0.209098,0.35411 -0.315952,0.52972 -0.09515,0.16596 -0.183383,0.33599 -0.28298,0.49912 -0.09584,0.1816 -0.185039,0.36654 -0.276008,0.55061 -0.09367,0.18997 -0.182542,0.38227 -0.272884,0.57383 -0.09618,0.20971 -0.186097,0.42218 -0.280032,0.6329 -0.102396,0.23326 -0.223491,0.4574 -0.32897,0.68921 -0.103991,0.24009 -0.211545,0.47852 -0.305956,0.72267 -0.104434,0.25413 -0.228274,0.49942 -0.327551,0.75572 -0.102116,0.25216 -0.201372,0.50553 -0.295548,0.76078 -0.09934,0.26688 -0.19427,0.53535 -0.287713,0.80436 -0.09463,0.27819 -0.18668,0.55722 -0.27676,0.83691 -0.09244,0.29272 -0.18261,0.58612 -0.272121,0.87974 -0.09019,0.30329 -0.181642,0.60626 -0.263319,0.912 -0.08774,0.31639 -0.177643,0.63219 -0.259228,0.95025 -0.08347,0.3247 -0.16084,0.65094 -0.238749,0.97701 -0.08002,0.34164 -0.161616,0.6829 -0.237257,1.02555 -0.07365,0.34163 -0.146127,0.6836 -0.207685,1.02765 -0.06347,0.34597 -0.114953,0.69332 -0.166777,1.04118 -0.05502,0.366 -0.108845,0.73262 -0.143733,1.10113 -0.04665,0.38315 -0.09082,0.76666 -0.115234,1.15188 -0.0401,0.38748 -0.09226,0.77606 -0.0824,1.16632 -0.02993,0.38705 -0.05881,0.77416 -0.07721,1.16197 -0.02077,0.39264 -0.03243,0.78326 -0.01376,1.17538 -0.0084,0.38608 -0.02267,0.7726 -0.0088,1.15869 0.0038,0.3829 0.03203,0.76544 0.04674,1.14798 0.03823,0.38027 0.08182,0.75933 0.116708,1.14052 0.03255,0.37449 0.06397,0.74909 0.111022,1.12214 0.04291,0.36542 0.106434,0.72852 0.15908,1.09267 0.07725,0.35992 0.126516,0.72529 0.205923,1.08489 0.07423,0.35844 0.190391,0.69802 0.291536,1.04895 0.09472,0.35682 0.20373,0.71001 0.308983,1.06384 0.127355,0.3331 0.250423,0.66766 0.385422,0.99751 0.122917,0.33495 0.285633,0.65369 0.40582,0.99013 0.141285,0.29674 0.258453,0.60452 0.406675,0.89817 0.14445,0.29567 0.29749,0.58719 0.458603,0.87413 0.163983,0.2921 0.333959,0.58079 0.510061,0.86576 0.170386,0.27361 0.343789,0.5455 0.529121,0.8093 0.180526,0.25598 0.362453,0.51097 0.554604,0.75843 0.176006,0.23001 0.358325,0.45569 0.55232,0.67083 0.197972,0.20294 0.390697,0.41065 0.595226,0.60721 0.219617,0.1955 0.425145,0.40641 0.647136,0.59947 0.219144,0.19734 0.441743,0.39094 0.671671,0.57568 0.232042,0.18828 0.470109,0.36898 0.714224,0.54136 0.25948,0.18706 0.519399,0.37364 0.783709,0.55383 0.258805,0.1748 0.519203,0.34723 0.782778,0.51478 0.266724,0.16705 0.534937,0.33176 0.807995,0.4883 0.284036,0.16397 0.568852,0.32665 0.855954,0.48518 0.280387,0.15541 0.563605,0.30562 0.848688,0.45223 0.275558,0.13974 0.538255,0.30479 0.824495,0.42363 0.275894,0.12388 0.555257,0.24031 0.837236,0.34953 0.263285,0.0968 0.529331,0.18594 0.799391,0.26216 0.267084,0.0744 0.535054,0.14631 0.806876,0.2016 0.277628,0.0543 0.555977,0.10537 0.836092,0.14526 0.293499,0.039 0.586893,0.0791 0.882202,0.10237 0.300099,0.0214 0.599586,0.0481 0.899494,0.0692 0.322958,0.011 0.6462,0.0115 0.969264,0.004 0.323217,-0.007 0.648652,-0.0128 0.967621,-0.0705 0.346681,-0.032 0.692316,-0.0739 1.037447,-0.11956 0.3795,-0.051 0.756309,-0.11539 1.133432,-0.1814 0.393592,-0.0668 0.787869,-0.12975 1.17969,-0.20662 0.378106,-0.0575 0.747607,-0.1395 1.114444,-0.24676 0.389562,-0.09 0.780592,-0.17341 1.168323,-0.27119 0.399918,-0.10103 0.799034,-0.20506 1.199084,-0.30508 0.376758,-0.0913 0.754311,-0.17149 1.113573,-0.32084 0.392861,-0.12905 0.77679,-0.27894 1.163722,-0.42442 0.400076,-0.14214 0.797912,-0.29132 1.205452,-0.41117 0.384151,-0.12399 0.766181,-0.2573 1.14477,-0.39652 0.383284,-0.1556 0.738336,-0.3588 1.105821,-0.54653 0.378748,-0.17798 0.769268,-0.32895 1.151485,-0.49925 0.355272,-0.15531 0.719167,-0.29035 1.065453,-0.46606 0.325475,-0.15652 0.645928,-0.32465 0.965872,-0.49204 0.307737,-0.20038 0.647552,-0.34592 0.959128,-0.54091 0.30225,-0.17184 0.609986,-0.33416 0.92828,-0.47438 0.288584,-0.13262 0.571871,-0.28105 0.813917,-0.4897 0.263803,-0.19288 0.523843,-0.3886 0.812723,-0.54375 0.272396,-0.16795 0.548129,-0.33044 0.820129,-0.49906 0.264067,-0.16301 0.53028,-0.32349 0.784926,-0.50099 0.257924,-0.18522 0.526804,-0.35336 0.793716,-0.52526 0.252248,-0.16132 0.504698,-0.32233 0.753697,-0.48866 0.243549,-0.16547 0.494308,-0.31933 0.732113,-0.49336 0.249655,-0.17672 0.493228,-0.35958 0.732141,-0.55024 0.247415,-0.17812 0.496187,-0.35432 0.742173,-0.53442 0.235672,-0.15573 0.461962,-0.32548 0.683471,-0.50077 0.213622,-0.19385 0.425326,-0.38982 0.643345,-0.57878 0.216247,-0.17779 0.434184,-0.3537 0.643784,-0.53938 0.184907,-0.16438 0.369626,-0.32897 0.54872,-0.49972 0.176215,-0.17034 0.350747,-0.34248 0.520734,-0.51906 0.172847,-0.17985 0.34911,-0.35772 0.50015,-0.55676 0.166952,-0.18321 0.330279,-0.36875 0.480819,-0.56537 0.153353,-0.18152 0.305004,-0.36449 0.455134,-0.5487 0.152233,-0.19181 0.312012,-0.37968 0.444704,-0.5855 0.148587,-0.19774 0.301588,-0.3922 0.446868,-0.59242 0.147822,-0.19716 0.286774,-0.39871 0.419507,-0.60615 0.134604,-0.20936 0.276876,-0.41361 0.409165,-0.62441 0.135776,-0.20289 0.258583,-0.41457 0.395097,-0.61722 0.128852,-0.20438 0.257043,-0.4092 0.382331,-0.61578 0.118295,-0.21974 0.251682,-0.43057 0.374226,-0.64791 0.124273,-0.21633 0.247161,-0.43342 0.36657,-0.65247 0.121359,-0.20781 0.231614,-0.42159 0.337786,-0.63752 0.09969,-0.20415 0.194961,-0.40975 0.284186,-0.6187 0.08903,-0.20262 0.173612,-0.40711 0.26385,-0.60911 0.08409,-0.21144 0.161957,-0.42531 0.239049,-0.63938 0.07466,-0.21887 0.152654,-0.4367 0.216871,-0.65897 0.06832,-0.22299 0.121139,-0.44728 0.168404,-0.67537 0.0454,-0.23811 0.107585,-0.47294 0.15008,-0.71175 0.05225,-0.24175 0.106566,-0.4831 0.152442,-0.72618 0.04841,-0.2446 0.09396,-0.4898 0.130416,-0.73651 0.03735,-0.25065 0.06983,-0.50132 0.09637,-0.75334 0.03071,-0.25652 0.06258,-0.513 0.08446,-0.77046 0.02676,-0.2695 0.04899,-0.53945 0.07256,-0.80924 0.02178,-0.27374 0.04375,-0.54749 0.05959,-0.82164 0.01154,-0.27907 0.02643,-0.55805 0.03293,-0.8373 0.0109,-0.28984 0.02286,-0.57965 0.0306,-0.86959 0.0067,-0.28648 0.004,-0.57315 0.01611,-0.85947 2.16e-4,-0.28403 -5.3e-4,-0.56808 -0.007,-0.85204 -0.0096,-0.28482 -0.01889,-0.56966 -0.03671,-0.85412 -0.01434,-0.26704 -0.03177,-0.53388 -0.05435,-0.80036 -0.02175,-0.25189 -0.0547,-0.50188 -0.09028,-0.75214 -0.0355,-0.27097 -0.07679,-0.54119 -0.113025,-0.812 -0.04207,-0.2513 -0.07636,-0.50579 -0.148354,-0.75059 -0.07646,-0.22816 -0.115705,-0.46672 -0.185335,-0.69712 -0.07328,-0.26197 -0.145172,-0.52462 -0.209783,-0.78867 -0.07399,-0.28126 -0.165055,-0.55805 -0.242867,-0.83826 -0.08265,-0.26412 -0.174738,-0.52524 -0.261535,-0.78793 -0.101026,-0.28148 -0.21399,-0.55963 -0.287507,-0.85005 -0.09701,-0.28709 -0.21287,-0.56718 -0.322323,-0.84968 -0.105032,-0.26221 -0.20656,-0.52565 -0.310266,-0.78767 -0.108821,-0.2666 -0.229402,-0.5277 -0.34435,-0.79156 -0.115898,-0.27925 -0.250182,-0.55064 -0.393134,-0.81717 -0.140139,-0.26327 -0.282763,-0.52524 -0.430101,-0.78456 -0.150948,-0.26294 -0.292135,-0.5316 -0.456933,-0.78664 -0.152046,-0.24864 -0.298172,-0.50092 -0.46232,-0.74208 -0.156056,-0.23382 -0.314388,-0.46611 -0.475557,-0.69635 -0.163748,-0.22113 -0.311533,-0.45235 -0.492434,-0.66072 -0.180195,-0.21844 -0.349536,-0.44552 -0.542031,-0.65354 -0.190267,-0.21067 -0.37079,-0.42983 -0.567452,-0.63481 -0.181184,-0.2125 -0.391623,-0.39993 -0.586417,-0.59944 -0.214574,-0.19156 -0.423772,-0.38899 -0.648181,-0.56929 -0.233426,-0.18865 -0.471054,-0.3721 -0.706613,-0.55792 -0.250393,-0.18976 -0.507015,-0.37104 -0.765407,-0.54972 -0.259276,-0.19276 -0.518922,-0.38647 -0.790324,-0.56159 -0.254339,-0.1742 -0.519541,-0.33225 -0.792078,-0.47643 -0.273412,-0.15562 -0.551214,-0.30396 -0.835202,-0.43908 -0.303641,-0.13184 -0.600297,-0.27981 -0.911723,-0.39244 -0.314346,-0.12365 -0.631647,-0.24362 -0.953979,-0.34376 -0.339783,-0.0967 -0.668083,-0.228 -1.014851,-0.30141 -0.351848,-0.1045 -0.714719,-0.16516 -1.074375,-0.23668 -0.365665,-0.0884 -0.740537,-0.12337 -1.109904,-0.19346 -0.381709,-0.0479 -0.762616,-0.10034 -1.144867,-0.1429 -0.395494,-0.0354 -0.779111,-0.12372 -1.175478,-0.14511 -0.390189,-0.0197 -0.778103,-0.0814 -1.168432,-0.10567 -0.376229,-0.003 -0.752469,-0.004 -1.128593,0.007 -0.369851,0.013 -0.73973,0.0238 -1.109157,0.0453 -0.362789,0.007 -0.725178,-0.0194 -1.086028,0.0279 -0.338701,0.0327 -0.67801,0.0572 -1.015669,0.0988 -0.30902,0.0315 -0.616328,0.0768 -0.922856,0.12643 -0.295309,0.0341 -0.584372,0.10551 -0.874503,0.16883 -0.289201,0.0667 -0.576295,0.14244 -0.86618,0.20563 -0.275775,0.0752 -0.551913,0.14821 -0.825058,0.23293 -0.26597,0.0844 -0.526936,0.19116 -0.799759,0.24861 -0.265478,0.0947 -0.528412,0.19467 -0.786524,0.3076 -0.248698,0.0985 -0.497941,0.1956 -0.743305,0.30224 -0.249877,0.1069 -0.498768,0.21605 -0.747784,0.32492 -0.251092,0.10951 -0.502449,0.21841 -0.751152,0.33328 -0.234177,0.10581 -0.46686,0.21494 -0.698288,0.32663 -0.216374,0.10589 -0.431501,0.21426 -0.646573,0.32276 -0.209449,0.10933 -0.418147,0.22015 -0.625054,0.33423 -0.208762,0.11512 -0.417203,0.23088 -0.624001,0.34949 -0.190704,0.11128 -0.380363,0.22438 -0.567307,0.3419 -0.178826,0.10999 -0.355989,0.22271 -0.530598,0.33931 -0.155678,0.10465 -0.310388,0.21079 -0.461933,0.32139 -0.12986,0.0976 -0.23853,0.21713 -0.366197,0.31755 -0.07379,0.0969 -0.149069,0.18894 -0.244811,0.2657 -0.07733,0.0731 -0.150865,0.15013 -0.225692,0.22578 -0.06213,0.0647 -0.124407,0.12925 -0.184719,0.19565 -0.03995,0.0459 -0.0792,0.0925 -0.117353,0.13991 -0.03708,0.0479 -0.07222,0.0974 -0.107611,0.14651 -0.0348,0.051 -0.08088,0.0827 -0.118738,0.13273 0,0 -3.886239,-2.93677 -3.886239,-2.93677 z"
       inkscape:connector-curvature="0" />
    <path
       style="fill:#ffcc00;fill-opacity:1;stroke:none;stroke-width:1.16416669;stroke-miterlimit:4;stroke-dasharray:none;stroke-opacity:1"
       id="path1941"
       d="m 86.208239,237.26069 c -0.0078,-0.0239 -0.03252,-0.0425 -0.05062,-0.0611 0.02384,0.0172 -0.0241,-0.0207 -0.02492,-0.0214 -0.0513,-0.0415 0.0034,-0.002 0.02574,0.0149 0.03906,0.0276 0.07784,0.0559 0.116671,0.084 0.04513,0.0327 0.09044,0.0651 0.13612,0.0971 0.04174,0.0261 0.08269,0.0535 0.123952,0.0805 0.07523,0.0481 0.149852,0.0971 0.225729,0.14422 0.08519,0.0534 0.168773,0.10928 0.252873,0.16436 0.08875,0.0549 0.173437,0.11624 0.26602,0.16451 0.109328,0.0718 0.21667,0.14652 0.323308,0.22224 0.108119,0.0734 0.213958,0.15007 0.320526,0.22569 0.09957,0.069 0.197919,0.13974 0.296297,0.21044 0.111014,0.0768 0.218919,0.15791 0.327811,0.23772 0.108881,0.0822 0.218773,0.16301 0.326884,0.24622 0.101751,0.078 0.208606,0.15003 0.302752,0.23735 0.10794,0.082 0.215165,0.16499 0.322461,0.24785 0.119981,0.0881 0.231217,0.18707 0.348147,0.27875 0.10773,0.0921 0.207592,0.19131 0.317233,0.28143 0.09806,0.0805 0.18212,0.17363 0.281868,0.25222 0.1148,0.0763 0.202282,0.17311 0.28742,0.27964 0.09103,0.0953 0.200901,0.16962 0.297574,0.25942 0.103436,0.093 0.216482,0.17472 0.319664,0.26781 0.105741,0.10989 0.194072,0.23327 0.317948,0.32375 0.130881,0.0963 0.263823,0.18183 0.357034,0.31684 0.117284,0.11225 0.227748,0.2329 0.357049,0.33154 0.129575,0.11008 0.268738,0.20877 0.404625,0.31101 0.131646,0.11333 0.262438,0.22818 0.398074,0.33711 0.129992,0.10974 0.262022,0.21701 0.394567,0.32379 0.131112,0.10936 0.265182,0.21497 0.399696,0.32026 0.138782,0.10717 0.276225,0.21608 0.416137,0.32178 0.152008,0.11785 0.302667,0.23743 0.453326,0.35701 0.144711,0.11417 0.288557,0.22947 0.434089,0.34259 0.154003,0.1084 0.297712,0.23083 0.446214,0.34666 0.148857,0.11685 0.291648,0.2417 0.44898,0.34717 0.152299,0.12204 0.305935,0.24236 0.459591,0.36268 0.162505,0.12458 0.322501,0.25239 0.485238,0.37667 0.166442,0.12561 0.332814,0.25035 0.4981,0.37759 0.169732,0.12673 0.33841,0.25484 0.507791,0.38204 0.186682,0.12671 0.369093,0.2594 0.550399,0.39382 0.204129,0.13633 0.401881,0.28274 0.59813,0.4304 0.214178,0.16156 0.429213,0.322 0.641877,0.48556 0.219026,0.16849 0.436896,0.33847 0.654676,0.50857 0.21306,0.1503 0.42123,0.3072 0.62984,0.46409 0.22266,0.16023 0.43268,0.33713 0.6525,0.50078 0.27394,0.1716 0.45756,0.35294 0.55792,0.66262 0.0809,0.37783 0.18045,0.75662 0.18071,1.14405 -0.041,0.77733 -0.66197,1.37292 -0.76841,2.11973 0,0 -0.10322,0.13579 -0.10322,0.13579 v 0 c -0.69003,0.3034 -1.08655,1.06088 -1.810819,1.33235 -0.360359,0.11963 -0.747297,0.1349 -1.123971,0.17447 -0.332462,-0.006 -0.563464,-0.13573 -0.812657,-0.35161 -0.238535,-0.17725 -0.48632,-0.34216 -0.719193,-0.52736 -0.228314,-0.1753 -0.454927,-0.35173 -0.672415,-0.54 -0.202541,-0.15777 -0.405008,-0.31564 -0.609004,-0.47153 -0.194215,-0.14793 -0.387014,-0.29772 -0.583142,-0.44313 -0.188177,-0.13986 -0.376211,-0.28054 -0.557186,-0.42941 -0.190921,-0.141 -0.380415,-0.28365 -0.564499,-0.43339 -0.189664,-0.14148 -0.379675,-0.28255 -0.565957,-0.42848 -0.17684,-0.13506 -0.350584,-0.27277 -0.523603,-0.41257 -0.164486,-0.12989 -0.331388,-0.25669 -0.49535,-0.38725 -0.162049,-0.12605 -0.324789,-0.25119 -0.487275,-0.37667 -0.14696,-0.133 -0.306546,-0.25067 -0.461502,-0.37409 -0.146119,-0.11846 -0.297958,-0.23037 -0.438013,-0.35592 -0.140229,-0.11389 -0.281958,-0.22592 -0.423264,-0.33846 -0.129103,-0.10195 -0.259202,-0.20257 -0.38976,-0.30264 -0.132236,-0.10408 -0.267333,-0.20445 -0.401572,-0.30592 -0.136046,-0.10189 -0.272095,-0.20354 -0.411305,-0.30089 -0.135819,-0.0986 -0.271981,-0.19677 -0.410136,-0.29189 -0.1274,-0.0918 -0.259593,-0.17729 -0.391605,-0.26179 -0.125232,-0.0939 -0.248409,-0.19154 -0.380492,-0.27548 -0.126081,-0.0904 -0.268917,-0.15307 -0.403645,-0.22952 -0.146182,-0.0438 -0.259406,-0.13602 -0.381596,-0.22482 -0.122544,-0.0889 -0.263585,-0.13962 -0.401222,-0.20047 -0.130783,-0.0768 -0.252716,-0.16798 -0.38296,-0.2458 -0.131072,-0.0788 -0.250711,-0.1752 -0.384882,-0.24779 -0.139805,-0.0545 -0.264231,-0.12285 -0.379944,-0.22059 -0.118031,-0.0867 -0.246462,-0.15466 -0.364564,-0.24111 -0.105762,-0.0764 -0.217374,-0.14071 -0.325792,-0.21268 -0.09878,-0.0725 -0.204129,-0.13635 -0.301474,-0.21128 -0.10409,-0.0745 -0.208645,-0.14844 -0.312325,-0.22351 -0.110882,-0.0682 -0.214154,-0.14736 -0.318534,-0.22506 -0.09542,-0.0683 -0.18932,-0.13871 -0.285086,-0.20653 -0.08846,-0.0643 -0.178195,-0.12689 -0.265354,-0.19297 -0.0893,-0.0634 -0.178691,-0.12665 -0.267636,-0.19053 -0.07402,-0.0522 -0.148712,-0.10329 -0.223488,-0.15436 -0.06861,-0.0443 -0.137515,-0.0881 -0.206058,-0.1325 -0.07428,-0.066 -0.166055,-0.10941 -0.246369,-0.1676 -0.07768,-0.0503 -0.15579,-0.0999 -0.23245,-0.15169 -0.07584,-0.051 -0.153085,-0.0998 -0.229693,-0.14959 -0.09816,-0.0631 -0.196516,-0.12631 -0.291219,-0.1944 -0.07861,-0.0539 -0.156734,-0.10843 -0.234786,-0.1631 -0.06757,-0.0474 -0.134995,-0.0951 -0.201239,-0.14426 -0.08377,-0.0609 -0.165336,-0.12442 -0.246568,-0.1887 -0.08527,-0.0677 -0.170304,-0.13597 -0.250619,-0.2095 -0.09577,-0.0843 -0.190206,-0.1708 -0.273756,-0.26745 0,0 5.12759,-5.14032 5.12759,-5.14032 z"
       inkscape:connector-curvature="0" />
    <path
       style="fill:#ffcc00;fill-opacity:1;stroke:none;stroke-width:1.16416669;stroke-miterlimit:4;stroke-dasharray:none;stroke-opacity:1"
       id="path1943"
       d="m 89.408978,218.6305 c 0.09116,1.3e-4 0.181922,0.007 0.272523,0.0163 0.06233,0.005 0.124434,0.0124 0.18677,0.0175 0.06457,0.008 0.1295,0.0125 0.19418,0.0196 0.06011,0.0105 0.118057,-0.009 0.177178,-0.0143 0.08547,-0.0163 0.172487,-0.0185 0.259713,-0.023 0.09322,-0.007 0.186235,0.001 0.279413,0.006 0.106349,-0.009 0.214352,0.008 0.321082,0.0137 0.110157,0.0147 0.221766,0.006 0.331801,0.0142 0.106545,0.01 0.213363,0.0159 0.320106,0.0232 0.120859,0.008 0.241771,0.0152 0.362567,0.0239 0.118091,0.007 0.236109,0.0159 0.35425,0.0224 0.120904,0.008 0.241827,0.0155 0.362662,0.0246 0.121767,0.008 0.24356,0.0162 0.365101,0.027 0.127963,0.0104 0.256191,0.0158 0.384051,0.0274 0.12379,0.008 0.238138,0.0538 0.359005,0.0756 0.125579,0.0157 0.254003,0.0202 0.377642,0.0477 0.133975,0.0101 0.26338,0.0455 0.387798,0.0946 0.121671,0.0539 0.254116,0.0669 0.384852,0.0883 0.133313,0.0178 0.266599,0.0162 0.392099,0.0692 0.117187,0.09 0.257903,0.0773 0.378585,0.15583 0.133582,0.0709 0.262019,0.12738 0.415065,0.13495 0.146253,0.0115 0.292306,0.006 0.438684,0.011 0.147466,-0.004 0.289343,0.0336 0.433565,0.055 0.156895,0.006 0.313711,0.0151 0.47068,0.0196 0.162081,0.005 0.324155,0.01 0.486183,0.0161 0.165208,0.0126 0.328239,0.0319 0.494088,0.0368 0.176914,0.003 0.349253,0.0399 0.523878,0.0623 0.181006,0.0421 0.348117,0.11491 0.536712,0.11713 0.184169,0.004 0.368399,8e-4 0.552609,2.3e-4 0.18779,-0.0209 0.36689,0.023 0.55067,0.0467 0.18115,0.0481 0.37097,0.0317 0.55662,0.0307 0.2047,-0.0187 0.37933,0.088 0.56424,0.15929 0.18331,0.0629 0.38136,0.0687 0.57333,0.0849 0.207,0.0208 0.38207,0.13841 0.59238,0.17518 0.21672,0.0106 0.42237,0.0583 0.61405,0.16148 0.17908,0.11487 0.39436,0.13421 0.60019,0.16415 0.3137,0.004 0.41775,-0.0318 0.58642,0.26434 0.14984,0.22637 0.3198,0.48597 0.61406,0.48262 0.20196,-0.0135 0.40185,-0.0525 0.60446,-0.072 0.19617,0.0119 0.39145,0.004 0.58728,-0.0129 0.20752,-0.0131 0.4127,0.009 0.61899,0.0196 0.23399,0.0276 0.47246,0.0622 0.66714,-0.085 0.19771,-0.13897 0.46869,-0.0651 0.71439,-0.1265 0.2809,-0.059 0.56341,-0.0823 0.85046,-0.0882 0.34044,0.0527 0.6585,-0.0724 0.99433,-0.0665 0.69949,-0.005 0.44828,0.28832 0.70872,0.87326 0.0309,0.0693 0.12247,0.0896 0.1837,0.13445 0,0 -0.003,0.17054 -0.003,0.17054 v 0 c -0.0627,0.0425 -0.15511,0.0593 -0.18818,0.12745 -0.27756,0.5721 -0.0358,0.87444 -0.7282,0.85099 -0.33107,-0.002 -0.64136,-0.13441 -0.97822,-0.0846 -0.28192,-0.009 -0.55927,-0.0349 -0.83507,-0.0928 -0.24134,-0.0605 -0.50624,0.017 -0.70527,-0.11874 -0.19571,-0.1445 -0.43343,-0.10428 -0.66575,-0.0723 -0.20564,0.015 -0.40994,0.0415 -0.61731,0.0332 -0.19635,-0.012 -0.39192,-0.0165 -0.58797,-2.6e-4 -0.20282,-0.0151 -0.40337,-0.0498 -0.60542,-0.0588 -0.29457,0.003 -0.45786,0.26787 -0.60452,0.49638 -0.16131,0.2997 -0.26562,0.26635 -0.57871,0.27713 -0.20476,0.0345 -0.41921,0.0588 -0.59518,0.17778 -0.1883,0.1073 -0.39183,0.15996 -0.60727,0.17599 -0.20748,0.042 -0.37679,0.16411 -0.58121,0.19064 -0.19162,0.0217 -0.38941,0.0334 -0.57117,0.10123 -0.19165,0.0782 -0.37618,0.18669 -0.58956,0.17197 -0.18728,0.002 -0.37887,-0.0125 -0.56108,0.038 -0.18808,0.0261 -0.37134,0.0716 -0.5638,0.052 -0.18732,5.3e-4 -0.374676,-0.002 -0.56194,0.003 -0.194196,0.003 -0.367557,0.0768 -0.55476,0.1169 -0.180766,0.0197 -0.359161,0.057 -0.541949,0.0573 -0.191619,0.003 -0.381809,0.0188 -0.573209,0.0233 -0.171389,-0.001 -0.342778,-0.005 -0.514112,-0.009 -0.164105,-0.004 -0.328289,-0.005 -0.492408,-0.008 -0.151397,0.0118 -0.301598,0.0394 -0.454459,0.0252 -0.148616,-0.005 -0.296132,-0.0215 -0.445074,-0.0208 -0.169688,-0.004 -0.32104,0.0526 -0.481589,0.0997 -0.149135,0.06 -0.302694,0.0345 -0.446871,0.11173 -0.138409,0.0394 -0.278638,0.0198 -0.420698,0.0213 -0.133829,0.004 -0.268158,5.3e-4 -0.396809,0.0393 -0.132329,0.0329 -0.267554,0.0524 -0.404381,0.0448 -0.14078,0.012 -0.28367,-0.003 -0.42477,-0.005 -0.131932,0.003 -0.261612,0.0285 -0.393917,0.0195 -0.119806,-0.007 -0.239115,-0.02 -0.35886,-0.0281 -0.125095,-0.007 -0.25006,-0.0165 -0.374906,-0.0269 -0.118391,-0.008 -0.236641,-0.0183 -0.354979,-0.0274 -0.117215,-0.0104 -0.234584,-0.019 -0.351911,-0.028 -0.112662,-0.008 -0.225232,-0.0177 -0.337868,-0.0261 -0.121692,-0.008 -0.243237,-0.018 -0.364987,-0.0251 -0.108046,-0.008 -0.214718,-0.0326 -0.323588,-0.0358 -0.106069,-0.01 -0.214204,-0.009 -0.318104,-0.0327 -0.101782,-0.009 -0.204255,-0.0144 -0.303622,-0.0386 -0.09329,-0.0204 -0.185552,-0.0403 -0.277807,-0.0646 -0.09869,-0.0195 -0.195281,-0.0507 -0.296323,-0.0576 -0.07028,-0.007 -0.140245,-0.0167 -0.210627,-0.0228 -0.04867,-0.006 -0.09778,-0.0101 -0.146113,-0.0182 -0.01728,-0.002 -0.02882,-0.005 -0.04618,-0.0103 0,0 0.355643,-5.84095 0.355643,-5.84095 z"
       inkscape:connector-curvature="0" />
    <path
       style="fill:#ffcc00;fill-opacity:1;stroke:none;stroke-width:1.16416669;stroke-miterlimit:4;stroke-dasharray:none;stroke-opacity:1"
       id="path1945"
       d="m 83.024574,204.02429 c 0.03569,-0.0727 0.03543,-0.15663 0.08686,-0.22013 0.07549,-0.075 0.165264,-0.13528 0.251949,-0.19735 0.122798,-0.079 0.248999,-0.15349 0.384064,-0.20873 0.146566,-0.0706 0.299029,-0.12737 0.451247,-0.18545 0.163832,-0.0571 0.323228,-0.12501 0.487002,-0.18208 0.165079,-0.0591 0.329949,-0.11882 0.495845,-0.17556 0.204767,-0.0696 0.410311,-0.13698 0.61707,-0.20045 0.210171,-0.0662 0.421687,-0.1279 0.632571,-0.19171 0.220641,-0.0386 0.442394,-0.0437 0.662532,-0.0907 0.226203,-0.0533 0.452755,-0.10736 0.679609,-0.16008 0.220189,-0.03 0.43397,-0.0913 0.65124,-0.13642 0.208513,-0.0468 0.42114,-0.0807 0.633312,-0.1066 0.214453,-0.008 0.425667,-0.0479 0.639667,-0.0618 0.200052,-0.0336 0.388194,-0.10879 0.57707,-0.17955 0.195977,-0.0677 0.410633,-0.0629 0.616185,-0.0898 0.234384,0.008 0.457864,-0.0521 0.679974,-0.1185 0.214056,-0.0698 0.420185,-0.16135 0.629976,-0.24277 0.207528,-0.0868 0.42523,-0.13449 0.644038,-0.1832 0.268832,-0.01 0.537414,0.0145 0.806617,0.0428 0.284384,0.0154 0.573711,-0.007 0.844473,-0.10109 0.256601,-0.0887 0.51223,-0.18017 0.768847,-0.26884 0.325787,-0.14422 0.64838,-0.0515 0.964547,0.0725 0.355618,0.0937 0.722423,0.18736 1.090866,0.1692 0.779817,-0.0402 0.722688,-0.20901 1.271312,0.51389 0,0 0.04725,0.16389 0.04725,0.16389 v 0 c -0.08568,0.90531 -0.127468,0.72709 -0.807802,1.10422 -0.306173,0.17352 -0.551373,0.44134 -0.766714,0.71824 -0.157181,0.26491 -0.324403,0.52159 -0.640588,0.59892 -0.245761,0.0856 -0.491533,0.17122 -0.735635,0.26147 -0.243273,0.0895 -0.4553,0.24076 -0.623734,0.43645 -0.152127,0.19922 -0.306639,0.39697 -0.496313,0.55949 -0.198091,0.12109 -0.395658,0.24027 -0.613667,0.32267 -0.218434,0.0888 -0.441486,0.16633 -0.656481,0.26324 -0.212432,0.10342 -0.420693,0.21335 -0.593992,0.37738 -0.188426,0.12572 -0.364848,0.28041 -0.575594,0.36433 -0.208893,0.0778 -0.420764,0.14978 -0.616182,0.25881 -0.194366,0.13098 -0.401,0.2418 -0.593908,0.37489 -0.207936,0.12086 -0.423471,0.23197 -0.643789,0.32832 -0.22201,0.0995 -0.45079,0.18276 -0.667774,0.29313 -0.222885,0.0904 -0.446667,0.17863 -0.669629,0.26738 -0.210225,0.0889 -0.396393,0.2166 -0.604049,0.30901 -0.193035,0.0627 -0.385593,0.12689 -0.578517,0.18992 -0.156972,0.0539 -0.314423,0.10647 -0.470405,0.16324 -0.14341,0.0513 -0.287518,0.1006 -0.430445,0.15324 -0.136555,0.0512 -0.276085,0.0925 -0.41198,0.14558 -0.111046,0.0409 -0.220674,0.0844 -0.333468,0.11882 -0.08074,0.0313 -0.165777,0.0411 -0.251349,0.0544 -0.08192,0.008 -0.163557,0.0279 -0.245412,0.0217 -0.103176,0.004 -0.206171,-0.0221 -0.304858,-0.0473 0,0 -2.281838,-5.29894 -2.281838,-5.29894 z"
       inkscape:connector-curvature="0" />
    <path
       style="fill:#ffcc00;fill-opacity:1;stroke:none;stroke-width:1.16416669;stroke-miterlimit:4;stroke-dasharray:none;stroke-opacity:1"
       id="path1947"
       d="m 67.03084,196.3463 c -0.03462,-0.0632 -0.08427,-0.11646 -0.129323,-0.1698 -0.03046,-0.0612 -0.04639,-0.1325 -0.0697,-0.20005 -0.04908,-0.11966 -0.05764,-0.24593 -0.08025,-0.37136 -0.01109,-0.1383 -0.0033,-0.27738 -0.01368,-0.416 -0.03134,-0.16939 -0.01722,-0.34109 -0.02922,-0.51172 -0.02432,-0.18321 -0.01201,-0.36946 -0.0048,-0.55363 0.0055,-0.20502 0.0078,-0.41113 0.02188,-0.61574 0.01632,-0.21633 0.03682,-0.43233 0.0581,-0.64823 0.01201,-0.20793 0.04604,-0.41348 0.06664,-0.62084 0.01953,-0.2055 0.04389,-0.41048 0.06313,-0.616 0.02384,-0.20761 0.04355,-0.41565 0.06825,-0.62316 0.02844,-0.2136 0.04638,-0.4281 0.06064,-0.64295 0.0118,-0.21371 0.05158,-0.4246 0.06621,-0.63815 0.0259,-0.21445 0.06142,-0.42736 0.08763,-0.64174 0.0092,-0.22115 0.03249,-0.44077 0.06052,-0.66012 0.03014,-0.22983 0.06369,-0.45917 0.09765,-0.68846 0.02439,-0.22781 0.06254,-0.45369 0.09494,-0.68055 0.04098,-0.23197 0.07098,-0.46554 0.105825,-0.69839 0.0384,-0.24165 0.07798,-0.48311 0.119512,-0.72424 0.0414,-0.242 0.07952,-0.48459 0.117099,-0.72721 0.04101,-0.24769 0.07945,-0.49578 0.120965,-0.74338 0.04453,-0.24707 0.08685,-0.49452 0.129442,-0.74193 0.104484,-0.23368 0.153739,-0.48205 0.199189,-0.73267 0.01426,-0.0426 0.02032,-0.0889 0.04276,-0.12787 0.02551,-0.0443 0.07186,-0.0739 0.09853,-0.11748 0.109823,-0.17945 0.06257,-0.33816 0.200546,-0.52043 0.06434,-0.0327 0.134504,-0.0558 0.193011,-0.0981 0.07755,-0.056 0.13135,-0.16952 0.195236,-0.23724 0.214222,-0.22707 0.441883,-0.22494 0.743781,-0.26382 0.554609,-0.19441 1.139626,-0.28121 1.719275,-0.36742 0,0 0.166902,0.0352 0.166902,0.0352 v 0 c 0.495978,0.31274 0.997106,0.62795 1.424297,1.03228 0.262163,0.16088 0.346724,0.16386 0.500288,0.38616 0.09252,0.13393 0.07579,0.29882 0.160901,0.43084 0.03794,0.0589 0.0936,0.10416 0.140398,0.15624 0.05739,0.19168 -0.03931,0.2985 0.0026,0.47123 0.01072,0.0442 0.04336,0.0812 0.05278,0.12567 0.0079,0.0372 -0.0013,0.0761 -0.0019,0.1142 -0.04258,0.23635 -0.07634,0.47148 -0.05577,0.712 -0.04121,0.23779 -0.08235,0.47557 -0.119036,0.71411 -0.04012,0.23945 -0.08266,0.47849 -0.120705,0.71828 -0.04127,0.24038 -0.08197,0.48089 -0.119314,0.72191 -0.03522,0.23092 -0.07207,0.46159 -0.107979,0.69241 -0.0364,0.22216 -0.07724,0.44356 -0.105148,0.66709 -0.03489,0.21821 -0.06376,0.43725 -0.10505,0.65424 -0.03034,0.20837 -0.06023,0.41681 -0.08937,0.62535 -0.0303,0.20974 -0.06395,0.41879 -0.111559,0.6255 -0.02906,0.20751 -0.04816,0.41601 -0.07619,0.62368 -0.03878,0.20526 -0.05239,0.41422 -0.09288,0.61912 -0.03708,0.19909 -0.0709,0.39876 -0.09212,0.60035 -0.02331,0.1989 -0.05025,0.39737 -0.07243,0.5964 -0.02606,0.19461 -0.04738,0.38979 -0.07161,0.58463 -0.02188,0.18558 -0.02963,0.37192 -0.05594,0.55673 -0.01505,0.15917 -0.02988,0.31837 -0.03911,0.478 -0.0095,0.14897 -0.02799,0.29759 -0.03547,0.44691 -0.0053,0.15148 -0.0035,0.30557 -0.03534,0.45418 -0.01855,0.14122 -0.01027,0.2847 -0.04075,0.42488 -0.01167,0.13959 -0.0052,0.2798 -0.01786,0.41905 -0.02066,0.10508 -0.02794,0.21052 -0.08179,0.30613 -0.04063,0.0931 -0.05239,0.1874 -0.06659,0.28729 -0.0154,0.0785 -0.05777,0.16547 -0.136268,0.19579 0,0 -5.001805,-0.0772 -5.001805,-0.0772 z"
       inkscape:connector-curvature="0" />
    <path
       style="fill:#ffcc00;fill-opacity:1;stroke:none;stroke-width:1.16416669;stroke-miterlimit:4;stroke-dasharray:none;stroke-opacity:1"
       id="path1949"
       d="m 51.768382,200.2178 c -0.09865,-0.0832 -0.176326,-0.1888 -0.228727,-0.30658 -0.03912,-0.0646 -0.07663,-0.12942 -0.108132,-0.19787 -0.04778,-0.0727 -0.07936,-0.15712 -0.115673,-0.23649 -0.07131,-0.14369 -0.12431,-0.2965 -0.202362,-0.43666 -0.05507,-0.13111 -0.109378,-0.26259 -0.162409,-0.39455 -0.06427,-0.12191 -0.101864,-0.25419 -0.152588,-0.38144 -0.07396,-0.14959 -0.123989,-0.30926 -0.194379,-0.46075 -0.07253,-0.17187 -0.151302,-0.34138 -0.226044,-0.51293 -0.09334,-0.17467 -0.14647,-0.36568 -0.208774,-0.55269 -0.07633,-0.17772 -0.120389,-0.36699 -0.188413,-0.5478 -0.0639,-0.17649 -0.134263,-0.35249 -0.221488,-0.51917 -0.06723,-0.16777 -0.115377,-0.34248 -0.179432,-0.51143 -0.04901,-0.17826 -0.113218,-0.35159 -0.168516,-0.52771 -0.05703,-0.18809 -0.116107,-0.37554 -0.175668,-0.56285 -0.05849,-0.18628 -0.120586,-0.37137 -0.181911,-0.55672 -0.05855,-0.1806 -0.1119,-0.36168 -0.172598,-0.54172 -0.05526,-0.18444 -0.09651,-0.37254 -0.145259,-0.55868 -0.04881,-0.19543 -0.101095,-0.39052 -0.129604,-0.59012 0.01413,-0.0965 -0.07823,-0.19878 -0.07215,-0.29145 0.01161,-0.17678 0.06858,-0.10845 0.0038,-0.32547 -0.07619,-0.20072 -0.05542,-0.41659 -0.103534,-0.62507 0.05938,-0.21711 -0.06073,-0.43666 -0.114123,-0.64917 -0.04344,-0.21468 -0.03372,-0.43168 -0.0545,-0.64826 -0.03248,-0.20955 -0.07381,-0.41126 -0.144655,-0.61147 -0.06394,-0.19687 -0.0448,-0.4045 -0.112591,-0.60208 -0.0086,-0.0329 -0.03045,-0.0651 -0.02585,-0.0988 0.0062,-0.0455 0.04626,-0.0809 0.05654,-0.12573 0.02666,-0.11616 -0.06214,-0.27532 -0.09651,-0.38367 -0.06046,-0.18843 -0.120219,-0.37711 -0.182004,-0.56511 -0.06257,-0.18048 -0.115409,-0.36379 -0.143259,-0.55291 0.0081,-0.18609 -0.01069,-0.37129 -0.06307,-0.55035 -0.08302,-0.20923 -0.03835,-0.12058 0.03262,-0.30659 0.02951,-0.0773 -0.02519,-0.2122 -0.04288,-0.28737 -0.05112,-0.18419 -0.104169,-0.36782 -0.155249,-0.55203 -0.06193,-0.17208 -0.102175,-0.35131 -0.148818,-0.52803 -0.05089,-0.17195 -0.09692,-0.34599 -0.160205,-0.51398 -0.04702,-0.16704 -0.09996,-0.33216 -0.181139,-0.48575 -0.07,-0.1505 -0.108633,-0.31204 -0.155168,-0.47069 -0.06096,-0.15286 -0.136138,-0.30039 -0.188441,-0.45642 -0.07387,-0.15754 -0.122719,-0.3244 -0.19571,-0.48224 -0.05743,-0.16538 -0.132175,-0.32205 -0.189561,-0.4877 -0.06625,-0.15631 -0.117033,-0.31914 -0.169489,-0.48058 -0.03728,-0.16666 -0.10268,-0.32468 -0.15535,-0.48671 -0.06958,-0.17548 -0.06358,-0.35425 -0.01889,-0.53398 0.05462,-0.18233 0.106,-0.37433 0.08038,-0.56526 0.06641,-0.38554 0.53154,-0.60747 0.822539,-0.81777 0.313344,-0.21445 0.190199,-0.10323 0.388274,-0.31155 0,0 0.161173,-0.0558 0.161173,-0.0558 v 0 c 0.284065,0.0397 0.118811,0.0296 0.496681,4e-4 0.359548,-0.0199 0.857076,-0.13708 1.152679,0.12084 0.09987,0.16268 0.261122,0.27769 0.416139,0.38487 0.149609,0.11281 0.26629,0.24905 0.322482,0.43161 0.06103,0.16069 0.110223,0.32595 0.186031,0.48068 0.06263,0.16604 0.127233,0.33233 0.173776,0.50362 0.06014,0.17523 0.100076,0.35455 0.158808,0.53008 0.04281,0.18629 0.108673,0.36547 0.146513,0.55306 0.05881,0.18911 0.09184,0.38534 0.133377,0.57882 0.05397,0.18322 0.114493,0.36561 0.136438,0.5562 0.01267,0.18473 0.0508,0.36547 0.09338,0.54549 0.02685,0.17682 0.07297,0.35022 0.113014,0.52432 0.04559,0.17391 0.09788,0.347 0.127608,0.52441 0.04227,0.16692 0.0836,0.33406 0.130919,0.49964 0.02096,0.062 0.04336,0.19055 0.104722,0.22881 0.166605,0.10386 0.134911,-0.008 0.184388,0.20349 0.05461,0.17224 0.144126,0.33006 0.25178,0.47442 0.0807,0.16299 0.137906,0.33529 0.187105,0.5102 0.05259,0.17399 0.108607,0.34697 0.166722,0.51918 0.03349,0.0982 0.05628,0.2724 0.143248,0.33986 0.03415,0.0265 0.08519,0.0263 0.11729,0.0552 0.02225,0.02 0.02371,0.055 0.03554,0.0825 0.06278,0.18465 0.201679,0.3209 0.269621,0.50145 0.0657,0.18741 0.15661,0.35573 0.26061,0.52466 0.120872,0.17104 0.264826,0.32279 0.367519,0.50711 0.09155,0.18241 0.140499,0.40942 0.321276,0.51943 0.103494,0.1865 0.264025,0.33331 0.337452,0.53505 0.09499,0.20519 0.09378,0.11915 0.221094,0.2481 0.06936,0.0702 0.06758,0.21299 0.143933,0.2819 0.114131,0.1814 0.207071,0.37493 0.300551,0.56758 0.0947,0.20281 0.195286,0.40301 0.276934,0.6117 0.07626,0.21162 0.156207,0.42118 0.228245,0.63413 0.06824,0.20597 0.134528,0.41256 0.201163,0.61905 0.06252,0.19474 0.124733,0.38956 0.188621,0.58385 0.06167,0.19472 0.114364,0.39235 0.179494,0.58613 0.04554,0.19009 0.106002,0.37625 0.14641,0.56758 0.01815,0.17478 0.0482,0.34925 0.08848,0.51988 0.03477,0.15512 0.09319,0.30374 0.125087,0.45948 0.04239,0.13701 0.0969,0.27127 0.113917,0.4145 0.0312,0.13118 0.06175,0.26287 0.104206,0.39023 0.03622,0.12726 0.09401,0.24577 0.131953,0.3722 0.05155,0.12628 0.116017,0.24715 0.154641,0.37879 0.0441,0.1089 0.08684,0.21835 0.131249,0.32712 0.02117,0.0827 0.05547,0.16094 0.09149,0.23822 0.05395,0.11408 0.113898,0.22637 0.153069,0.34657 0.03683,0.0856 0.0798,0.17479 0.0912,0.26748 0.02273,0.0558 -0.02519,0.029 -0.06669,0.0512 0,0 -5.050444,2.54711 -5.050444,2.54711 z"
       inkscape:connector-curvature="0" />
    <path
       style="fill:#ffcc00;fill-opacity:1;stroke:none;stroke-width:1.16416669;stroke-miterlimit:4;stroke-dasharray:none;stroke-opacity:1"
       id="path1951"
       d="m 26.602438,225.39084 c -0.06932,0.0429 -0.143015,0.0902 -0.218373,0.12163 -0.07057,0.0115 -0.147311,0.001 -0.215787,-0.0195 -0.09729,-0.034 -0.198049,-0.0469 -0.298923,-0.068 -0.118996,-0.0374 -0.238369,-0.0708 -0.356148,-0.11265 -0.109534,-0.0428 -0.220688,-0.0813 -0.33072,-0.12274 -0.104097,-0.0378 -0.207741,-0.0769 -0.310754,-0.11758 -0.100448,-0.0474 -0.205719,-0.0772 -0.298839,-0.13897 -0.10673,-0.0626 -0.224178,-0.0999 -0.340072,-0.14184 -0.122312,-0.0469 -0.246006,-0.0899 -0.369273,-0.13411 -0.125748,-0.0476 -0.252883,-0.0915 -0.378827,-0.13864 -0.139358,-0.039 -0.257792,-0.11791 -0.38064,-0.19006 -0.131554,-0.0455 -0.262183,-0.0938 -0.394119,-0.13824 -0.140305,-0.0504 -0.282417,-0.0955 -0.422965,-0.14515 -0.138951,-0.0505 -0.277949,-0.10077 -0.417204,-0.15039 -0.145481,-0.0514 -0.291036,-0.10254 -0.436127,-0.15504 -0.13722,-0.05 -0.273187,-0.1036 -0.412028,-0.14895 -0.14539,-0.036 -0.260438,-0.12837 -0.383888,-0.20767 -0.129201,-0.0629 -0.271616,-0.0917 -0.396167,-0.16388 -0.140082,-0.0365 -0.256119,-0.11692 -0.381328,-0.18246 -0.137007,-0.0489 -0.274405,-0.0967 -0.411691,-0.14489 -0.144369,-0.0513 -0.288901,-0.10217 -0.432157,-0.1565 -0.137564,-0.0621 -0.276917,-0.11876 -0.413073,-0.18412 -0.141684,-0.0482 -0.274215,-0.11518 -0.413235,-0.16956 -0.100487,-0.11041 -0.260396,-0.13855 -0.391393,-0.20475 -0.1458,-0.0613 -0.295711,-0.11073 -0.441293,-0.17233 -0.14518,-0.0486 -0.280243,-0.12019 -0.420339,-0.17997 -0.151465,-0.0599 -0.294775,-0.13655 -0.439956,-0.20997 -0.142784,-0.0675 -0.287948,-0.12966 -0.432543,-0.19339 -0.141707,-0.0666 -0.264604,-0.1566 -0.390403,-0.2478 -0.113997,-0.0964 -0.25165,-0.14622 -0.383056,-0.21273 -0.141824,-0.0818 -0.261083,-0.19135 -0.40099,-0.27659 -0.152297,-0.0609 -0.293592,-0.14381 -0.41575,-0.25316 -0.112628,-0.12765 -0.247473,-0.19541 -0.395899,-0.27519 -0.14331,-0.0814 -0.300691,-0.13502 -0.454673,-0.19273 -0.157079,-0.0609 -0.316553,-0.11287 -0.46294,-0.19721 -0.127055,-0.10026 -0.262616,-0.20389 -0.406426,-0.28221 -0.163626,-0.0807 -0.303455,-0.17081 -0.375551,-0.34216 -0.154795,-0.16827 -0.239905,-0.28974 -0.262405,-0.52361 -0.119993,-0.10817 -0.206225,-0.24675 -0.319447,-0.3626 -0.08189,-0.14738 -0.229748,-0.24007 -0.372811,-0.32197 -0.137218,-0.0657 -0.270254,-0.13913 -0.405306,-0.20901 -0.137998,-0.0413 -0.261279,-0.11504 -0.38639,-0.18476 -0.116661,-0.0662 -0.241328,-0.12012 -0.344605,-0.20667 -0.149451,-0.0932 -0.170413,-0.20846 -0.230412,-0.35979 -0.073289,-0.18627 0.08149,-0.50457 0.13111,-0.66458 0,0 0.07469,-0.15334 0.07469,-0.15334 v 0 c 0.107822,-0.14544 0.26691,-0.46103 0.484874,-0.48656 0.172798,-0.0268 0.295029,-0.0682 0.462894,0.0174 0.126109,0.0429 0.235714,0.11972 0.351558,0.18434 0.108892,0.0607 0.220964,0.11603 0.316228,0.19731 0.108331,0.0565 0.219265,0.10712 0.33127,0.15593 0.133708,0.0437 0.279212,0.0726 0.414598,0.0217 0.167707,-0.005 0.331598,-0.0402 0.498796,-0.0247 0.184752,-0.13596 0.335509,-0.16481 0.558825,-0.17581 0.156966,-0.0656 0.303821,-0.0427 0.463959,0.008 0.14494,0.0377 0.303651,0.0455 0.450637,0.0588 0.144996,0.0303 0.27824,0.0923 0.417243,0.14211 0.140059,0.0525 0.281365,0.10702 0.429317,0.13202 0.166117,0.034 0.314527,0.0687 0.483843,0.0436 0.16328,-0.004 0.323869,0.0196 0.47913,0.0715 0.171435,0.0244 0.343836,0.0205 0.513474,0.0565 0.174545,0.0467 0.342584,0.1133 0.523676,0.13209 0.17353,0.0252 0.34311,0.0529 0.50942,0.11206 0.154707,0.0589 0.308316,0.12043 0.464037,0.17628 0.147095,0.0471 0.295097,0.0906 0.437431,0.15103 0.139833,0.0545 0.284396,0.097 0.420312,0.16243 0.128428,0.05 0.251833,0.11076 0.381084,0.15893 0.137751,0.0375 0.268,0.12336 0.413519,0.10903 0.122976,0.0477 0.249237,0.0819 0.371236,0.13282 0.125898,0.035 0.249195,0.0766 0.375175,0.11066 0.123899,0.0433 0.246802,0.0894 0.370675,0.13275 0.132371,0.0464 0.264765,0.0927 0.39758,0.1378 0.145521,0.0285 0.293211,0.04 0.431844,0.10118 0.147969,0.0236 0.282498,0.0926 0.428011,0.12715 0.152353,0.0192 0.30675,0.021 0.448054,0.0894 0.139585,0.0545 0.281681,0.10237 0.422679,0.15309 0.134629,0.0488 0.268679,0.0991 0.403417,0.14749 0.137707,0.0488 0.275669,0.0968 0.41375,0.14446 0.137115,0.0486 0.272348,0.10231 0.41005,0.14933 0.140042,0.0512 0.281258,0.0992 0.421222,0.15063 0.137352,0.0245 0.277121,0.035 0.406866,0.0923 0.1294,0.0436 0.257698,0.0904 0.387144,0.1338 0.124847,0.0445 0.249154,0.0904 0.374831,0.13249 0.120346,0.0427 0.239209,0.0889 0.365356,0.11109 0.128381,0.0179 0.244882,0.0694 0.36867,0.10533 0.111858,0.0394 0.223023,0.0806 0.33355,0.12355 0.103055,0.0388 0.205295,0.0798 0.309128,0.11646 0.09025,0.0357 0.177327,0.0765 0.26583,0.11503 0.08116,0.0456 0.158707,0.0962 0.248703,0.12426 0.08094,0.0317 0.146433,0.0933 0.223319,0.13387 0.06969,0.0724 0.125558,0.15152 0.139996,0.25322 0,0 -1.784083,4.81419 -1.784083,4.81419 z"
       inkscape:connector-curvature="0" />
    <path
       style="fill:#ffcc00;fill-opacity:1;stroke:none;stroke-width:1.16416669;stroke-miterlimit:4;stroke-dasharray:none;stroke-opacity:1"
       id="path1953"
       d="m 33.888198,251.56998 c 0.03427,0.0379 0.07869,0.03 0.114178,0.064 -0.0051,0.0909 -0.05376,0.14658 -0.122158,0.20264 -0.08253,0.078 -0.191489,0.12017 -0.289443,0.17596 -0.09453,0.0572 -0.176686,0.12934 -0.277961,0.17866 -0.09851,0.0539 -0.200776,0.10007 -0.30308,0.14706 -0.09862,0.0458 -0.195305,0.0942 -0.293182,0.14133 -0.08983,0.0389 -0.178113,0.0812 -0.267383,0.12134 -0.108323,0.0484 -0.214241,0.10191 -0.321847,0.15183 -0.110138,0.0485 -0.213233,0.11118 -0.321681,0.16248 -0.112183,0.0549 -0.225411,0.10775 -0.336901,0.16408 -0.11543,0.0701 -0.238805,0.12666 -0.359791,0.18658 -0.127384,0.0602 -0.252021,0.12584 -0.378228,0.18838 -0.131116,0.0616 -0.259826,0.12807 -0.388929,0.19371 -0.124386,0.0735 -0.260811,0.12126 -0.39048,0.18282 -0.112914,0.0552 -0.225703,0.11094 -0.343048,0.15591 -0.119825,0.0461 -0.242057,0.0992 -0.348279,0.17228 -0.0925,0.053 -0.195289,0.0893 -0.279149,0.15598 -0.06803,0.0466 -0.171098,0.0733 -0.211997,0.14784 -0.064,0.0718 0.06463,0.0767 0.114964,0.0845 0.04126,-0.008 0.02492,0.0374 0.03574,0.0811 -0.03438,0.0651 -0.0896,0.12245 -0.143227,0.17371 -0.10038,0.0917 -0.193741,0.19074 -0.304059,0.27062 -0.122967,0.12044 -0.264422,0.21484 -0.392946,0.32845 -0.140102,0.1209 -0.279828,0.24233 -0.421595,0.36129 -0.171098,0.11643 -0.334623,0.2436 -0.498697,0.36973 -0.178485,0.13741 -0.363238,0.26635 -0.548113,0.39494 -0.17376,0.11639 -0.33769,0.24568 -0.511022,0.36255 -0.171769,0.11639 -0.369007,0.18608 -0.552617,0.28124 -0.176978,0.11474 -0.354086,0.22921 -0.532734,0.34133 -0.172638,0.11233 -0.349658,0.21804 -0.516943,0.33832 -0.16857,0.10852 -0.33674,0.21764 -0.505559,0.32578 -0.173203,0.1111 -0.346912,0.22138 -0.521132,0.33088 -0.169607,0.1099 -0.338999,0.22013 -0.510484,0.32708 -0.173069,0.10845 -0.346025,0.21705 -0.519987,0.32406 -0.171573,0.10623 -0.344717,0.20987 -0.517358,0.31435 -0.173285,0.1078 -0.343917,0.22019 -0.527939,0.30922 -0.164113,0.0905 -0.318691,0.19664 -0.478284,0.2944 -0.149602,0.0907 -0.297818,0.18356 -0.447504,0.27406 -0.144438,0.0882 -0.287115,0.17937 -0.432519,0.26599 -0.139304,0.0859 -0.276695,0.17494 -0.416094,0.26072 -0.13694,0.0793 -0.272002,0.1617 -0.406613,0.24514 -0.148416,0.081 -0.289703,0.17469 -0.434257,0.26251 -0.151758,0.0957 -0.322211,0.14771 -0.481242,0.22952 -0.147697,0.0866 -0.309173,0.13085 -0.471593,0.17835 -0.157507,0.031 -0.284631,0.14064 -0.436985,0.17868 -0.578885,-0.32421 -1.037507,-0.87681 -1.463597,-1.37452 -0.171404,-0.21262 -0.342807,-0.42523 -0.514211,-0.63785 0,0 -0.09287,-0.14307 -0.09287,-0.14307 v 0 c -0.123967,-0.24341 -0.247935,-0.48682 -0.371902,-0.73023 -0.272844,-0.59014 -0.608331,-1.26436 -0.59987,-1.92898 0.123297,-0.13387 0.296278,-0.2125 0.416289,-0.35284 0.128857,-0.12531 0.249444,-0.25816 0.403617,-0.35464 0.139433,-0.0989 0.258203,-0.22049 0.404747,-0.30887 0.134986,-0.0832 0.27318,-0.1619 0.402815,-0.25321 0.140604,-0.0868 0.280882,-0.17393 0.419397,-0.26385 0.145084,-0.0889 0.292334,-0.17425 0.437998,-0.2622 0.152072,-0.0948 0.307154,-0.18471 0.461256,-0.27613 0.160979,-0.0969 0.323615,-0.19097 0.486182,-0.28513 0.166639,-0.0963 0.338524,-0.18363 0.501582,-0.28629 0.149719,-0.10726 0.312162,-0.1936 0.471383,-0.28547 0.159861,-0.0965 0.318874,-0.19445 0.478224,-0.29177 0.162755,-0.0999 0.326198,-0.19871 0.48855,-0.29928 0.164986,-0.10285 0.331602,-0.20304 0.497599,-0.30423 0.160925,-0.10123 0.322203,-0.20189 0.482586,-0.30397 0.167828,-0.10717 0.335995,-0.21377 0.503826,-0.32092 0.173314,-0.099 0.339115,-0.2101 0.507183,-0.31761 0.149967,-0.0998 0.30078,-0.19826 0.44926,-0.30022 0.132688,-0.11677 0.244731,-0.2564 0.390861,-0.35711 0.142578,-0.10058 0.292539,-0.18943 0.431688,-0.29502 0.11469,-0.0844 0.228418,-0.17007 0.341128,-0.2571 0.09736,-0.0765 0.191424,-0.15827 0.273195,-0.25151 0.0991,-0.0834 0.199113,-0.16571 0.294552,-0.25337 0.09867,-0.0877 0.17658,-0.19174 0.278472,-0.27694 0.08355,-0.10021 0.187041,-0.18041 0.28037,-0.27124 0.117178,-0.10603 0.244288,-0.20267 0.373742,-0.29382 0.206375,-0.0358 0.33846,-0.21209 0.520482,-0.30695 0.190458,-0.0885 0.391482,-0.15947 0.593616,-0.21355 0.116394,-0.0232 0.218013,-0.0899 0.324332,-0.14114 0.128742,-0.0473 0.245093,-0.12184 0.369429,-0.17931 0.126433,-0.0446 0.24494,-0.1158 0.358089,-0.18669 0.127696,-0.0782 0.261366,-0.14604 0.396066,-0.21142 0.125492,-0.0634 0.244266,-0.14047 0.375584,-0.19321 0.125664,-0.0596 0.251753,-0.11849 0.375078,-0.1829 0.126207,-0.0625 0.254096,-0.12158 0.379143,-0.18644 0.130648,-0.0648 0.260038,-0.1333 0.395907,-0.18651 0.130537,-0.0619 0.259677,-0.12671 0.390607,-0.18779 0.123417,-0.0591 0.252846,-0.10601 0.375364,-0.16776 0.12002,-0.056 0.241871,-0.10798 0.362095,-0.16356 0.119399,-0.0552 0.240179,-0.10746 0.360926,-0.1596 0.101198,-0.0398 0.202621,-0.0777 0.303478,-0.11857 0.09699,-0.0399 0.193227,-0.0808 0.292467,-0.11378 0.0946,-0.0377 0.191744,-0.0514 0.289081,-0.0717 0.07804,-0.0205 0.151937,-0.0625 0.233355,-0.0636 0.111204,-0.0178 0.216426,0.0162 0.32685,-0.007 0.156216,-0.0349 0.312756,-0.0821 0.474073,-0.0788 0,0 1.568082,4.85623 1.568082,4.85623 z"
       inkscape:connector-curvature="0" />
    <path
       style="fill:#ffcc00;fill-opacity:1;stroke:none;stroke-width:1.16416669;stroke-miterlimit:4;stroke-dasharray:none;stroke-opacity:1"
       id="path1955"
       d="m 53.429468,256.57468 c 0.05504,0.10068 0.06278,0.21582 0.09161,0.3255 0.05201,0.15988 0.04917,0.31682 0.01442,0.47923 0.0226,0.14219 -0.0146,0.27827 -0.03218,0.41881 -0.0096,0.14111 -0.0343,0.28084 -0.05106,0.42278 -0.0118,0.16824 -0.05379,0.33472 -0.09426,0.49835 -0.02686,0.18437 -0.07334,0.36542 -0.118795,0.54595 -0.04065,0.18249 -0.08597,0.36419 -0.130855,0.54577 -0.05143,0.20912 -0.100743,0.41822 -0.155342,0.62664 -0.07036,0.22959 -0.134496,0.46041 -0.194741,0.69292 -0.06107,0.23531 -0.118264,0.4716 -0.178742,0.70707 -0.0921,0.24199 -0.155001,0.49856 -0.216678,0.75107 -0.05556,0.25658 -0.117843,0.5115 -0.182483,0.76603 -0.07972,0.25956 -0.14805,0.52263 -0.225603,0.78312 -0.0778,0.27283 -0.154066,0.54628 -0.222802,0.82163 -0.07905,0.29951 -0.140513,0.60352 -0.226314,0.90117 -0.08228,0.32269 -0.161478,0.64446 -0.254202,0.96418 -0.07003,0.34753 -0.148804,0.69348 -0.201292,1.04419 -0.0662,0.3799 -0.143118,0.75738 -0.222655,1.13462 -0.06234,0.38851 -0.152088,0.77304 -0.191614,1.16474 -0.03115,0.39047 -0.128111,0.7719 -0.171931,1.16115 -0.07012,0.40924 -0.15085,0.81677 -0.211217,1.22759 -0.07859,0.42313 -0.147503,0.84794 -0.221237,1.27191 -0.07065,0.43889 -0.138043,0.87832 -0.221615,1.31501 -0.02792,0.51546 -0.263255,0.86928 -0.599127,1.2382 -0.207606,0.14855 -0.286174,0.40823 -0.442461,0.59397 -0.178752,0.21244 -0.426423,0.39071 -0.655962,0.54061 -0.458002,0.18777 -0.958469,0.0593 -1.427081,0.15623 -0.08557,0.0177 -0.132636,0.11382 -0.198951,0.17073 0,0 -0.167312,-0.0332 -0.167312,-0.0332 v 0 c -0.03968,-0.0773 -0.0465,-0.18412 -0.119059,-0.23196 -0.398402,-0.26268 -0.90804,-0.32901 -1.269011,-0.66267 -0.159372,-0.21262 -0.326795,-0.45641 -0.423955,-0.70691 -0.08343,-0.21511 -0.07494,-0.47256 -0.219564,-0.66849 -0.203603,-0.45319 -0.302718,-0.85959 -0.162799,-1.35306 0.06503,-0.44655 0.146998,-0.89024 0.22773,-1.33413 0.07315,-0.43104 0.152194,-0.86107 0.223628,-1.29241 0.08279,-0.40551 0.146212,-0.81469 0.218747,-1.22212 0.09192,-0.38709 0.131575,-0.78499 0.238049,-1.16842 0.09766,-0.38097 0.147637,-0.77212 0.222273,-1.15806 0.0581,-0.39902 0.119341,-0.79728 0.197771,-1.19299 0.08546,-0.38378 0.147296,-0.77233 0.229415,-1.15687 0.05057,-0.3658 0.118171,-0.72677 0.191976,-1.08877 0.05861,-0.33344 0.144574,-0.66121 0.219348,-0.99129 0.06957,-0.29085 0.134088,-0.58283 0.199067,-0.87465 0.05274,-0.25403 0.114194,-0.50581 0.160668,-0.76086 0.06008,-0.25285 0.122526,-0.50492 0.190924,-0.75555 0.06227,-0.25477 0.124256,-0.5135 0.155154,-0.77308 0.06044,-0.25698 0.125129,-0.5129 0.190032,-0.76878 0.05937,-0.23329 0.116549,-0.46657 0.16551,-0.70222 0.05559,-0.22035 0.116715,-0.43855 0.177175,-0.65753 0.0538,-0.19376 0.109183,-0.38751 0.169617,-0.57921 0.04412,-0.15236 0.0891,-0.30492 0.147153,-0.45261 0.03712,-0.13901 0.07283,-0.2807 0.132628,-0.41171 0.04917,-0.12992 0.08921,-0.26217 0.144817,-0.38759 0.03932,-0.10057 0.05849,-0.20521 0.132561,-0.28729 0.0154,-0.0657 0.0537,-0.0981 0.124587,-0.0786 0.05454,-0.009 0.10355,-0.0306 0.142883,-0.071 0,0 5.103157,0.55287 5.103157,0.55287 z"
       inkscape:connector-curvature="0" />
    <path
       style="fill:#ffcc00;fill-opacity:1;stroke:none;stroke-width:1.16416669;stroke-miterlimit:4;stroke-dasharray:none;stroke-opacity:1"
       id="path1957"
       d="m 72.053155,248.58721 c 0.1846,0.13428 0.34035,0.30436 0.489882,0.47579 0.120187,0.13385 0.229751,0.27622 0.344868,0.4141 0.09328,0.12701 0.191479,0.2498 0.285332,0.37649 0.107654,0.14642 0.215085,0.29304 0.320157,0.44134 0.100504,0.1412 0.200093,0.28306 0.302365,0.42298 0.117753,0.16054 0.232799,0.32301 0.349666,0.4842 0.133159,0.17727 0.257773,0.36069 0.384175,0.54278 0.128905,0.18137 0.250941,0.36747 0.375827,0.5516 0.128291,0.18727 0.257837,0.37361 0.384617,0.56192 0.128847,0.19089 0.257559,0.38184 0.388564,0.57126 0.132385,0.18889 0.257914,0.3829 0.400503,0.56432 0.134853,0.20815 0.291685,0.40009 0.436988,0.60035 0.164926,0.21442 0.321358,0.43539 0.480219,0.65436 0.181324,0.25215 0.366871,0.5008 0.542758,0.75676 0.190268,0.27471 0.373939,0.55381 0.556263,0.83382 0.180726,0.277 0.356918,0.55688 0.533397,0.83658 0.174644,0.27455 0.349322,0.54907 0.523267,0.82406 0.200115,0.28824 0.357505,0.60181 0.538932,0.90061 0.180383,0.30494 0.329885,0.62595 0.514766,0.92819 0.167777,0.30741 0.329914,0.61732 0.487029,0.93031 0.124034,0.31943 0.289936,0.61676 0.464489,0.91053 0.161555,0.29461 0.320926,0.59043 0.485349,0.88333 0.142624,0.18303 0.145825,0.4167 0.235458,0.61975 0.04273,0.0968 0.10038,0.18642 0.145037,0.28233 0.152312,0.28447 0.273825,0.5731 0.43312,0.85579 0.147161,0.30811 0.310428,0.60784 0.473649,0.90789 0.166039,0.30051 0.326676,0.60382 0.481682,0.91016 0.149386,0.30686 0.19676,0.638 0.248147,0.97065 0.05087,0.31529 0.212895,0.59225 0.353359,0.87383 0.164881,0.26517 0.289695,0.5502 0.425106,0.83152 0.146434,0.27494 0.268775,0.56132 0.402291,0.84244 0.149035,0.27689 0.269555,0.56667 0.401559,0.85184 0.149915,0.27814 0.271835,0.57077 0.402465,0.85841 0.04484,0.32833 0.0339,0.6451 0.139375,0.96327 0.132702,0.27276 0.191119,0.57134 0.285173,0.85832 -0.02,0.20382 0.180774,0.39182 0.126227,0.59405 -0.03674,0.13624 -0.119692,0.25691 -0.15803,0.39271 0.02469,0.15469 -0.01363,0.32314 0.007,0.47659 0.01984,0.14721 0.102722,0.27219 0.12392,0.42318 7.94e-4,0.42959 -0.237937,0.74567 -0.415152,1.11369 -0.228537,0.27597 -0.240107,0.14472 -0.142997,0.3685 0,0 -0.156472,0.0679 -0.156472,0.0679 v 0 c -0.09699,-0.2235 -0.0091,-0.12568 -0.366543,-0.14574 -0.389602,-0.12113 -0.782325,-0.16447 -1.097285,-0.45459 -0.09449,-0.11479 -0.129347,-0.25875 -0.222795,-0.3693 -0.09808,-0.11603 -0.247036,-0.19873 -0.344157,-0.31781 -0.239027,-0.11506 -0.108709,-0.0666 -0.393936,-0.13718 -0.182104,-0.0867 -0.190513,-0.35402 -0.352856,-0.46674 -0.155292,-0.26017 -0.342998,-0.50095 -0.461404,-0.78135 -0.169865,-0.28823 -0.411808,-0.4911 -0.632322,-0.73773 -0.126686,-0.27805 -0.264417,-0.55177 -0.375648,-0.83634 -0.126415,-0.27254 -0.264012,-0.53912 -0.378476,-0.81698 -0.129439,-0.2728 -0.271523,-0.53957 -0.390938,-0.81717 -0.12801,-0.26478 -0.267274,-0.52301 -0.370384,-0.79822 -0.133348,-0.26881 -0.253389,-0.54974 -0.471303,-0.76357 -0.233111,-0.22497 -0.467526,-0.44585 -0.627594,-0.73247 -0.147548,-0.27557 -0.290968,-0.55328 -0.437891,-0.82915 -0.149997,-0.27591 -0.303993,-0.54938 -0.47834,-0.81052 -0.160639,-0.2832 -0.347665,-0.53595 -0.512384,-0.81481 -0.05912,-0.0877 -0.105974,-0.18342 -0.166846,-0.26992 -0.118946,-0.16902 -0.307978,-0.27869 -0.388131,-0.47912 -0.155133,-0.26152 -0.319302,-0.51844 -0.48673,-0.77232 -0.17049,-0.28137 -0.35084,-0.55447 -0.570508,-0.8007 -0.204753,-0.28011 -0.405199,-0.5628 -0.60076,-0.8494 -0.180901,-0.29551 -0.392123,-0.56964 -0.580567,-0.86024 -0.172874,-0.27484 -0.372512,-0.53311 -0.5353,-0.81536 -0.171908,-0.26942 -0.344429,-0.53844 -0.517282,-0.80725 -0.168706,-0.26032 -0.337775,-0.5204 -0.507597,-0.78 -0.156851,-0.23846 -0.314082,-0.47672 -0.475568,-0.71207 -0.156609,-0.22556 -0.306252,-0.45566 -0.466942,-0.67843 -0.164573,-0.23175 -0.333592,-0.46064 -0.489788,-0.69812 -0.150085,-0.21732 -0.287314,-0.44357 -0.444921,-0.65607 -0.130577,-0.21259 -0.279104,-0.41349 -0.416933,-0.62141 -0.131154,-0.19585 -0.262729,-0.39142 -0.394489,-0.58687 -0.12346,-0.18182 -0.244684,-0.3651 -0.367855,-0.54711 -0.115784,-0.16905 -0.234529,-0.33605 -0.349195,-0.50587 -0.111648,-0.16044 -0.227369,-0.31803 -0.337095,-0.47982 -0.11108,-0.15746 -0.224107,-0.3135 -0.335846,-0.47049 -0.106968,-0.15055 -0.216119,-0.29953 -0.322921,-0.45019 -0.09127,-0.12774 -0.18074,-0.25674 -0.272973,-0.38379 -0.0823,-0.11413 -0.160105,-0.23092 -0.243401,-0.34418 -0.02008,-0.0323 -0.08272,-0.11352 -0.07041,-0.12292 0.05017,0.052 0.10201,0.10571 0.166365,0.13963 0,0 3.689585,-4.34681 3.689585,-4.34681 z"
       inkscape:connector-curvature="0" />
    <path
       style="fill:#ffcc00;fill-opacity:1;stroke:none;stroke-width:1.16416669;stroke-miterlimit:4;stroke-dasharray:none;stroke-opacity:1"
       id="path1959"
       d="m 31.766552,207.75526 c -0.03904,-0.0377 -0.09186,-0.0289 -0.142526,-0.0368 -0.03687,-0.006 -0.07992,0.007 -0.11793,0.0181 -0.09542,7.9e-4 -0.174942,-0.0475 -0.263729,-0.073 -0.0939,-0.0545 -0.18842,-0.10677 -0.281199,-0.16345 -0.08793,-0.0332 -0.173524,-0.0725 -0.251335,-0.12636 -0.09034,-0.0776 -0.172832,-0.16344 -0.262845,-0.24132 -0.108083,-0.1102 -0.215313,-0.22049 -0.318733,-0.33512 -0.09913,-0.11534 -0.202772,-0.22694 -0.29219,-0.35014 -0.08884,-0.1 -0.172162,-0.20626 -0.268433,-0.29918 -0.07683,-0.1061 -0.162235,-0.20488 -0.247682,-0.30416 -0.07801,-0.0922 -0.156821,-0.18373 -0.236064,-0.27487 -0.08834,-0.0883 -0.168336,-0.18402 -0.252495,-0.27631 -0.09256,-0.10237 -0.187425,-0.20272 -0.281836,-0.30341 -0.102638,-0.10662 -0.203097,-0.21534 -0.305949,-0.32175 -0.09632,-0.0977 -0.184367,-0.20281 -0.281858,-0.29929 -0.09756,-0.0995 -0.19718,-0.19691 -0.297002,-0.29412 -0.112176,-0.1325 -0.24629,-0.24425 -0.368329,-0.36731 -0.119468,-0.12441 -0.240737,-0.24704 -0.361196,-0.37053 -0.134049,-0.13018 -0.263279,-0.26517 -0.394031,-0.39862 -0.137524,-0.14622 -0.275873,-0.29165 -0.413284,-0.43797 -0.137521,-0.14676 -0.274942,-0.29361 -0.411086,-0.44164 -0.144404,-0.15518 -0.279167,-0.31853 -0.415688,-0.48086 -0.147495,-0.17481 -0.272868,-0.3663 -0.394257,-0.55963 -0.123559,-0.20224 -0.24007,-0.40862 -0.36244,-0.61162 -0.118286,-0.20821 -0.262104,-0.39623 -0.39574,-0.59446 -0.144155,-0.20344 -0.190294,-0.45276 -0.314711,-0.66596 -0.109992,-0.20588 -0.280145,-0.38407 -0.311784,-0.61909 0.04369,-0.25453 -0.164679,-0.42054 -0.28861,-0.62039 -0.123103,-0.17142 -0.20893,-0.36472 -0.323915,-0.54043 -0.09681,-0.17304 -0.206443,-0.33911 -0.294905,-0.51686 -0.08999,-0.17478 -0.150195,-0.36223 -0.228029,-0.54211 -0.0254,-0.2026 -0.15174,-0.35195 -0.255339,-0.51847 -0.104656,-0.15406 -0.221201,-0.30026 -0.316451,-0.46043 -0.07163,-0.17262 -0.19024,-0.32338 -0.296739,-0.47669 -0.101025,-0.15882 -0.21108,-0.30833 -0.337551,-0.44738 -0.111214,-0.15044 -0.235084,-0.29057 -0.340715,-0.44538 -0.113627,-0.15628 -0.214627,-0.32126 -0.327797,-0.47776 -0.08419,-0.17627 -0.18396,-0.32981 -0.320404,-0.47067 -0.112672,-0.13955 -0.244441,-0.27274 -0.341739,-0.42572 -0.101255,-0.14293 -0.203034,-0.28492 -0.296573,-0.43322 -0.109434,-0.1441 -0.198934,-0.30266 -0.293446,-0.45685 -0.107307,-0.1508 -0.157964,-0.33215 -0.254416,-0.48747 -0.08312,-0.16068 -0.149764,-0.32817 -0.235295,-0.48783 -0.09577,-0.28566 0.03156,0.12944 -0.02864,-0.21753 -0.02848,-0.16413 -0.06841,-0.026 -0.05737,-0.21474 0.04217,-0.20531 0.02957,-0.10474 0.04057,-0.30133 0.03541,-0.26462 -0.101508,-0.49399 -0.122512,-0.74984 -0.05747,-0.24397 -0.05499,-0.48566 -0.175891,-0.70833 -0.130957,-0.1906 -0.267663,-0.37714 -0.398834,-0.56759 0.01073,-0.1888 0.0259,-0.10201 -0.03442,-0.26206 0,0 0.141097,-0.0958 0.141097,-0.0958 v 0 c 0.125851,0.11405 0.05109,0.0689 0.229974,0.12564 0.130432,0.18872 0.257992,0.37949 0.393578,0.56459 0.169066,0.1859 0.396247,0.25929 0.609657,0.38608 0.233394,0.0946 0.409899,0.28844 0.67026,0.32585 0.09946,0.0238 0.20374,0.024 0.30277,0.0496 0.150917,0.0389 0.280083,0.18639 0.417264,0.25234 0.146021,0.16551 0.302371,0.32221 0.435612,0.49847 0.104759,0.15889 0.249013,0.28915 0.344027,0.45637 0.09754,0.15093 0.200948,0.29935 0.283362,0.45912 0.09783,0.15482 0.186414,0.31471 0.273764,0.47548 0.09336,0.15485 0.153323,0.33184 0.226985,0.49482 0.06045,0.17154 0.140905,0.31708 0.260262,0.45432 0.08456,0.15085 0.187048,0.29075 0.280156,0.43637 0.102557,0.15072 0.185111,0.31304 0.283724,0.46602 0.08367,0.16536 0.183548,0.31865 0.295204,0.46688 0.103502,0.14854 0.201538,0.30722 0.337067,0.42787 0.115219,0.13789 0.211101,0.29063 0.319989,0.43354 0.118936,0.14378 0.214181,0.30165 0.394467,0.37768 0.146527,0.12424 0.306197,0.23288 0.445228,0.36634 0.144779,0.13492 0.27255,0.28658 0.410231,0.42835 0.129533,0.15344 0.283748,0.28409 0.41089,0.44042 0.146565,0.15638 0.239953,0.37836 0.481558,0.37562 0.206256,0.068 0.334455,0.25226 0.501301,0.38599 0.164778,0.14051 0.374426,0.20733 0.53784,0.35046 0.159891,0.13883 0.310523,0.28367 0.485738,0.40373 0.174022,0.12923 0.354751,0.24816 0.532879,0.37148 0.174141,0.12325 0.345482,0.25136 0.501282,0.39757 0.155387,0.1457 0.311727,0.29 0.458788,0.44395 0.140231,0.14486 0.278979,0.29114 0.417285,0.43783 0.125261,0.13223 0.250211,0.26481 0.378256,0.39436 0.119052,0.12552 0.240665,0.24861 0.358833,0.37499 0.113858,0.11528 0.226986,0.2313 0.342556,0.3448 0.103455,0.10374 0.197718,0.21796 0.31483,0.30723 0.126045,0.12263 0.251902,0.24546 0.375127,0.37094 0.118851,0.12371 0.245202,0.23978 0.36042,0.36707 0.102447,0.11148 0.206651,0.22135 0.309007,0.33292 0.108083,0.11525 0.215413,0.23119 0.322853,0.34702 0.110704,0.12069 0.223694,0.23905 0.325162,0.36771 0.104331,0.11937 0.207791,0.23947 0.308203,0.36217 0.09159,0.11311 0.180363,0.2283 0.278122,0.33606 0.06925,0.10974 0.155059,0.20885 0.231764,0.3134 0.0658,0.0684 0.121693,0.14485 0.184354,0.216 0.04583,0.054 0.08919,0.10959 0.136594,0.16193 0.0442,0.0657 0.106902,0.11874 0.160192,0.17697 0.05225,0.068 0.100798,0.13972 0.109979,0.226 0.01508,0.05 0.02696,0.0996 0.05206,0.14535 0.01161,0.0687 0.0199,0.13537 0.05006,0.19839 0.0443,0.0873 0.103307,0.15498 0.13724,0.24542 0.01976,0.0671 0.02214,0.12817 0.08219,0.17529 0,0 -2.726679,2.837 -2.726679,2.837 z"
       inkscape:connector-curvature="0" />
  </g>
  <g
     inkscape:groupmode="layer"
     id="layer5"
     inkscape:label="Ebene 2">
    <path
       style="fill:#000000;fill-opacity:1;stroke:none;stroke-width:4.4000001;stroke-miterlimit:4;stroke-dasharray:none;stroke-opacity:1"
       d="m 232.66602,157.63672 c -1.48332,2.9867 -2.72237,6.0619 -3.68946,9.25195 -1.03454,3.36485 -1.5438,6.84421 -1.93554,10.33203 -0.47755,5.19753 -0.2489,10.42552 -0.16407,15.63868 -0.42642,0.80371 -0.84255,1.61294 -1.20117,2.45507 -1.15208,2.91724 -1.70799,6.01927 -2.25781,9.09375 -0.59607,3.37801 -1.28319,6.73956 -2.11133,10.06836 -0.70351,3.08263 -1.41892,6.16302 -2,9.27149 -0.52674,2.72673 -0.79568,5.49393 -1.01172,8.25976 -0.18092,2.27312 -0.39985,4.54531 -0.80078,6.79102 -0.21859,2.06378 -0.3998,4.11132 -0.85742,6.13672 -0.18668,1.97737 -0.26496,3.96661 -0.49219,5.93945 -0.0675,0.8136 -0.1326,1.6262 -0.19922,2.43945 -0.46388,0.0233 -0.92875,0.0612 -1.39453,0.13086 -2.89236,0.49906 -5.67507,1.44845 -8.49023,2.26367 -2.89979,1.0497 -5.71833,2.28964 -8.42774,3.76758 -2.31137,1.19128 -4.65869,2.3205 -6.85156,3.72852 -2.59821,1.61855 -5.17708,3.26633 -7.71484,4.97851 -2.42261,1.66411 -4.79682,3.39652 -6.96289,5.39063 -2.44503,2.11392 -4.95636,4.14622 -7.41797,6.24023 -2.36716,2.1054 -4.68394,4.27355 -6.72852,6.70117 -1.8683,2.14692 -2.87882,4.59634 -4.56316,6.89164 -1.07608,3.15425 -1.60308,4.10621 -1.16203,7.36874 0.5459,4.03802 0.52646,5.17707 1.39902,8.92517 0.33028,1.28974 0.90216,2.51041 1.46094,3.71485 0.88638,1.84712 2.35644,3.21029 4.04687,4.30859 0.22656,0.23269 0.48105,0.43371 0.74414,0.625 0.0259,0.17118 0.0408,0.33991 0.0762,0.51367 1.13923,5.58743 5.17334,8.30416 10.48829,8.94922 3.61557,0.0881 7.15693,-0.54325 10.66406,-1.40625 3.37787,-0.77226 6.77488,-1.53113 10.01172,-2.79297 3.06567,-1.27088 5.94878,-2.8797 8.80859,-4.55859 0.87911,-0.51529 1.74851,-1.04509 2.61914,-1.57422 1.16024,-0.63553 2.29049,-1.3326 3.39649,-2.07227 0.26311,-0.1612 0.52562,-0.32367 0.78906,-0.48437 1.82867,-1.08924 3.68679,-2.12802 5.52929,-3.19336 2.37644,-1.46876 4.64874,-3.11531 6.66016,-5.05664 0.2878,-0.0233 0.5728,-0.0588 0.85547,-0.12305 3.23131,-0.73402 5.21313,-3.54837 4.23437,-6.17578 0.61664,-0.91099 1.2129,-1.83683 1.76172,-2.79688 0.43161,-0.72989 0.87225,-1.45446 1.3086,-2.18164 0.0112,0.0461 0.0266,0.0879 0.0371,0.13477 0.0613,0.27189 0.0988,0.43193 0.15625,0.6543 0.1036,-0.52306 0.23857,-1.04457 0.25195,-1.53321 0.98469,-1.63093 1.97962,-3.25519 3.00391,-4.86132 1.90654,-3.0122 3.84506,-6.05059 5.07812,-9.41407 1.04571,-3.24908 1.61834,-6.56075 0.81445,-9.94336 -0.48017,-2.58049 -0.94915,-5.18466 -2.17578,-7.53906 -0.91707,-1.36945 -1.86675,-2.50856 -2.94336,-3.48828 0.0985,-0.62527 0.1821,-1.25353 0.25782,-1.88281 0.2669,0.79678 0.4527,1.36596 0.89648,2.65234 l 0.63672,-0.0996 c 0.32141,-13.10455 -0.48678,0.14394 1.92773,-13.51758 0.39913,-2.25837 0.46572,-4.56391 0.67578,-6.84765 0.69066,-7.50921 0.52748,-5.77425 0.875,-13.18164 0.026,-2.58475 0.0665,-5.16957 0.1211,-7.75391 0.15748,0.40864 0.30513,0.82073 0.46484,1.22852 1.78269,4.5729 3.74557,9.06814 6.01563,13.41992 1.63388,2.68033 3.04145,6.03034 5.95117,7.61328 0.56505,0.3074 1.19914,0.46655 1.79883,0.69922 3.84643,0.59819 4.38519,-1.39697 7.27148,-2.89063 0.42443,-0.21981 0.94301,-0.1616 1.41406,-0.24218 l 0.28321,-0.57813 c -0.19459,-0.40752 -0.58695,-0.77108 -0.58203,-1.22266 0.0228,-2.24097 1.31455,-4.24899 1.96679,-6.31835 0.0527,-0.27065 0.16121,-0.53679 0.15821,-0.8125 -0.0146,-1.60821 -2.33228,-3.1684 -2.82422,-4.6543 -2.10922,-3.65965 -3.84145,-7.5108 -5.42188,-11.42578 -2.08968,-5.10916 -4.14055,-10.24143 -5.85156,-15.49219 -2.36525,-7.53318 -3.7869,-15.29345 -4.28125,-23.18164 -0.0592,-0.70877 -0.11163,-1.4188 -0.17773,-2.12695 -0.16241,-1.73898 -0.25196,-1.83153 -0.91993,-0.4668 -0.13282,0.16883 -0.90782,1.00357 -1.03515,0.56055 -0.0518,0.0506 -0.20255,0.20805 -0.15625,0.15234 0.6764,-0.81492 1.20689,-2.2481 1.36133,-3.65625 0.0308,-1.30201 0.009,-2.62018 -0.34766,-3.88281 -0.0402,-0.0971 -0.16445,-0.38156 -0.24023,-0.57032 0.12324,-0.43169 0.24494,-0.86369 0.39648,-1.28711 l -1.4375,-0.65039 c -0.0603,-0.0541 -0.11911,-0.0991 -0.17578,-0.11523 -0.0891,-0.0254 -0.13922,-0.0412 -0.22656,-0.0664 z m -1.38672,138.54883 c -0.10471,0.52861 -0.17155,1.05526 -0.0215,1.54492 0.35579,-0.23487 0.2154,-0.7942 0.0215,-1.54492 z m -28.81446,-20.82227 c -0.20324,0.33365 -0.41967,0.65717 -0.6289,0.98633 -0.0141,-0.0127 -0.0289,-0.0244 -0.043,-0.0371 -0.26958,-0.24237 0.24665,-0.82711 0.67187,-0.94922 z m 2.92969,0.48828 c -0.13265,0.15219 -0.27066,0.29979 -0.4043,0.45117 -0.1066,-0.0571 -0.21193,-0.11647 -0.31835,-0.17382 0.25824,-0.1114 0.50101,-0.19671 0.72265,-0.27735 z m -4.35351,1.75 c -0.25248,0.37798 -0.51784,0.74645 -0.77735,1.11914 -0.14239,-0.14356 -0.27919,-0.29234 -0.42383,-0.43359 0.3915,-0.24456 0.79257,-0.47085 1.20118,-0.68555 z m 13.31836,12.07422 c -0.11495,0.68677 -0.22956,1.37441 -0.34571,2.06055 -3.8e-4,0.003 -0.002,0.005 -0.002,0.008 -0.75596,0.85295 -1.55648,1.66683 -2.39063,2.44336 -0.58243,0.59423 -1.23007,1.09546 -1.91015,1.55273 1.5401,-2.02894 3.09026,-4.04983 4.64844,-6.06445 z m -29.95899,6.01172 c -0.50692,1.49781 -1.06029,2.97919 -1.6582,4.44336 -0.42547,0.67247 -0.77731,1.37835 -0.97461,2.15039 -0.0543,0.21235 -0.14047,0.4406 -0.23438,0.67383 -0.52894,1.12632 -1.10883,2.22868 -1.69726,3.32617 -0.0526,0.10524 -0.0948,0.21229 -0.14258,0.31836 0.96129,-3.84288 2.65939,-7.49247 4.70703,-10.91211 z"
       transform="scale(0.26458333)"
       id="path1986"
       inkscape:connector-curvature="0"
       sodipodi:nodetypes="ccccccccccccccccccccccsccccccccccccccccccccccccccccccccccccccccccccccccccccccccccccccccccccccccccccccccccccccc" />
  </g>
</svg>
